<svg width="40" height="40" viewBox="0 0 40 40" fill="none" xmlns="http://www.w3.org/2000/svg">
<path fill-rule="evenodd" clip-rule="evenodd" d="M17.0914 6.59668C8.09405 6.59668 0.797329 13.8846 0.78186 22.88V22.9066V22.9354C0.786313 26.1088 1.69866 29.0696 3.27311 31.5742V30.2211C3.27311 28.0819 4.86085 26.2948 6.91811 25.9825C6.11647 25.2672 5.61381 24.2264 5.61381 23.0682C5.61381 20.9113 7.361 19.164 9.51788 19.164C10.5786 19.164 11.5397 19.5848 12.2417 20.2691C12.4233 17.7489 14.5248 15.7625 17.0914 15.7625C19.658 15.7625 21.7595 17.7489 21.9411 20.2691C22.6453 19.5848 23.6064 19.164 24.6649 19.164C26.8218 19.164 28.5712 20.9113 28.5712 23.0682C28.5712 24.2264 28.0663 25.2672 27.2669 25.9825C29.3219 26.2948 30.9119 28.0819 30.9119 30.2211V31.5742C32.4887 29.0629 33.4032 26.091 33.4032 22.9065C33.4032 20.7828 32.9958 18.7543 32.2583 16.8941C31.8863 16.945 31.5076 16.9716 31.1223 16.9716C26.6513 16.9716 23.0262 13.3486 23.0262 8.87754C23.0262 8.49223 23.0528 8.11129 23.1059 7.74152C21.2435 7.00199 19.2151 6.59668 17.0914 6.59668Z" fill="#CCF5FC"/>
<path fill-rule="evenodd" clip-rule="evenodd" d="M31.1221 0.78125C27.0364 0.78125 23.6572 3.80852 23.1058 7.74148C23.0527 8.11133 23.0261 8.49219 23.0261 8.8775C23.0261 13.3486 26.6512 16.9716 31.1222 16.9716C31.5075 16.9716 31.8862 16.945 32.2582 16.8941C36.1911 16.3404 39.2183 12.9633 39.2183 8.8775C39.2182 4.40641 35.5932 0.78125 31.1221 0.78125Z" fill="#FFCD69"/>
<path fill-rule="evenodd" clip-rule="evenodd" d="M17.0914 15.7627C14.5248 15.7627 12.4232 17.7491 12.2417 20.2693C12.2328 20.3866 12.2284 20.5062 12.2284 20.6236C12.2284 22.0652 12.8573 23.3608 13.8538 24.251C14.713 25.0194 15.849 25.4867 17.0914 25.4867C18.3359 25.4867 19.4697 25.0194 20.3311 24.251C21.3276 23.3608 21.9543 22.0653 21.9543 20.6236C21.9543 20.5062 21.9499 20.3866 21.9411 20.2693C21.7594 17.7491 19.6579 15.7627 17.0914 15.7627Z" fill="#FFDCD5"/>
<path fill-rule="evenodd" clip-rule="evenodd" d="M13.8538 24.2505C12.1929 24.5029 10.7756 25.5283 9.9851 26.9456C9.55768 27.7118 9.31409 28.5931 9.31409 29.5299V37.2476C11.6193 38.501 14.259 39.2141 17.0647 39.2185H17.0913H17.1178C19.9258 39.2141 22.5654 38.501 24.8685 37.2476V29.5299C24.8685 28.5932 24.6249 27.7118 24.1974 26.9456C23.4091 25.5283 21.9918 24.5029 20.331 24.2505C19.4696 25.0189 18.3357 25.4862 17.0912 25.4862C15.849 25.4862 14.713 25.0189 13.8538 24.2505Z" fill="#FF7D97"/>
<path fill-rule="evenodd" clip-rule="evenodd" d="M24.6648 19.1641C23.6063 19.1641 22.6452 19.5848 21.941 20.2691C21.9498 20.3865 21.9543 20.5061 21.9543 20.6234C21.9543 22.0651 21.3275 23.3606 20.3311 24.2509C21.9919 24.5033 23.4092 25.5287 24.1975 26.9459C24.3504 26.9659 24.5075 26.9747 24.6648 26.9747C25.6636 26.9747 26.5759 26.6005 27.2668 25.9826C28.0663 25.2673 28.5711 24.2265 28.5711 23.0683C28.5711 20.9113 26.8217 19.1641 24.6648 19.1641Z" fill="#FFDCD5"/>
<path fill-rule="evenodd" clip-rule="evenodd" d="M27.2668 25.9824C26.5759 26.6003 25.6635 26.9745 24.6648 26.9745C24.5075 26.9745 24.3503 26.9657 24.1975 26.9458C24.6249 27.712 24.8685 28.5934 24.8685 29.5302V37.2478C27.3377 35.9058 29.4215 33.9459 30.9118 31.5742V30.2212C30.9118 28.0818 29.3218 26.2947 27.2668 25.9824Z" fill="#FFCD69"/>
<path fill-rule="evenodd" clip-rule="evenodd" d="M9.51784 26.9745C8.51909 26.9745 7.60893 26.6003 6.91807 25.9824C4.86081 26.2947 3.27307 28.0818 3.27307 30.221V31.5741C4.7612 33.9458 6.84503 35.9057 9.31417 37.2477V29.53C9.31417 28.5933 9.55776 27.7119 9.98518 26.9456C9.83229 26.9657 9.67729 26.9745 9.51784 26.9745Z" fill="#FFCD69"/>
<path fill-rule="evenodd" clip-rule="evenodd" d="M9.51783 19.1641C7.36096 19.1641 5.61377 20.9113 5.61377 23.0683C5.61377 24.2265 6.11643 25.2673 6.91807 25.9826C7.609 26.6005 8.51916 26.9747 9.51783 26.9747C9.67729 26.9747 9.83228 26.9659 9.9851 26.9459C10.7756 25.5287 12.1929 24.5033 13.8538 24.2509C12.8573 23.3606 12.2284 22.0652 12.2284 20.6234C12.2284 20.5061 12.2328 20.3865 12.2417 20.2691C11.5396 19.5848 10.5786 19.1641 9.51783 19.1641Z" fill="#FFDCD5"/>
<path d="M5.55621 12.1567C5.75613 12.1567 5.95613 12.0805 6.10863 11.9279L6.11082 11.9257C6.4159 11.6206 6.41481 11.127 6.10973 10.822C5.80465 10.517 5.30895 10.518 5.00371 10.823C4.69863 11.1281 4.69863 11.6228 5.00371 11.928C5.15629 12.0805 5.35629 12.1567 5.55621 12.1567Z" fill="black"/>
<path d="M39.9998 8.87758C39.9998 3.9825 36.0174 0 31.1224 0C26.9802 0 23.4919 2.85187 22.5168 6.69516C20.776 6.11164 18.9555 5.81531 17.0916 5.81531C13.6939 5.81531 10.411 6.81047 7.59765 8.69328C7.23906 8.93328 7.14296 9.41852 7.38289 9.77711C7.53359 10.0023 7.78085 10.1239 8.03289 10.1239C8.18226 10.1239 8.33328 10.0812 8.46671 9.99188C11.022 8.2818 14.0044 7.37789 17.0916 7.37789C18.874 7.37789 20.6119 7.67562 22.2668 8.26172C22.2528 8.46523 22.2451 8.67055 22.2451 8.87758C22.2451 13.7715 26.2274 17.7529 31.1224 17.7529C31.329 17.7529 31.5338 17.7452 31.7369 17.7313C32.3239 19.3914 32.6221 21.1294 32.6221 22.9066C32.6221 24.9773 32.2134 26.954 31.4744 28.762C31.0402 27.3431 29.9919 26.164 28.6266 25.5695C29.0856 24.8451 29.3527 23.9875 29.3527 23.0683C29.3527 20.4847 27.2498 18.3828 24.6651 18.3828C23.89 18.3828 23.1418 18.571 22.4739 18.9246C21.751 16.6413 19.6118 14.9813 17.0916 14.9813C14.5716 14.9813 12.4324 16.6411 11.7094 18.9243C11.0427 18.5709 10.2944 18.3828 9.51812 18.3828C6.9346 18.3828 4.83281 20.4847 4.83281 23.0683C4.83281 23.9876 5.09968 24.8452 5.55851 25.5696C4.19296 26.1641 3.14468 27.3437 2.71062 28.7631C1.97179 26.9548 1.56335 24.9777 1.56335 22.9066C1.56335 19.8445 2.45414 16.8816 4.13945 14.3384C4.37781 13.9787 4.27945 13.4939 3.91976 13.2555C3.56007 13.0172 3.07531 13.1156 2.83695 13.4752C0.981557 16.2751 0.000854492 19.5364 0.000854492 22.9066C0.000854492 27.4723 1.77843 31.7648 5.00617 34.9933C8.23413 38.222 12.5262 40 17.0916 40C21.6572 40 25.9496 38.222 29.1781 34.9934C32.4066 31.7648 34.1846 27.4723 34.1846 22.9066C34.1846 21.0475 33.8879 19.227 33.3034 17.4816C37.1473 16.5071 39.9998 13.0193 39.9998 8.87758ZM17.0916 16.5437C19.3423 16.5437 21.1734 18.3738 21.1734 20.6234C21.1734 22.8741 19.3423 24.7052 17.0916 24.7052C14.841 24.7052 13.0099 22.8741 13.0099 20.6234C13.0098 18.3739 14.8409 16.5437 17.0916 16.5437ZM8.5332 29.5302V35.8589C6.74804 34.675 5.22062 33.1326 4.0546 31.3345V30.2211C4.0546 28.6137 5.17632 27.2062 6.71242 26.8201C7.31812 27.2746 8.03718 27.5852 8.81859 27.7027C8.63374 28.2834 8.5332 28.8978 8.5332 29.5302ZM9.51812 26.1934C7.79617 26.1934 6.39531 24.7914 6.39531 23.0682C6.39531 21.3462 7.79624 19.9452 9.51812 19.9452C10.2276 19.9452 10.9012 20.1803 11.4477 20.6122C11.4477 20.6159 11.4473 20.6196 11.4473 20.6234C11.4473 21.8116 11.8173 22.9148 12.4469 23.8252C11.2456 24.2955 10.2319 25.1352 9.53757 26.193C9.53101 26.1931 9.52476 26.1934 9.51812 26.1934ZM24.0876 36.7698C21.9839 37.8359 19.6068 38.4375 17.0916 38.4375C14.5764 38.4375 12.1993 37.8356 10.0957 36.7694V29.5302C10.0957 27.4095 11.5991 25.5563 13.643 25.087C14.5976 25.8262 15.7937 26.2677 17.0916 26.2677C18.3896 26.2677 19.5858 25.8262 20.5403 25.0869C22.5842 25.5559 24.0876 27.4091 24.0876 29.5302V36.7698ZM24.6442 26.1928C23.9498 25.1355 22.9373 24.2953 21.7362 23.8252C22.3658 22.9148 22.7358 21.8117 22.7358 20.6234C22.7358 20.6195 22.7355 20.6155 22.7355 20.6115C23.2841 20.1801 23.9577 19.9452 24.665 19.9452C26.3882 19.9452 27.7901 21.3462 27.7901 23.0682C27.7901 24.7914 26.3882 26.1934 24.665 26.1934C24.6579 26.1934 24.6513 26.1928 24.6442 26.1928ZM30.1309 31.3311C28.9641 33.1304 27.4367 34.6752 25.6501 35.8597V29.5302C25.6501 28.8979 25.5504 28.2833 25.3655 27.7027C26.1472 27.5851 26.8664 27.2745 27.4723 26.82C29.0088 27.206 30.1309 28.6138 30.1309 30.2211V31.3311ZM31.1224 16.1904C27.089 16.1904 23.8076 12.9098 23.8076 8.87758C23.8076 4.84406 27.089 1.5625 31.1224 1.5625C35.1559 1.5625 38.4373 4.84399 38.4373 8.87758C38.4373 12.9098 35.1559 16.1904 31.1224 16.1904Z" fill="black"/>
<path d="M34.6477 8.09609H31.9035V5.34961C31.9035 4.91812 31.5537 4.56836 31.1223 4.56836C30.6908 4.56836 30.341 4.91812 30.341 5.34961V8.09609H27.5946C27.1631 8.09609 26.8134 8.44586 26.8134 8.87734C26.8134 9.30883 27.1631 9.65859 27.5946 9.65859H30.341V12.4028C30.341 12.8343 30.6908 13.1841 31.1223 13.1841C31.5537 13.1841 31.9035 12.8343 31.9035 12.4028V9.65859H34.6477C35.0791 9.65859 35.4289 9.30883 35.4289 8.87734C35.4289 8.44586 35.0791 8.09609 34.6477 8.09609Z" fill="black"/>
</svg>
