<svg width="33" height="32" viewBox="0 0 33 32" fill="none" xmlns="http://www.w3.org/2000/svg">
<path d="M29.4812 19L27.764 17.285C27.9594 16.8846 28.062 16.4454 28.0644 16C28.0644 15.4067 27.8882 14.8266 27.5582 14.3333C27.2281 13.8399 26.759 13.4554 26.2101 13.2284C25.6612 13.0013 25.0573 12.9419 24.4746 13.0576C23.8919 13.1734 23.3567 13.4591 22.9366 13.8787C22.5165 14.2982 22.2304 14.8328 22.1145 15.4147C21.9986 15.9967 22.0581 16.5999 22.2854 17.1481C22.5128 17.6962 22.8978 18.1648 23.3918 18.4944C23.8857 18.8241 24.4665 19 25.0606 19C25.5069 18.9978 25.947 18.8952 26.3482 18.7L28.0644 20.414V28H22.0568V25C22.0546 23.1441 21.3155 21.3649 20.0016 20.0526C18.6876 18.7403 16.9061 18.0021 15.0478 18H9.04018C7.18195 18.0021 5.40043 18.7403 4.08646 20.0526C2.77249 21.3649 2.03337 23.1441 2.03125 25V30H30.067V20.414C30.0677 20.1514 30.0163 19.8912 29.9158 19.6485C29.8152 19.4058 29.6675 19.1854 29.4812 19V19ZM4.0338 25C4.03539 23.6744 4.56336 22.4036 5.50189 21.4662C6.44043 20.5289 7.71289 20.0016 9.04018 20H15.0478C16.3751 20.0016 17.6476 20.5289 18.5861 21.4662C19.5247 22.4036 20.0526 23.6744 20.0542 25V28H4.0338V25Z" fill="#88165B"/>
<path d="M12.0441 4C13.0343 4 14.0022 4.29325 14.8255 4.84265C15.6488 5.39206 16.2905 6.17295 16.6694 7.08658C17.0483 8.00021 17.1474 9.00555 16.9543 9.97545C16.7611 10.9454 16.2843 11.8363 15.5841 12.5355C14.884 13.2348 13.9919 13.711 13.0208 13.9039C12.0496 14.0969 11.043 13.9978 10.1282 13.6194C9.21343 13.241 8.43155 12.6001 7.88144 11.7779C7.33133 10.9556 7.03771 9.98891 7.03771 9C7.03771 7.67392 7.56517 6.40215 8.50404 5.46447C9.44292 4.52678 10.7163 4 12.0441 4V4ZM12.0441 2C10.6579 2 9.30275 2.41054 8.15014 3.17971C6.99752 3.94888 6.09917 5.04213 5.56868 6.32122C5.03819 7.6003 4.89939 9.00777 5.16983 10.3656C5.44028 11.7235 6.10781 12.9708 7.08803 13.9497C8.06824 14.9287 9.31712 15.5954 10.6767 15.8655C12.0363 16.1356 13.4456 15.997 14.7263 15.4672C16.007 14.9373 17.1016 14.0401 17.8718 12.889C18.642 11.7378 19.053 10.3845 19.053 9C19.053 7.14349 18.3146 5.36301 17.0001 4.05025C15.6857 2.7375 13.903 2 12.0441 2V2Z" fill="#88165B"/>
</svg>
