<svg xmlns="http://www.w3.org/2000/svg" width="72.821" height="41.269" viewBox="0 0 72.821 41.269">
  <g id="Group_3501" data-name="Group 3501" transform="translate(-138.939 -77.655)">
    <rect id="Rectangle_3545" data-name="Rectangle 3545" width="3.359" height="12" transform="translate(208.4 81.731)" fill="#fff"/>
    <path id="Path_7644" data-name="Path 7644" d="M616.977,273.483h-.6V260.861h-3.359v15.955h7.318V265h-3.359Z" transform="translate(-408.576 -157.892)" fill="#fff" fill-rule="evenodd"/>
    <path id="Path_7645" data-name="Path 7645" d="M444.773,265h-.72v-4.139h-3.359V265H436.6v3.359h.015v5.124h-.84V264.22h4.2v-3.359h-7.558v15.955h7.558v-8.457h.72v8.457h3.359v-8.457h.72v8.457h3.359V260.861h-3.359Z" transform="translate(-252.928 -157.892)" fill="#fff" fill-rule="evenodd"/>
    <path id="Path_7646" data-name="Path 7646" d="M225.8,265h-.96v-4.139H197.551v3.359h23.933v12.6h3.359v-8.457h.96v8.457h3.359V260.861H225.8Z" transform="translate(-50.514 -157.892)" fill="#fff" fill-rule="evenodd"/>
    <path id="Path_7647" data-name="Path 7647" d="M556.465,260.861h-3.359v15.955h3.359v-8.457h.72v8.457h3.359V260.861h-4.079Zm.72,4.139h-.72v-.78h.72Z" transform="translate(-356.942 -157.893)" fill="#fff" fill-rule="evenodd"/>
    <path id="Path_7648" data-name="Path 7648" d="M142.3,93.731h3.959V77.655H142.9V90.372h-.6V81.731h-3.359v12H142.3Z" transform="translate(0)" fill="#fff" fill-rule="evenodd"/>
    <rect id="Rectangle_3546" data-name="Rectangle 3546" width="3.239" height="3.359" transform="translate(154.595 77.655)" fill="#fff"/>
    <rect id="Rectangle_3547" data-name="Rectangle 3547" width="3.179" height="3.359" transform="translate(158.794 77.655)" fill="#fff"/>
    <rect id="Rectangle_3548" data-name="Rectangle 3548" width="3.179" height="3.359" transform="translate(158.794 81.731)" fill="#fff"/>
    <rect id="Rectangle_3549" data-name="Rectangle 3549" width="3.179" height="3.359" transform="translate(158.794 86.113)" fill="#fff"/>
    <rect id="Rectangle_3550" data-name="Rectangle 3550" width="72.82" height="3.359" transform="translate(138.939 96.67)" fill="#fff"/>
    <path id="Path_7649" data-name="Path 7649" d="M147.337,265h-.3v7.763h19.854v.72H146.257V260.861h-7.318v15.955H142.3v-8.457h.6v8.457h27.353v-7.473H150.336v-.985h19.914V265H147.337Zm-5.039,0v-.78h.6V265Z" transform="translate(0 -157.893)" fill="#fff" fill-rule="evenodd"/>
    <path id="Path_7650" data-name="Path 7650" d="M200.85,93.731h57.464V77.655H213.387v3.359h41.568v.717H213.387V85.09h41.568v1.023H213.387v3.359h41.568v.9H205.109v-.9h3.239V86.113h-3.239V85.09h3.239V81.731h-6.418v8.641h-1.08V81.014h3.119V77.655h-6.418V93.731h3.3Z" transform="translate(-50.514)" fill="#fff" fill-rule="evenodd"/>
    <path id="Path_7651" data-name="Path 7651" d="M642.813,81.014h2.219v-1.14h-2.219V78.8h2.219v-1.14h-3.359v3.359h1.14Z" transform="translate(-433.272)" fill="#fff" fill-rule="evenodd"/>
  </g>
</svg>
