<svg width="80" height="66" viewBox="0 0 80 66" fill="none" xmlns="http://www.w3.org/2000/svg">
<path d="M79.8591 4.58301H76.4758V17.1343H79.8591V4.58301Z" fill="#010101"/>
<path d="M71.9647 17.0641H75.3479V0H71.9647H26.4317V3.38462H71.9647V4.58333H26.4317V7.96795H71.9647V9.09615H26.4317V12.5513H71.9647V13.6795H17.3391V12.5513H20.7224V9.09615H17.3391V7.96795H20.7224V4.58333H17.3391H13.8854V7.96795V9.09615V12.5513V13.6795H12.7576V3.38462H16.2114V0H12.7576H9.37439V3.38462V13.6795V17.0641H71.9647Z" fill="#010101"/>
<path d="M8.2471 17.0641V13.6795V0H4.79336V13.6795H3.66561V4.58333H0.282349V13.6795V17.0641H8.2471Z" fill="#010101"/>
<path d="M79.9299 20.5195H0.282349V23.9041H79.9299V20.5195Z" fill="#010101"/>
<path d="M25.2335 4.58301H21.8502V7.96762H25.2335V4.58301Z" fill="#010101"/>
<path d="M25.2335 9.0957H21.8502V12.4803H25.2335V9.0957Z" fill="#010101"/>
<path d="M79.9295 40.9683V31.8722H76.4757V40.9683H75.348V27.3594H71.9647V40.9683V44.4235H79.9295V40.9683Z" fill="#010101"/>
<path d="M58.2906 44.4235H61.7443V35.3273V31.8722V27.3594H58.2906V31.8722H57.1628V27.3594H53.7796V31.8722H52.5813H49.1981V35.3273V40.9683H48.0703V30.744H52.5813V27.3594H48.0703H44.6166V44.4235H52.5813V40.9683V35.3273H53.7796V44.4235H57.1628V35.3273H58.2906V44.4235Z" fill="#010101"/>
<path d="M67.3832 31.872H66.2555V30.7438H67.3832V31.872ZM62.8722 44.4233H66.2555V41.0387V35.3271H67.3832V44.4233H70.7665V35.3271V31.9425V30.8143V27.4297H67.3832H66.2555H62.8722V30.8143V31.9425V35.3271" fill="#010101"/>
<path d="M40.1057 31.8722H38.9779V30.744V27.3594H35.5242H9.37439V30.744H35.5242V31.8722V35.3273V44.4235H38.9779V35.3273H40.1057V44.4235H43.4889V35.3273V31.8722V27.3594H40.1057V31.8722Z" fill="#010101"/>
<path d="M4.79336 31.8714H3.66561V30.7432H4.79336V31.8714V31.8714ZM9.37486 31.8714V35.256V36.3842V39.7689H31.0136V40.8971H8.2471V35.1855V31.8009V30.6727V27.2881H4.79336H3.66561H0.282349V30.6727V31.8009V35.1855V44.4227H3.66561V35.3265H4.79336V41.0381V44.4227H34.3969V41.0381V39.9099V36.5253H31.0136H12.7581V35.3971H34.3969V32.0124H12.7581H9.37486V31.8714Z" fill="#010101"/>
<path d="M28.265 49.7119H27.6299V54.7183H28.265V49.7119Z" fill="#010101"/>
<path d="M33.692 51.193C33.7626 51.193 33.7626 51.193 33.8332 51.193C33.9038 51.193 33.9038 51.1225 33.9743 51.1225C33.9743 51.1225 34.0449 51.0519 34.0449 50.9813C34.0449 50.9107 34.0449 50.9107 34.0449 50.8402C34.0449 50.7696 34.0449 50.7696 34.0449 50.699C34.0449 50.6285 33.9743 50.6284 33.9743 50.5579C33.9743 50.5579 33.9038 50.4873 33.8332 50.4873C33.7626 50.4873 33.7626 50.4873 33.692 50.4873C33.6215 50.4873 33.6215 50.4873 33.5509 50.4873C33.4803 50.4873 33.4803 50.5579 33.4097 50.5579C33.4097 50.5579 33.3392 50.6285 33.3392 50.699C33.3392 50.7696 33.3392 50.7696 33.3392 50.8402C33.3392 50.9107 33.3392 51.0519 33.4803 51.1225C33.6215 51.193 33.5509 51.193 33.692 51.193Z" fill="#010101"/>
<path d="M34.6789 51.193C34.7494 51.193 34.7494 51.193 34.82 51.193C34.8906 51.193 34.8906 51.1225 34.9611 51.1225C34.9611 51.1225 35.0317 51.0519 35.0317 50.9813C35.0317 50.9107 35.0317 50.9107 35.0317 50.8402C35.0317 50.7696 35.0317 50.7696 35.0317 50.699C35.0317 50.6285 34.9611 50.6284 34.9611 50.5579C34.9611 50.5579 34.8906 50.4873 34.82 50.4873C34.7494 50.4873 34.7494 50.4873 34.6789 50.4873C34.6083 50.4873 34.6083 50.4873 34.5377 50.4873C34.4671 50.4873 34.4671 50.5579 34.3966 50.5579C34.3966 50.5579 34.326 50.6285 34.326 50.699C34.326 50.7696 34.326 50.7696 34.326 50.8402C34.326 50.9107 34.326 51.0519 34.4671 51.1225C34.6083 51.193 34.5377 51.193 34.6789 51.193Z" fill="#010101"/>
<path d="M48.2118 51.193C48.2823 51.193 48.2823 51.193 48.3529 51.193C48.4235 51.193 48.4235 51.1225 48.494 51.1225C48.494 51.1225 48.5646 51.0519 48.5646 50.9813C48.5646 50.9107 48.5646 50.9107 48.5646 50.8402C48.5646 50.7696 48.5646 50.7696 48.5646 50.699C48.5646 50.6285 48.494 50.6284 48.494 50.5579C48.494 50.5579 48.4235 50.4873 48.3529 50.4873C48.2823 50.4873 48.2823 50.4873 48.2118 50.4873C48.1412 50.4873 48.1412 50.4873 48.0706 50.4873C48 50.4873 48 50.5579 47.9295 50.5579C47.9295 50.5579 47.8589 50.6285 47.8589 50.699C47.8589 50.7696 47.8589 50.7696 47.8589 50.8402C47.8589 50.9107 47.9295 51.0519 48 51.1225C48 51.1225 48.0706 51.193 48.2118 51.193Z" fill="#010101"/>
<path d="M47.2249 51.193C47.2955 51.193 47.2955 51.193 47.3661 51.193C47.4366 51.193 47.4367 51.1225 47.5072 51.1225C47.5072 51.1225 47.5778 51.0519 47.5778 50.9813C47.5778 50.9107 47.5778 50.9107 47.5778 50.8402C47.5778 50.7696 47.5778 50.7696 47.5778 50.699C47.5778 50.6285 47.5072 50.6284 47.5072 50.5579C47.5072 50.5579 47.4366 50.4873 47.3661 50.4873C47.2955 50.4873 47.2955 50.4873 47.2249 50.4873C47.1544 50.4873 47.1544 50.4873 47.0838 50.4873C47.0132 50.4873 47.0132 50.5579 46.9426 50.5579C46.9426 50.5579 46.8721 50.6285 46.8721 50.699C46.8721 50.7696 46.8721 50.7696 46.8721 50.8402C46.8721 50.9107 46.8721 51.0519 47.0132 51.1225C47.0132 51.1225 47.0838 51.193 47.2249 51.193Z" fill="#010101"/>
<path d="M57.8682 51.193C57.9388 51.193 57.9388 51.193 58.0094 51.193C58.08 51.193 58.08 51.1225 58.1505 51.1225C58.1505 51.1225 58.2211 51.0519 58.2211 50.9813C58.2211 50.9107 58.2211 50.9107 58.2211 50.8402C58.2211 50.7696 58.2211 50.7696 58.2211 50.699C58.2211 50.6285 58.1505 50.6284 58.1505 50.5579C58.1505 50.5579 58.08 50.4873 58.0094 50.4873C57.9388 50.4873 57.9388 50.4873 57.8682 50.4873C57.7977 50.4873 57.7977 50.4873 57.7271 50.4873C57.6565 50.4873 57.6565 50.5579 57.586 50.5579C57.586 50.5579 57.5154 50.6285 57.5154 50.699C57.5154 50.7696 57.5154 50.7696 57.5154 50.8402C57.5154 50.9107 57.586 51.0519 57.6565 51.1225C57.6565 51.1225 57.7271 51.193 57.8682 51.193Z" fill="#010101"/>
<path d="M59.1374 50.6287C59.1374 50.5581 59.0669 50.5581 59.0669 50.4876C59.0669 50.4876 58.9963 50.417 58.9257 50.417C58.8551 50.417 58.8551 50.417 58.7846 50.417C58.714 50.417 58.714 50.417 58.6434 50.417C58.5728 50.417 58.5728 50.4876 58.5023 50.4876C58.5023 50.4876 58.4317 50.5581 58.4317 50.6287C58.4317 50.6993 58.4317 50.6993 58.4317 50.7699C58.4317 50.8404 58.4317 50.9816 58.5728 51.0521C58.714 51.1227 58.714 51.1933 58.8551 51.1933C58.9257 51.1933 58.9257 51.1933 58.9963 51.1933C59.0669 51.1933 59.0669 51.1227 59.1374 51.1227C59.1374 51.1227 59.208 51.0521 59.208 50.9816C59.208 50.911 59.208 50.911 59.208 50.8404C59.208 50.7699 59.208 50.6993 59.1374 50.6287Z" fill="#010101"/>
<path d="M58.0792 54.1545H56.9515C56.74 54.1545 56.5286 54.1545 56.3876 54.084C56.2466 54.0134 56.1057 53.9429 55.9647 53.8724V52.0391H55.3303V53.7314C55.3303 53.8724 55.3303 53.9429 55.2598 54.0134C55.1894 54.084 55.1894 54.084 55.0484 54.084H54.8369C54.6255 54.084 54.4845 54.084 54.3435 54.0134C54.2026 53.9429 54.0616 53.9429 53.9206 53.8019V52.3211H53.2863V53.5904C53.2863 53.7314 53.2863 53.8019 53.2158 53.8724C53.1453 53.9429 53.1453 53.9429 53.0043 53.9429H52.7929C52.6519 53.9429 52.5109 53.9429 52.2995 53.8724C52.1585 53.8724 52.0176 53.8019 51.8766 53.7314V52.5327H51.2422V53.5199C51.2422 53.6609 51.2422 53.7314 51.1717 53.8019C51.1013 53.8724 51.1013 53.8724 50.9603 53.8724H49.903H48.7753C48.5638 53.8724 48.4228 53.8724 48.2819 53.8019C48.1409 53.7314 47.9999 53.7314 47.9295 53.6609V51.8275H47.2951V53.5199C47.2951 53.6609 47.2951 53.7314 47.2246 53.8019C47.1541 53.8724 47.1541 53.8724 47.0836 53.8724H46.3788H45.251H44.8986C44.8281 53.8724 44.7576 53.8724 44.6872 53.8019C44.6167 53.7314 44.6167 53.6609 44.5462 53.5199C44.4757 53.4493 44.4757 53.3083 44.4757 53.1673C44.4757 53.0263 44.4052 52.8852 44.4052 52.7442C44.4052 52.6032 44.3347 52.4622 44.2643 52.3211C44.1938 52.1801 44.1233 52.0391 44.0528 51.9686C43.9823 51.8981 43.8413 51.757 43.7004 51.757C43.5594 51.757 43.4184 51.6865 43.207 51.6865C42.9955 51.6865 42.8546 51.6865 42.7136 51.757C42.5726 51.757 42.4317 51.8275 42.2907 51.8981V52.4622C42.3612 52.4622 42.3612 52.3917 42.4317 52.3917C42.5021 52.3917 42.5726 52.3916 42.6431 52.3211C42.7136 52.3211 42.7841 52.3211 42.8546 52.3211C42.9251 52.3211 42.9955 52.3211 42.9955 52.3211C43.207 52.3211 43.348 52.3211 43.4184 52.3917C43.5594 52.4622 43.6299 52.5327 43.7004 52.6737C43.7709 52.8147 43.8413 52.8852 43.8413 53.0263C43.8413 53.1673 43.9118 53.3083 43.9118 53.4493C43.9118 53.5904 43.9823 53.7314 43.9823 53.8019C43.9823 53.8724 44.0528 53.9429 44.1233 54.0134H41.6563H40.5286H39.5418H38.414H37.2863H36.1585H35.4537V53.4493C35.4537 53.2378 35.4537 53.0263 35.3832 52.8852C35.3127 52.7442 35.3127 52.6032 35.2422 52.4622C35.1718 52.3211 35.1013 52.2506 35.0308 52.1801C34.9603 52.1096 34.8193 52.0391 34.7488 51.9686C34.6784 51.8981 34.5374 51.8981 34.4669 51.8981C34.3964 51.8981 34.2555 51.8981 34.185 51.8981C33.9735 51.8981 33.7621 51.9686 33.5506 52.0391C33.3392 52.1096 33.1982 52.2506 33.0572 52.3211C32.9162 52.4622 32.8458 52.6032 32.7753 52.8147C32.7048 53.0263 32.7048 53.1673 32.7048 53.3788C32.7048 53.5199 32.7048 53.7314 32.7753 53.8724C32.8458 54.0134 32.9162 54.1545 33.0572 54.2955C33.1982 54.4365 33.3392 54.507 33.4801 54.5775C33.6916 54.6481 33.903 54.7186 34.185 54.7186H34.8898C34.8898 55.0006 34.8193 55.2122 34.7488 55.3532C34.6784 55.5647 34.5374 55.7058 34.3964 55.8468C34.2555 55.9878 34.044 56.0583 33.8325 56.1288C33.6211 56.1993 33.4096 56.1993 33.1277 56.1993C32.8458 56.1993 32.6343 56.1993 32.4229 56.1288C32.2114 56.0583 32.0704 55.9878 31.9295 55.8468C31.7885 55.7058 31.718 55.5647 31.6475 55.4237C31.577 55.2827 31.577 55.0711 31.577 54.8596C31.577 54.7891 31.577 54.7186 31.577 54.5775C31.577 54.507 31.577 54.4365 31.6475 54.2955C31.6475 54.225 31.718 54.1545 31.718 54.084C31.718 54.0134 31.7885 53.9429 31.7885 53.8724L31.2246 53.5904C31.1541 53.6609 31.1541 53.8019 31.0836 53.8724C31.0132 53.9429 31.0132 54.084 30.9427 54.225C30.9427 54.366 30.8722 54.4365 30.8722 54.5775C30.8722 54.7186 30.8722 54.7891 30.8722 54.9301C30.8722 55.2122 30.9427 55.4237 31.0132 55.7058C31.0836 55.9173 31.2246 56.1288 31.4361 56.2699C31.6475 56.4109 31.859 56.5519 32.1409 56.6224C32.4229 56.6929 32.7048 56.7634 33.0572 56.7634C33.4096 56.7634 33.6916 56.6929 33.9735 56.6224C34.2554 56.5519 34.4669 56.4109 34.6784 56.1993C34.8898 56.0583 35.0308 55.7763 35.1717 55.5647C35.3127 55.2827 35.3832 55.0006 35.3832 54.6481H36.088H37.2158H38.3436H39.5418H40.6695H41.7973H45.392H46.5198H47.2951C47.4361 54.6481 47.577 54.6481 47.6475 54.5775C47.718 54.507 47.7885 54.4365 47.859 54.366C47.9999 54.4365 48.1409 54.507 48.2819 54.5775C48.4228 54.6481 48.6343 54.6481 48.9162 54.6481H50.044H51.1717C51.3127 54.6481 51.4537 54.6481 51.5242 54.5775C51.5946 54.507 51.6651 54.4365 51.7356 54.366C51.8061 54.4365 51.8766 54.507 51.9471 54.507C52.0176 54.5775 52.088 54.5775 52.229 54.5775C52.2995 54.5775 52.37 54.6481 52.5109 54.6481C52.5814 54.6481 52.7224 54.6481 52.7929 54.6481H53.1453C53.2863 54.6481 53.4272 54.6481 53.4977 54.5775C53.5682 54.507 53.7092 54.4365 53.7092 54.366C53.8502 54.507 53.9911 54.5775 54.2026 54.6481C54.414 54.7186 54.555 54.7186 54.7665 54.7186H55.1189C55.2598 54.7186 55.4008 54.7186 55.5418 54.5775C55.6123 54.507 55.7532 54.4365 55.7532 54.2955C55.8942 54.4365 56.0352 54.507 56.1761 54.5775C56.3171 54.6481 56.5286 54.6481 56.8105 54.6481H58.5726V51.9686H57.9383V54.1545H58.0792ZM34.8898 54.1545H34.2555C34.1145 54.1545 33.9735 54.1545 33.8325 54.084C33.6916 54.0134 33.6211 54.0134 33.5506 53.9429C33.4801 53.8724 33.4096 53.8019 33.4096 53.7314C33.4096 53.6609 33.3392 53.5199 33.3392 53.4493C33.3392 53.3083 33.3392 53.2378 33.4096 53.0968C33.4801 53.0263 33.4801 52.8852 33.5506 52.8147C33.6211 52.7442 33.6916 52.6737 33.7621 52.6737C33.8325 52.6032 33.9735 52.6032 34.044 52.6032C34.1145 52.6032 34.2554 52.6032 34.3259 52.6737C34.3964 52.6737 34.5374 52.7442 34.6079 52.8852C34.6784 52.9558 34.7488 53.0968 34.8193 53.2378C34.8898 53.3788 34.8898 53.5904 34.8898 53.8724V54.1545V54.1545Z" fill="#010101"/>
<path d="M77.6743 51.194C77.7449 51.194 77.7449 51.194 77.8155 51.194C77.886 51.194 77.886 51.1234 77.9566 51.1234C77.9566 51.1234 78.0272 51.0529 78.0272 50.9823C78.0272 50.9117 78.0272 50.9117 78.0272 50.8411C78.0272 50.7706 78.0272 50.7706 78.0272 50.7C78.0272 50.6294 77.9566 50.6294 77.9566 50.5589C77.9566 50.5589 77.886 50.4883 77.8155 50.4883C77.7449 50.4883 77.7449 50.4883 77.6743 50.4883C77.6037 50.4883 77.6037 50.4883 77.5332 50.4883C77.4626 50.4883 77.4626 50.5589 77.392 50.5589C77.392 50.5589 77.3214 50.6294 77.3214 50.7C77.3214 50.7706 77.3214 50.7706 77.3214 50.8411C77.3214 50.9117 77.3214 51.0529 77.392 51.1234C77.5332 51.1234 77.6037 51.194 77.6743 51.194Z" fill="#010101"/>
<path d="M78.7317 51.194C78.8023 51.194 78.8023 51.194 78.8728 51.194C78.9434 51.194 78.9434 51.1234 79.014 51.1234C79.014 51.1234 79.0845 51.0529 79.0845 50.9823C79.0845 50.9117 79.0845 50.9117 79.0845 50.8411C79.0845 50.7706 79.0845 50.7706 79.0845 50.7C79.0845 50.6294 79.014 50.6294 79.014 50.5589C79.014 50.5589 78.9434 50.4883 78.8728 50.4883C78.8023 50.4883 78.8023 50.4883 78.7317 50.4883C78.6611 50.4883 78.6611 50.4883 78.5905 50.4883C78.52 50.4883 78.52 50.5589 78.4494 50.5589C78.4494 50.5589 78.3788 50.6294 78.3788 50.7C78.3788 50.7706 78.3788 50.7706 78.3788 50.8411C78.3788 50.9117 78.4494 51.0529 78.52 51.1234C78.52 51.1234 78.5905 51.194 78.7317 51.194Z" fill="#010101"/>
<path d="M79.5064 52.7438C79.4359 52.6027 79.3654 52.3912 79.2245 52.3207C79.0835 52.1797 79.013 52.1092 78.8016 52.0386C78.6606 51.9681 78.4491 51.9681 78.2377 51.9681C78.0262 51.9681 77.8148 52.0386 77.6738 52.1092C77.5328 52.1797 77.3214 52.2502 77.2509 52.3912C77.1099 52.5322 77.0394 52.6733 76.969 52.8143C76.8985 52.9553 76.828 53.1668 76.828 53.3784C76.828 53.4489 76.828 53.5194 76.828 53.5899C76.828 53.6604 76.828 53.7309 76.8985 53.8015C76.8985 53.872 76.969 53.9425 76.969 54.013C76.969 54.0835 77.0394 54.0835 77.0394 54.154H75.9117H74.7839H74.0791V53.5899C74.0791 53.3784 74.0791 53.0963 74.0086 52.8848C73.9381 52.6733 73.8676 52.4617 73.7267 52.3207C73.5857 52.1797 73.4447 52.0386 73.2333 51.9681C73.0218 51.8976 72.8104 51.8271 72.5284 51.8271C72.3875 51.8271 72.2465 51.8271 72.1055 51.8976C71.9646 51.8976 71.8236 51.9681 71.7531 52.0386C71.6121 52.1092 71.5416 52.1797 71.4007 52.2502C71.2597 52.3207 71.1892 52.4617 71.1187 52.5322V49.7822H70.5549V53.4489C70.4844 53.5899 70.4139 53.7309 70.3434 53.872C70.2729 54.013 70.2729 54.0835 70.2024 54.2245H69.3566H68.2289H67.1011H65.9734H64.8456H63.7179H62.8721V52.1797H62.2377V54.5066C62.2377 54.7181 62.2377 54.8592 62.2377 55.0002C62.2377 55.1412 62.1672 55.2822 62.0967 55.3527C62.0262 55.4233 61.8853 55.5643 61.7443 55.6348C61.6033 55.7053 61.3919 55.7758 61.1804 55.7758L61.2509 56.4104C61.5328 56.4104 61.7443 56.3399 61.8853 56.2694C62.0967 56.1989 62.2377 56.1284 62.3787 55.9874C62.5196 55.8463 62.5901 55.7053 62.7311 55.5643C62.8016 55.4233 62.8721 55.2117 62.8721 54.9297H63.7179H64.8456H65.9734H67.1011H68.2289H69.3566H74.8544H75.9822H79.5769V53.5194C79.5769 53.0963 79.5769 52.8848 79.5064 52.7438ZM73.5152 54.154H70.8368C70.8368 54.013 70.9073 53.872 70.9778 53.8015C71.0483 53.6604 71.1187 53.5194 71.1892 53.3784C71.2597 53.2374 71.3302 53.1668 71.4712 53.0258C71.5417 52.8848 71.6826 52.8143 71.8236 52.7438C71.9646 52.6733 72.035 52.6027 72.176 52.5322C72.317 52.4617 72.458 52.4617 72.5989 52.4617C72.7399 52.4617 72.8809 52.4617 72.9513 52.5322C73.0923 52.6027 73.1628 52.6027 73.2333 52.7438C73.3038 52.8848 73.3742 52.9553 73.4447 53.0963C73.5152 53.2374 73.5152 53.4489 73.5152 53.6604V54.154ZM78.9425 54.154H78.3787C78.2377 54.154 78.0967 54.154 78.0262 54.0835C77.8853 54.013 77.8148 54.013 77.7443 53.9425C77.6738 53.872 77.6033 53.8015 77.5328 53.6604C77.4624 53.5899 77.4624 53.4489 77.4624 53.3079C77.4624 53.1668 77.4624 53.0963 77.5328 52.9553C77.6033 52.8848 77.6033 52.7438 77.6738 52.6733C77.7443 52.6027 77.8148 52.5322 77.8853 52.5322C77.9557 52.4617 78.0967 52.4617 78.1672 52.4617C78.2377 52.4617 78.3787 52.4617 78.4491 52.5322C78.5196 52.5322 78.5901 52.6027 78.6606 52.6733C78.7311 52.7438 78.8016 52.8143 78.8016 52.9553C78.872 53.0963 78.872 53.2374 78.872 53.3784V54.154H78.9425Z" fill="#010101"/>
<path d="M52.0881 60.6415H53.6387V64.9427H54.3436V60.6415H55.8942V60.0068H52.0881V60.6415Z" fill="#010101"/>
<path d="M58.4317 61.2753C58.1497 61.2753 57.9383 61.3458 57.7268 61.4163C57.5154 61.4869 57.3744 61.6984 57.2334 61.8394V59.583H56.5991V64.942H57.2334V63.2497C57.2334 63.0381 57.2334 62.8266 57.3039 62.6151C57.3744 62.4035 57.4449 62.2625 57.5154 62.1215C57.5858 61.9804 57.7268 61.9099 57.8678 61.8394C58.0088 61.7689 58.1497 61.6984 58.3612 61.6984C58.6431 61.6984 58.8546 61.8394 58.9955 62.051C59.1365 62.2625 59.1365 62.6151 59.1365 63.0381V64.942H59.8414V62.7561C59.8414 62.2625 59.7004 61.9099 59.4889 61.6279C59.207 61.4163 58.8546 61.2753 58.4317 61.2753Z" fill="#010101"/>
<path d="M63.9295 62.4741C63.859 62.1921 63.7885 61.9805 63.6475 61.8395C63.5066 61.628 63.3656 61.4869 63.1541 61.4164C62.9427 61.3459 62.6608 61.2754 62.3788 61.2754C62.0969 61.2754 61.8854 61.3459 61.674 61.4164C61.4625 61.4869 61.2511 61.628 61.1101 61.769C60.9691 61.91 60.8282 62.1215 60.7577 62.3331C60.6872 62.5446 60.6167 62.8267 60.6167 63.0382C60.6167 63.3203 60.6872 63.6023 60.7577 63.8139C60.8282 64.0254 60.9691 64.2369 61.1101 64.4485C61.2511 64.5895 61.4625 64.7305 61.674 64.8715C61.8854 64.9421 62.1674 65.0126 62.5198 65.0126C62.6607 65.0126 62.8017 65.0126 62.9427 65.0126C63.0837 65.0126 63.1541 64.9421 63.2246 64.9421C63.2951 64.9421 63.3656 64.8715 63.4361 64.8715C63.5066 64.8715 63.577 64.801 63.6475 64.801V64.0959C63.577 64.0959 63.5771 64.1664 63.4361 64.2369C63.3656 64.3074 63.2951 64.3074 63.1541 64.378C63.0837 64.4485 62.9427 64.4485 62.8017 64.4485C62.6608 64.4485 62.5903 64.519 62.4493 64.519C62.3083 64.519 62.1674 64.519 62.0264 64.4485C61.8854 64.378 61.7445 64.3074 61.674 64.1664C61.533 64.0254 61.4625 63.9549 61.392 63.8139C61.392 63.6728 61.392 63.4613 61.392 63.3203H64C64 63.0382 63.9295 62.7562 63.9295 62.4741ZM61.392 62.8267C61.392 62.6856 61.4625 62.6151 61.4625 62.4741C61.533 62.3331 61.533 62.2626 61.674 62.1215C61.7445 62.051 61.8149 61.91 61.9559 61.91C62.0969 61.8395 62.2378 61.8395 62.3788 61.8395C62.5198 61.8395 62.6608 61.8395 62.7312 61.91C62.8722 61.9805 62.9427 62.051 63.0132 62.1215C63.0837 62.1921 63.1541 62.3331 63.2246 62.4741C63.2951 62.6151 63.2951 62.7562 63.2951 62.8972H61.392V62.8267Z" fill="#010101"/>
<path d="M69.7796 62.8273C69.7092 62.7568 69.5682 62.6158 69.4272 62.6158C69.2862 62.5453 69.1453 62.5453 68.9338 62.4748C69.2158 62.4043 69.4977 62.2632 69.7092 62.0517C69.9206 61.8402 69.9911 61.6286 69.9911 61.2761C69.9911 61.0645 69.9206 60.853 69.8501 60.712C69.7796 60.5709 69.6387 60.4299 69.4977 60.2889C69.3567 60.2184 69.1453 60.1479 68.9338 60.0773C68.7224 60.0068 68.5109 60.0068 68.229 60.0068H66.8898V65.0132H68.229C68.5109 65.0132 68.7224 65.0132 68.9338 64.9427C69.1453 64.8722 69.3567 64.8017 69.5682 64.7312C69.7091 64.6607 69.8501 64.5197 69.9911 64.3081C70.0616 64.1671 70.1321 63.885 70.1321 63.6735C70.1321 63.5325 70.1321 63.3209 70.0616 63.1799C69.9911 63.0389 69.9206 62.8979 69.7796 62.8273ZM67.5946 60.5709H68.3699C68.4404 60.5709 68.5814 60.5709 68.7224 60.5709C68.8633 60.5709 68.9338 60.6415 69.0043 60.712C69.0748 60.7825 69.1453 60.853 69.2158 60.9235C69.2862 60.994 69.2862 61.135 69.2862 61.2761C69.2862 61.4876 69.2862 61.6286 69.2158 61.6991C69.1453 61.8402 69.0748 61.9107 68.9338 61.9107C68.7928 61.9812 68.6519 61.9812 68.5109 61.9812C68.3699 61.9812 68.1585 61.9812 68.0175 61.9812H67.5946V60.5709ZM69.2862 63.9556C69.2158 64.0261 69.1453 64.1671 69.0043 64.1671C68.8633 64.2376 68.7928 64.2376 68.5814 64.3081C68.4404 64.3081 68.2995 64.3081 68.088 64.3081H67.5241V62.6158H68.0175C68.1585 62.6158 68.2995 62.6158 68.5109 62.6158C68.6519 62.6158 68.7928 62.6863 68.9338 62.7568C69.0748 62.8274 69.1453 62.8979 69.2158 63.0389C69.2862 63.1799 69.3567 63.3209 69.3567 63.5325C69.3567 63.744 69.3567 63.885 69.2862 63.9556Z" fill="#010101"/>
<path d="M74.2202 62.4741C74.1498 62.1921 74.0793 61.9805 73.9383 61.8395C73.7973 61.628 73.6564 61.4869 73.4449 61.4164C73.2335 61.3459 72.9515 61.2754 72.6696 61.2754C72.3876 61.2754 72.1762 61.3459 71.9647 61.4164C71.7533 61.4869 71.5418 61.628 71.4009 61.769C71.2599 61.91 71.1189 62.1215 71.0484 62.3331C70.978 62.5446 70.9075 62.8267 70.9075 63.0382C70.9075 63.3203 70.978 63.6023 71.0484 63.8139C71.1189 64.0254 71.2599 64.2369 71.4009 64.4485C71.5418 64.5895 71.7533 64.7305 71.9647 64.8715C72.1762 64.9421 72.4581 65.0126 72.8106 65.0126C72.9515 65.0126 73.0925 65.0126 73.2335 65.0126C73.3744 65.0126 73.4449 64.9421 73.5154 64.9421C73.5859 64.9421 73.6564 64.8715 73.7269 64.8715C73.7973 64.8715 73.8678 64.801 73.9383 64.801V64.0959C73.8678 64.0959 73.8678 64.1664 73.7269 64.2369C73.6564 64.3074 73.5859 64.3074 73.4449 64.378C73.3744 64.4485 73.2335 64.4485 73.0925 64.4485C72.9515 64.4485 72.881 64.519 72.7401 64.519C72.5991 64.519 72.4581 64.519 72.3172 64.4485C72.1762 64.378 72.0352 64.3074 71.9647 64.1664C71.8238 64.0254 71.7533 63.9549 71.6828 63.8139C71.6123 63.6728 71.6123 63.5318 71.6123 63.3203H74.2202C74.2907 63.0382 74.2907 62.7562 74.2202 62.4741ZM71.6828 62.8267C71.6828 62.6856 71.7533 62.6151 71.7533 62.4741C71.8238 62.3331 71.8238 62.2626 71.9647 62.1215C72.0352 62.051 72.1057 61.91 72.2467 61.91C72.3876 61.8395 72.5286 61.8395 72.6696 61.8395C72.8106 61.8395 72.9515 61.8395 73.022 61.91C73.163 61.9805 73.2335 62.051 73.3039 62.1215C73.3744 62.1921 73.4449 62.3331 73.5154 62.4741C73.5859 62.6151 73.5859 62.7562 73.5859 62.8972H71.6828V62.8267Z" fill="#010101"/>
<path d="M76.8986 63.2497C76.8281 63.1792 76.7576 63.1087 76.6167 63.0382C76.5462 62.9677 76.4052 62.9677 76.3347 62.8972C76.2642 62.8267 76.1233 62.8267 76.0528 62.7562C75.9823 62.6856 75.8413 62.6856 75.7708 62.6151C75.7004 62.5446 75.6299 62.4741 75.5594 62.4741C75.4889 62.4036 75.4889 62.3331 75.4889 62.2626C75.4889 62.1215 75.5594 61.9805 75.7004 61.91C75.8413 61.8395 75.9823 61.769 76.1233 61.769C76.1937 61.769 76.1937 61.769 76.2642 61.769C76.3347 61.769 76.4052 61.769 76.4757 61.8395C76.5462 61.8395 76.6167 61.91 76.6871 61.91C76.7576 61.91 76.8281 61.9805 76.8281 61.9805L76.8986 61.4164C76.7576 61.3459 76.6167 61.3459 76.4757 61.3459C76.3347 61.3459 76.1938 61.2754 76.0528 61.2754C75.8413 61.2754 75.7004 61.2754 75.5594 61.3459C75.4184 61.4164 75.2774 61.4869 75.1365 61.5574C74.9955 61.628 74.925 61.769 74.8545 61.91C74.7841 62.051 74.7841 62.1921 74.7841 62.4036C74.7841 62.5446 74.7841 62.6151 74.8545 62.7562C74.925 62.8267 74.925 62.9677 75.066 63.0382C75.1365 63.1087 75.207 63.1792 75.3479 63.2497C75.4184 63.3203 75.5594 63.3908 75.6299 63.3908C75.7004 63.4613 75.8413 63.4613 75.9118 63.5318C75.9823 63.6023 76.1233 63.6023 76.1937 63.6728C76.2642 63.7433 76.3347 63.8139 76.4052 63.8139C76.4757 63.8844 76.4757 63.9549 76.4757 64.0254C76.4757 64.0959 76.4757 64.2369 76.4052 64.3074C76.3347 64.378 76.3347 64.4485 76.2642 64.4485C76.1937 64.519 76.1233 64.519 76.0528 64.519C75.9823 64.519 75.9118 64.519 75.8413 64.519C75.7708 64.519 75.7004 64.519 75.6299 64.519C75.5594 64.519 75.4889 64.519 75.4184 64.4485C75.3479 64.4485 75.2774 64.378 75.207 64.378C75.1365 64.378 75.066 64.3074 74.9955 64.2369V64.8715C75.1365 64.9421 75.2774 65.0126 75.4889 65.0126C75.6299 65.0126 75.8413 65.0831 75.9823 65.0831C76.1233 65.0831 76.3347 65.0831 76.4757 65.0126C76.6167 64.9421 76.7576 64.8715 76.8986 64.801C77.0396 64.7305 77.11 64.5895 77.1805 64.4485C77.251 64.3074 77.3215 64.1664 77.3215 63.9549C77.3215 63.8138 77.3215 63.6728 77.251 63.6023C77.0396 63.4613 77.0396 63.3203 76.8986 63.2497Z" fill="#010101"/>
<path d="M79.7886 64.4493C79.7181 64.4493 79.6476 64.5198 79.5067 64.5198C79.3657 64.5198 79.2247 64.4493 79.0838 64.3788C78.9428 64.2378 78.9428 64.0968 78.9428 63.8852V61.9109H79.9296V61.3468H78.9428V60.2891L78.3084 60.5006V61.3468H77.4626V61.9109H78.3084V64.0262C78.3084 64.3788 78.3789 64.6609 78.5904 64.8019C78.8018 64.9429 79.0838 65.0839 79.4362 65.0839C79.5771 65.0839 79.6476 65.0839 79.7181 65.0839C79.7886 65.0839 79.9296 65.0134 80.0001 65.0134V64.4493C79.9296 64.4493 79.8591 64.4493 79.7886 64.4493Z" fill="#010101"/>
<path d="M46.8018 62.4741C46.7313 62.1921 46.6608 61.9805 46.5199 61.8395C46.3789 61.628 46.2379 61.4869 46.0265 61.4164C45.815 61.3459 45.5331 61.2754 45.2511 61.2754C44.9692 61.2754 44.7577 61.3459 44.5463 61.4164C44.3348 61.4869 44.1234 61.628 43.9824 61.769C43.8414 61.91 43.7005 62.1215 43.63 62.3331C43.5595 62.5446 43.489 62.8267 43.489 63.0382C43.489 63.3203 43.5595 63.6023 43.63 63.8139C43.7005 64.0254 43.8414 64.2369 43.9824 64.4485C44.1234 64.5895 44.3348 64.7305 44.5463 64.8715C44.7577 64.9421 45.0397 65.0126 45.3921 65.0126C45.5331 65.0126 45.674 65.0126 45.815 65.0126C45.956 65.0126 46.0265 64.9421 46.0969 64.9421C46.1674 64.9421 46.2379 64.8715 46.3084 64.8715C46.3789 64.8715 46.4494 64.801 46.5199 64.801V64.0959C46.4494 64.0959 46.4494 64.1664 46.3084 64.2369C46.2379 64.3074 46.1674 64.3074 46.0265 64.378C45.956 64.4485 45.815 64.4485 45.674 64.4485C45.5331 64.4485 45.4626 64.519 45.3216 64.519C45.1806 64.519 45.0397 64.519 44.8987 64.4485C44.7577 64.378 44.6168 64.3074 44.5463 64.1664C44.4053 64.0254 44.3348 63.9549 44.2643 63.8139C44.1939 63.6728 44.1939 63.5318 44.1939 63.3203H46.8018C46.9428 63.0382 46.8723 62.7562 46.8018 62.4741ZM44.3348 62.8267C44.3348 62.6856 44.4053 62.6151 44.4053 62.4741C44.4758 62.3331 44.4758 62.2626 44.6168 62.1215C44.6873 62.051 44.7577 61.91 44.8987 61.91C45.0397 61.8395 45.1806 61.8395 45.3216 61.8395C45.4626 61.8395 45.6035 61.8395 45.674 61.91C45.815 61.9805 45.8855 62.051 45.956 62.1215C46.0265 62.1921 46.0969 62.3331 46.1674 62.4741C46.2379 62.6151 46.2379 62.7562 46.2379 62.8972H44.3348V62.8267Z" fill="#010101"/>
<path d="M49.5507 63.2497C49.4802 63.1792 49.4097 63.1087 49.2688 63.0382C49.1983 62.9677 49.0573 62.9677 48.9868 62.8972C48.9163 62.8267 48.7754 62.8267 48.7049 62.7562C48.6344 62.6856 48.4934 62.6856 48.4229 62.6151C48.3525 62.5446 48.282 62.4741 48.2115 62.4741C48.141 62.4036 48.141 62.3331 48.141 62.2626C48.141 62.1215 48.2115 61.9805 48.3525 61.91C48.4934 61.8395 48.6344 61.769 48.7754 61.769C48.8458 61.769 48.8459 61.769 48.9163 61.769C48.9868 61.769 49.0573 61.769 49.1278 61.8395C49.1983 61.8395 49.2688 61.91 49.3392 61.91C49.4097 61.91 49.4802 61.9805 49.4802 61.9805L49.5507 61.4164C49.4097 61.3459 49.2688 61.3459 49.1278 61.3459C48.9868 61.3459 48.8459 61.2754 48.7049 61.2754C48.4934 61.2754 48.3525 61.2754 48.2115 61.3459C48.0705 61.4164 47.9295 61.4869 47.7886 61.5574C47.6476 61.628 47.5771 61.769 47.5066 61.91C47.4362 62.051 47.4362 62.1921 47.4362 62.4036C47.4362 62.5446 47.4362 62.6151 47.5066 62.7562C47.5771 62.8267 47.5771 62.9677 47.7181 63.0382C47.7886 63.1087 47.8591 63.1792 48 63.2497C48.0705 63.3203 48.2115 63.3908 48.282 63.3908C48.3525 63.4613 48.4934 63.4613 48.5639 63.5318C48.6344 63.6023 48.7754 63.6023 48.8458 63.6728C48.9163 63.7433 48.9868 63.8139 49.0573 63.8139C49.1278 63.8844 49.1278 63.9549 49.1278 64.0254C49.1278 64.0959 49.1278 64.2369 49.0573 64.3074C48.9868 64.378 48.9868 64.4485 48.9163 64.4485C48.8459 64.519 48.7754 64.519 48.7049 64.519C48.6344 64.519 48.5639 64.519 48.4934 64.519C48.4229 64.519 48.3525 64.519 48.282 64.519C48.2115 64.519 48.141 64.519 48.0705 64.4485C48 64.4485 47.9296 64.378 47.8591 64.378C47.7886 64.378 47.7181 64.3074 47.6476 64.2369L47.5066 64.8715C47.6476 64.9421 47.7886 65.0126 48 65.0126C48.141 65.0126 48.3525 65.0831 48.4934 65.0831C48.6344 65.0831 48.8459 65.0831 48.9868 65.0126C49.1278 64.9421 49.2688 64.8715 49.4097 64.801C49.5507 64.7305 49.6212 64.5895 49.6917 64.4485C49.7622 64.3074 49.8326 64.1664 49.8326 63.9549C49.8326 63.8138 49.8326 63.6728 49.7621 63.6023C49.6917 63.4613 49.6212 63.3203 49.5507 63.2497Z" fill="#010101"/>
<path d="M41.5154 64.3072L40.5286 61.3457H39.7533L41.0925 64.9419H41.8678L43.207 61.3457H42.5022L41.5154 64.3072Z" fill="#010101"/>
<path d="M4.79343 63.9552C5.00489 63.5321 5.14585 63.0385 5.14585 62.4744C5.14585 62.1218 5.07537 61.7693 5.00489 61.4167C4.86392 61.1347 4.72295 60.8526 4.51149 60.5706C4.30004 60.2885 4.08859 60.1475 3.73616 60.0065C3.45423 59.8654 3.1018 59.7949 2.74938 59.7949C2.39696 59.7949 2.04453 59.8654 1.7626 60.0065C1.48066 60.1475 1.19872 60.2885 0.987266 60.5706C0.775813 60.7821 0.634844 61.0641 0.493874 61.4167C0.352905 61.6988 0.352905 62.0513 0.352905 62.4744C0.352905 62.827 0.42339 63.1795 0.493874 63.5321C0.634844 63.8142 0.775813 64.0962 0.987266 64.3783C1.19872 64.5898 1.41017 64.8013 1.7626 64.9424C2.04453 65.0834 2.39696 65.1539 2.74938 65.1539C2.81986 65.1539 2.89035 65.1539 2.96083 65.1539C3.03132 65.1539 3.1018 65.1539 3.17229 65.1539L4.08859 66H5.00489L3.80665 64.8718C4.22956 64.6603 4.58198 64.3783 4.79343 63.9552ZM4.0181 63.8142C3.87713 64.0257 3.73616 64.1667 3.52471 64.2372C3.31326 64.3783 3.1018 64.3783 2.81986 64.3783C2.53793 64.3783 2.25599 64.3077 2.04453 64.2372C1.83308 64.1667 1.62163 64.0257 1.48066 63.8142C1.33969 63.6026 1.2692 63.3911 1.19872 63.1795C1.12824 62.968 1.12824 62.6859 1.12824 62.4744C1.12824 62.1924 1.12824 61.9808 1.19872 61.7693C1.2692 61.5577 1.33969 61.3462 1.48066 61.1347C1.62163 60.9231 1.7626 60.7821 1.97405 60.7116C2.1855 60.5706 2.39696 60.5706 2.6789 60.5706C2.96083 60.5706 3.17229 60.6411 3.38374 60.7116C3.59519 60.8526 3.73616 60.9936 3.87713 61.1347C4.0181 61.3462 4.08859 61.5577 4.15907 61.7693C4.22956 61.9808 4.22956 62.2629 4.22956 62.4744C4.22956 62.7565 4.22956 62.968 4.15907 63.1795C4.22956 63.4616 4.15907 63.6731 4.0181 63.8142Z" fill="#010101"/>
<path d="M8.95147 64.2369V62.7562C8.95147 62.2626 8.8105 61.91 8.59905 61.628C8.38759 61.3459 7.96468 61.2754 7.47129 61.2754C7.25984 61.2754 7.04839 61.2754 6.83693 61.3459C6.62548 61.4164 6.48451 61.4869 6.27305 61.5574L6.34354 62.1215C6.41402 62.051 6.62548 61.9805 6.76645 61.91C6.90742 61.8395 7.11887 61.8395 7.33032 61.8395C7.68275 61.8395 7.8942 61.91 8.03517 62.051C8.17614 62.1921 8.24662 62.4741 8.24662 62.7562C8.17614 62.7562 8.10565 62.7562 8.03517 62.7562C7.96468 62.7562 7.8942 62.7562 7.8942 62.7562H7.54178C7.40081 62.7562 7.18935 62.7562 6.9779 62.8267C6.76645 62.8972 6.62548 62.9677 6.41402 63.0382C6.34354 63.1087 6.27305 63.1087 6.20257 63.1792C6.13209 63.2497 6.0616 63.3203 5.99112 63.3908C5.92063 63.4613 5.92063 63.5318 5.85015 63.6728C5.85015 63.7433 5.77966 63.8844 5.77966 63.9549C5.77966 64.1664 5.77966 64.3074 5.85015 64.4485C5.92063 64.5895 5.99112 64.7305 6.13209 64.801C6.27306 64.8715 6.41402 64.9421 6.55499 65.0126C6.69596 65.0831 6.90742 65.0831 7.11887 65.0831C7.25984 65.0831 7.40081 65.0831 7.54178 65.0126C7.68275 64.9421 7.75323 64.9421 7.8942 64.8715C8.03517 64.801 8.03517 64.7305 8.10565 64.66C8.17614 64.5895 8.24662 64.519 8.24662 64.4485V64.9421H8.88098C8.88098 64.8715 8.88098 64.801 8.88098 64.7305C8.95147 64.66 8.95147 64.4485 8.95147 64.2369ZM8.24662 63.5318C8.24662 63.8139 8.17614 64.0254 7.96468 64.2369C7.82371 64.4485 7.54178 64.519 7.18935 64.519C7.11887 64.519 7.04839 64.519 6.9779 64.4485C6.90742 64.378 6.83693 64.378 6.76645 64.3074C6.69596 64.2369 6.62548 64.1664 6.62548 64.0959C6.55499 64.0254 6.55499 63.9549 6.55499 63.8139C6.55499 63.6728 6.62548 63.5318 6.69596 63.4613C6.76645 63.3908 6.90742 63.3203 7.04838 63.2497C7.18935 63.1792 7.33032 63.1792 7.47129 63.1792C7.54178 63.1792 7.61226 63.1792 7.68275 63.1792C7.75323 63.1792 7.82372 63.1792 7.82372 63.1792C7.8942 63.1792 7.96468 63.1792 8.03517 63.1792C8.10565 63.1792 8.17614 63.1792 8.24662 63.1792V63.5318Z" fill="#010101"/>
<path d="M11.6298 64.5198C11.4889 64.5198 11.3479 64.4493 11.2069 64.3788C11.066 64.2378 11.066 64.0968 11.066 63.8852V61.9109H12.0527V61.3468H11.066V60.2891L10.4316 60.5006V61.3468H9.58578V61.9109H10.4316V64.0262C10.4316 64.3788 10.5021 64.6609 10.7135 64.8019C10.925 64.9429 11.2069 65.0839 11.5594 65.0839C11.7003 65.0839 11.7708 65.0839 11.8413 65.0839C11.9118 65.0839 12.0527 65.0134 12.1232 65.0134V64.4493C12.0527 64.4493 11.9823 64.5198 11.9118 64.5198C11.7708 64.5198 11.7003 64.5198 11.6298 64.5198Z" fill="#010101"/>
<path d="M15.7181 64.2369V62.7562C15.7181 62.2626 15.5771 61.91 15.3656 61.628C15.1542 61.3459 14.7313 61.2754 14.2379 61.2754C14.0264 61.2754 13.815 61.2754 13.6035 61.3459C13.3921 61.4164 13.2511 61.4869 13.0397 61.5574V62.1215C13.1806 61.9805 13.3216 61.91 13.533 61.8395C13.7445 61.769 13.8855 61.769 14.0969 61.769C14.4493 61.769 14.6608 61.8395 14.8018 61.9805C14.9427 62.1215 15.0132 62.4036 15.0132 62.6856C14.9427 62.6856 14.8723 62.6856 14.8018 62.6856C14.7313 62.6856 14.6608 62.6856 14.6608 62.6856H14.3084C14.1674 62.6856 13.956 62.6856 13.7445 62.7562C13.533 62.8267 13.3921 62.8972 13.1806 62.9677C13.1101 63.0382 13.0397 63.0382 12.9692 63.1087C12.8987 63.1792 12.8282 63.2498 12.7577 63.3203C12.6872 63.3908 12.6872 63.4613 12.6167 63.6023C12.6167 63.6728 12.5463 63.8139 12.5463 63.8844C12.5463 64.0959 12.5463 64.2369 12.6167 64.378C12.6872 64.519 12.7577 64.66 12.8987 64.7305C13.0397 64.801 13.1806 64.8715 13.3216 64.9421C13.4626 65.0126 13.674 65.0126 13.8855 65.0126C14.0264 65.0126 14.1674 65.0126 14.3084 64.9421C14.4493 64.8715 14.5198 64.8715 14.6608 64.801C14.7313 64.7305 14.8018 64.66 14.8723 64.5895C14.9427 64.519 15.0132 64.4485 15.0132 64.378V64.8715H15.6476C15.6476 64.801 15.6476 64.7305 15.6476 64.66C15.7181 64.66 15.7181 64.4485 15.7181 64.2369ZM15.0132 63.5318C15.0132 63.8139 14.9427 64.0254 14.7313 64.2369C14.5903 64.4485 14.3084 64.519 13.956 64.519C13.8855 64.519 13.815 64.519 13.7445 64.4485C13.674 64.4485 13.6035 64.378 13.533 64.3074C13.4626 64.3074 13.4626 64.2369 13.3921 64.1664C13.3216 64.0959 13.3216 64.0254 13.3216 63.8844C13.3216 63.7433 13.3921 63.6023 13.4626 63.5318C13.533 63.4613 13.674 63.3908 13.815 63.3203C13.956 63.2498 14.0969 63.2497 14.2379 63.2497C14.3084 63.2497 14.3789 63.2497 14.4493 63.2497C14.5198 63.2497 14.5903 63.2497 14.5903 63.2497C14.6608 63.2497 14.7313 63.2497 14.8018 63.2497C14.8723 63.2497 14.9427 63.2497 15.0132 63.2497V63.5318Z" fill="#010101"/>
<path d="M18.3964 61.2754C18.185 61.2754 18.044 61.3459 17.8325 61.4869C17.6211 61.628 17.5506 61.769 17.4096 61.9805V61.3459H16.7753V65.0126H17.4096V63.3203C17.4096 62.8972 17.4801 62.4741 17.6916 62.2626C17.903 61.9805 18.1145 61.8395 18.3964 61.8395C18.4669 61.8395 18.5374 61.8395 18.6079 61.8395C18.6784 61.8395 18.7488 61.8395 18.8193 61.91V61.2754C18.7488 61.2754 18.6784 61.2754 18.6079 61.2754C18.6079 61.2754 18.5374 61.2754 18.3964 61.2754Z" fill="#010101"/>
<path d="M24.9515 60.6415C24.74 60.4299 24.4581 60.2889 24.1057 60.1479C23.7533 60.0068 23.4713 60.0068 23.0484 60.0068H21.5682V65.0132H23.0484C23.4713 65.0132 23.8237 64.9427 24.1762 64.8722C24.5286 64.7312 24.8105 64.5902 25.022 64.3786C25.2334 64.1671 25.4449 63.885 25.5859 63.603C25.7268 63.2504 25.7973 62.8979 25.7973 62.4748C25.7973 62.1222 25.7268 61.7697 25.5859 61.4171C25.3744 61.135 25.2334 60.853 24.9515 60.6415ZM24.881 63.3209C24.8105 63.5325 24.6696 63.744 24.5286 63.885C24.3876 64.0261 24.1762 64.1671 23.9647 64.2376C23.7533 64.3081 23.4713 64.3786 23.1189 64.3786H22.3436V60.6415H23.1894C23.4713 60.6415 23.6828 60.712 23.8942 60.7825C24.1057 60.853 24.3171 60.994 24.4581 61.135C24.5991 61.2761 24.74 61.4876 24.8105 61.6991C24.881 61.9107 24.9515 62.1927 24.9515 62.4748C25.022 62.7568 24.9515 63.0389 24.881 63.3209Z" fill="#010101"/>
<path d="M29.7444 62.4741C29.6739 62.1921 29.6034 61.9805 29.4625 61.8395C29.3215 61.628 29.1805 61.4869 28.9691 61.4164C28.7576 61.3459 28.4757 61.2754 28.1938 61.2754C27.9118 61.2754 27.7004 61.3459 27.4889 61.4164C27.2775 61.4869 27.066 61.628 26.925 61.769C26.7841 61.91 26.6431 62.1215 26.5726 62.3331C26.5021 62.5446 26.4316 62.8267 26.4316 63.0382C26.4316 63.3203 26.5021 63.6023 26.5726 63.8139C26.6431 64.0254 26.7841 64.2369 26.925 64.4485C27.066 64.5895 27.2775 64.7305 27.4889 64.8715C27.7004 64.9421 27.9823 65.0126 28.3347 65.0126C28.4757 65.0126 28.6167 65.0126 28.7576 65.0126C28.8986 65.0126 28.9691 64.9421 29.0396 64.9421C29.1101 64.9421 29.1805 64.8715 29.251 64.8715C29.3215 64.8715 29.392 64.801 29.4625 64.801V64.0959C29.392 64.0959 29.392 64.1664 29.251 64.2369C29.1805 64.3074 29.1101 64.3074 28.9691 64.378C28.8986 64.4485 28.7576 64.4485 28.6167 64.4485C28.4757 64.4485 28.4052 64.519 28.2642 64.519C28.1233 64.519 27.9823 64.519 27.8413 64.4485C27.7004 64.378 27.7004 64.3074 27.5594 64.1664C27.4184 64.0254 27.3479 63.9549 27.2775 63.8139C27.207 63.6728 27.207 63.5318 27.207 63.3203H29.8149C29.8149 63.0382 29.8149 62.7562 29.7444 62.4741ZM27.207 62.8267C27.207 62.6856 27.2775 62.6151 27.2775 62.4741C27.3479 62.3331 27.3479 62.2626 27.4889 62.1215C27.5594 62.051 27.6299 61.91 27.7708 61.91C27.9118 61.8395 28.0528 61.8395 28.1938 61.8395C28.3347 61.8395 28.4757 61.8395 28.5462 61.91C28.6871 61.9805 28.7576 62.051 28.8281 62.1215C28.8986 62.1921 28.9691 62.3331 29.0396 62.4741C29.1101 62.6151 29.1101 62.7562 29.1101 62.8972H27.207V62.8267Z" fill="#010101"/>
<path d="M32.4229 63.2497C32.3524 63.1792 32.2819 63.1087 32.1409 63.0382C32.0705 62.9677 31.9295 62.9677 31.859 62.8972C31.7885 62.8267 31.6476 62.8267 31.5771 62.7562C31.5066 62.6856 31.3656 62.6856 31.2951 62.6151C31.2246 62.5446 31.1542 62.4741 31.0837 62.4741C31.0132 62.4036 31.0132 62.3331 31.0132 62.2626C31.0132 62.1215 31.0837 61.9805 31.2246 61.91C31.3656 61.8395 31.5066 61.769 31.6476 61.769C31.718 61.769 31.718 61.769 31.7885 61.769C31.859 61.769 31.9295 61.769 32 61.8395C32.0705 61.8395 32.1409 61.91 32.2114 61.91C32.2819 61.91 32.3524 61.9805 32.3524 61.9805L32.4229 61.4164C32.2819 61.3459 32.1409 61.3459 32 61.3459C31.859 61.3459 31.718 61.2754 31.5771 61.2754C31.3656 61.2754 31.2246 61.2754 31.0837 61.3459C30.9427 61.4164 30.8017 61.4869 30.6608 61.5574C30.5198 61.628 30.4493 61.769 30.3788 61.91C30.3083 62.051 30.3083 62.1921 30.3083 62.4036C30.3083 62.5446 30.3083 62.6151 30.3788 62.7562C30.4493 62.8267 30.4493 62.9677 30.5903 63.0382C30.6608 63.1087 30.7313 63.1792 30.8722 63.2497C30.9427 63.3203 31.0837 63.3908 31.1542 63.3908C31.2246 63.4613 31.3656 63.4613 31.4361 63.5318C31.5066 63.6023 31.6476 63.6023 31.718 63.6728C31.7885 63.7433 31.859 63.8139 31.9295 63.8139C32 63.8844 32 63.9549 32 64.0254C32 64.0959 32 64.2369 31.9295 64.3074C31.859 64.378 31.859 64.4485 31.7885 64.4485C31.718 64.519 31.6476 64.519 31.5771 64.519C31.5066 64.519 31.4361 64.519 31.3656 64.519C31.2951 64.519 31.2246 64.519 31.1542 64.519C31.0837 64.519 31.0132 64.519 30.9427 64.4485C30.8722 64.4485 30.8017 64.378 30.7313 64.378C30.6608 64.378 30.5903 64.3074 30.5198 64.2369V64.8715C30.6608 64.9421 30.8017 65.0126 31.0132 65.0126C31.1542 65.0126 31.3656 65.0831 31.5066 65.0831C31.6476 65.0831 31.859 65.0831 32 65.0126C32.1409 64.9421 32.2819 64.8715 32.4229 64.801C32.5639 64.7305 32.6343 64.5895 32.7048 64.4485C32.7753 64.3074 32.8458 64.1664 32.8458 63.9549C32.8458 63.8138 32.8458 63.6728 32.7753 63.6023C32.5639 63.4613 32.4934 63.3203 32.4229 63.2497Z" fill="#010101"/>
<path d="M36.511 62.4741C36.4405 62.1921 36.37 61.9805 36.2291 61.8395C36.0881 61.628 35.9471 61.4869 35.7357 61.4164C35.5242 61.3459 35.2423 61.2754 34.9604 61.2754C34.6784 61.2754 34.467 61.3459 34.2555 61.4164C34.0441 61.4869 33.8326 61.628 33.6916 61.769C33.5507 61.91 33.4097 62.1215 33.3392 62.3331C33.2687 62.5446 33.1982 62.8267 33.1982 63.0382C33.1982 63.3203 33.2687 63.6023 33.3392 63.8139C33.4097 64.0254 33.5507 64.2369 33.6916 64.4485C33.8326 64.5895 34.0441 64.7305 34.2555 64.8715C34.467 64.9421 34.7489 65.0126 35.1013 65.0126C35.2423 65.0126 35.3833 65.0126 35.5242 65.0126C35.6652 65.0126 35.7357 64.9421 35.8062 64.9421C35.8767 64.9421 35.9471 64.8715 36.0176 64.8715C36.0881 64.8715 36.1586 64.801 36.2291 64.801V64.0959C36.1586 64.0959 36.1586 64.1664 36.0176 64.2369C35.9471 64.3074 35.8767 64.3074 35.7357 64.378C35.6652 64.4485 35.5242 64.4485 35.3833 64.4485C35.2423 64.4485 35.1718 64.519 35.0308 64.519C34.8899 64.519 34.7489 64.519 34.6079 64.4485C34.467 64.378 34.326 64.3074 34.2555 64.1664C34.1145 64.0254 34.0441 63.9549 33.9736 63.8139C33.9031 63.6728 33.9031 63.5318 33.9031 63.3203H36.511C36.5815 63.0382 36.5815 62.7562 36.511 62.4741ZM33.9736 62.8267C33.9736 62.6856 34.0441 62.6151 34.0441 62.4741C34.1145 62.3331 34.1145 62.2626 34.2555 62.1215C34.326 62.051 34.3965 61.91 34.5374 61.91C34.6784 61.8395 34.8194 61.8395 34.9604 61.8395C35.1013 61.8395 35.2423 61.8395 35.3128 61.91C35.4537 61.9805 35.5242 62.051 35.5947 62.1215C35.6652 62.1921 35.7357 62.3331 35.8062 62.4741C35.8767 62.6151 35.8767 62.7562 35.8767 62.8972H33.9736V62.8267Z" fill="#010101"/>
<path d="M39.0484 61.2754C38.8369 61.2754 38.696 61.3459 38.4845 61.4869C38.2731 61.628 38.2026 61.769 38.0616 61.9805V61.3459H37.4272V65.0126H38.1321V63.3203C38.1321 62.8972 38.2026 62.4741 38.414 62.2626C38.6255 61.9805 38.8369 61.8395 39.1189 61.8395C39.1894 61.8395 39.2598 61.8395 39.3303 61.8395C39.4008 61.8395 39.4713 61.8395 39.5418 61.91V61.2754C39.4713 61.2754 39.4008 61.2754 39.3303 61.2754C39.2598 61.2754 39.1894 61.2754 39.0484 61.2754Z" fill="#010101"/>
<path d="M13.5334 51.193C13.604 51.193 13.604 51.193 13.6745 51.193C13.7451 51.193 13.7451 51.1225 13.8157 51.1225C13.8157 51.1225 13.8863 51.0519 13.8863 50.9813C13.8863 50.9107 13.8863 50.9107 13.8863 50.8402C13.8863 50.7696 13.8863 50.7696 13.8863 50.699C13.8863 50.6285 13.8157 50.6284 13.8157 50.5579C13.8157 50.5579 13.7451 50.4873 13.6745 50.4873C13.604 50.4873 13.604 50.4873 13.5334 50.4873C13.4628 50.4873 13.4628 50.4873 13.3923 50.4873C13.3217 50.4873 13.3217 50.5579 13.2511 50.5579C13.2511 50.5579 13.1805 50.6285 13.1805 50.699C13.1805 50.7696 13.1805 50.7696 13.1805 50.8402C13.1805 50.9107 13.2511 51.0519 13.3217 51.1225C13.3217 51.1225 13.4628 51.193 13.5334 51.193Z" fill="#010101"/>
<path d="M20.0886 51.193C20.1592 51.193 20.1592 51.193 20.2297 51.193C20.3003 51.193 20.3003 51.1225 20.3709 51.1225C20.3709 51.1225 20.4414 51.0519 20.4414 50.9813C20.4414 50.9107 20.4414 50.9107 20.4414 50.8402C20.4414 50.7696 20.4414 50.7696 20.4414 50.699C20.4414 50.6285 20.3709 50.6284 20.3709 50.5579C20.3709 50.5579 20.3003 50.4873 20.2297 50.4873C20.1592 50.4873 20.1592 50.4873 20.0886 50.4873C20.018 50.4873 20.018 50.4873 19.9474 50.4873C19.8769 50.4873 19.8769 50.5579 19.8063 50.5579C19.8063 50.5579 19.7357 50.6285 19.7357 50.699C19.7357 50.7696 19.7357 50.7696 19.7357 50.8402C19.7357 50.9107 19.8063 51.0519 19.8769 51.1225C19.9474 51.1225 20.018 51.193 20.0886 51.193Z" fill="#010101"/>
<path d="M21.3568 52.7432C21.2863 52.6022 21.2159 52.3906 21.0749 52.3201C20.9339 52.1791 20.8634 52.1086 20.652 52.0381C20.511 51.9675 20.2996 51.9675 20.0881 51.9675C19.8766 51.9675 19.6652 52.0381 19.5242 52.1086C19.3833 52.1791 19.1718 52.2496 19.1013 52.3906C18.9603 52.5317 18.8899 52.6727 18.8194 52.8137C18.7489 52.9547 18.6784 53.1663 18.6784 53.3778C18.6784 53.4483 18.6784 53.5188 18.6784 53.5893C18.6784 53.6599 18.6784 53.7304 18.7489 53.8009C18.7489 53.8714 18.8194 53.9419 18.8194 54.0124C18.8194 54.0829 18.8899 54.0829 18.8899 54.1534H17.7621H16.6344H15.9295V53.5893C15.9295 53.3778 15.9295 53.0958 15.859 52.8842C15.7885 52.6727 15.7181 52.4611 15.5771 52.3201C15.4361 52.1791 15.2951 52.0381 15.0837 51.9675C14.8722 51.897 14.6608 51.8265 14.3788 51.8265C14.1674 51.8265 13.9559 51.897 13.7445 51.9675C13.533 52.0381 13.3921 52.1791 13.1806 52.2496C13.0396 52.3906 12.8987 52.5316 12.7577 52.6727C12.6167 52.8137 12.4758 53.0252 12.4053 53.1663C12.3348 53.3073 12.1938 53.5188 12.1233 53.6599C12.0529 53.8009 11.9824 54.0124 11.9119 54.0829C11.7004 54.0829 11.5595 54.0829 11.4185 54.0124C11.2775 53.9419 11.1366 53.9419 10.9956 53.8009V52.6727H10.3612V53.6599C10.3612 53.8009 10.3612 53.8714 10.2907 53.9419C10.2203 54.0124 10.2203 54.0124 10.0793 54.0124H9.37445H8.24669H7.11894H6.27313H5.14537C4.93392 54.0124 4.72247 54.0124 4.5815 53.9419C4.44053 53.8714 4.29956 53.8009 4.15859 53.7304V49.6406H3.52423V54.0124C3.52423 54.224 3.52423 54.4355 3.45374 54.647C3.38326 54.8586 3.31277 54.9996 3.1718 55.1406C3.03084 55.2816 2.88987 55.3522 2.7489 55.4227C2.53744 55.4932 2.39647 55.4932 2.11454 55.4932C1.90308 55.4932 1.69163 55.4932 1.55066 55.4227C1.40969 55.3522 1.26872 55.2816 1.12775 55.1406C0.986784 54.9996 0.916299 54.8586 0.845815 54.7175C0.77533 54.647 0.704846 54.506 0.704846 54.2945C0.704846 54.224 0.704846 54.1534 0.704846 54.0124C0.704846 53.9419 0.704846 53.8714 0.77533 53.7304C0.77533 53.6599 0.845815 53.5893 0.845815 53.5188C0.845815 53.4483 0.916299 53.3778 0.916299 53.3073L0.352423 53.0252C0.281938 53.0958 0.281938 53.2368 0.211454 53.3073C0.140969 53.3778 0.140969 53.5188 0.0704846 53.6599C0.0704846 53.8009 0 53.8714 0 54.0124C0 54.1534 0 54.224 0 54.365C0 54.5765 0.0704846 54.8586 0.140969 55.0701C0.211454 55.2816 0.352423 55.4932 0.493392 55.6342C0.634361 55.7752 0.845815 55.9163 1.12775 56.0573C1.33921 56.1278 1.69163 56.1983 1.97357 56.1983C2.25551 56.1983 2.53744 56.1278 2.81938 56.0573C3.10132 55.9868 3.24229 55.8458 3.45374 55.7047C3.6652 55.5637 3.80617 55.3522 3.87665 55.1406C4.01762 54.9291 4.01762 54.647 4.0881 54.4355C4.22907 54.506 4.29956 54.5765 4.51101 54.647C4.65198 54.7175 4.86343 54.7175 5.07489 54.7175H6.20264H7.33039H8.45815H9.5859H10.4317C10.5727 54.7175 10.7137 54.7175 10.7841 54.647C10.8546 54.5765 10.9956 54.506 10.9956 54.365C11.0661 54.4355 11.1366 54.506 11.207 54.506C11.2775 54.5765 11.348 54.5765 11.489 54.647C11.5595 54.647 11.7004 54.7175 11.7709 54.7175C11.8414 54.7175 11.9824 54.7175 12.0529 54.7175H16.7048H17.8326H21.4273V53.3073C21.4273 53.0958 21.3568 52.8842 21.3568 52.7432ZM15.3656 54.1534H12.6872C12.6872 54.0124 12.7577 53.8714 12.8282 53.8009C12.8987 53.6599 12.9692 53.5188 13.0396 53.3778C13.1101 53.2368 13.1806 53.1663 13.3216 53.0252C13.3921 52.8842 13.533 52.8137 13.674 52.7432C13.815 52.6727 13.8855 52.6022 14.0264 52.5317C14.1674 52.4611 14.3084 52.4611 14.4493 52.4611C14.5903 52.4611 14.7313 52.4611 14.8018 52.5317C14.9427 52.6022 15.0132 52.6022 15.0837 52.7432C15.1542 52.8842 15.2247 52.9547 15.2951 53.0958C15.3656 53.2368 15.3656 53.4483 15.3656 53.6599V54.1534ZM20.7929 54.1534H20.2291C20.0881 54.1534 19.9471 54.1534 19.8766 54.0829C19.7357 54.0124 19.6652 54.0124 19.5947 53.9419C19.5242 53.8714 19.4537 53.8009 19.3833 53.6599C19.3128 53.5893 19.3128 53.4483 19.3128 53.3073C19.3128 53.1663 19.3128 53.0958 19.3833 52.9547C19.4537 52.8842 19.4537 52.7432 19.5242 52.6727C19.5947 52.6022 19.6652 52.5317 19.7357 52.5317C19.8062 52.4611 19.9471 52.4611 20.0176 52.4611C20.0881 52.4611 20.2291 52.4611 20.2996 52.5317C20.37 52.5317 20.4405 52.6022 20.511 52.6727C20.5815 52.7432 20.652 52.8137 20.652 52.9547C20.7225 53.0958 20.7225 53.2368 20.7225 53.3778V54.1534H20.7929Z" fill="#010101"/>
<path d="M24.8106 49.7117H24.7401C24.6696 49.7117 24.6696 49.7117 24.5992 49.7117C24.5287 49.7117 24.3877 49.7117 24.3172 49.7823C24.2467 49.8528 24.2467 49.9233 24.2467 49.9938C24.2467 50.0643 24.2467 50.0643 24.2467 50.1348C24.2467 50.2053 24.3172 50.2053 24.3172 50.2758C24.3877 50.2758 24.3877 50.3464 24.4582 50.3464C24.5287 50.3464 24.5992 50.3464 24.6696 50.3464H24.7401V50.6284H23.6829V50.3464H24.1058C24.1058 50.3464 24.0353 50.3464 24.0353 50.2758L23.9648 50.2053C23.9648 50.1348 23.8943 50.1348 23.8943 50.0643C23.8943 49.9938 23.8943 49.9938 23.8943 49.9233C23.8943 49.8528 23.8943 49.7823 23.9648 49.7823C23.9648 49.7117 24.0353 49.6412 24.1058 49.6412C24.1762 49.5707 24.2467 49.5707 24.3172 49.5002C24.3877 49.5002 24.4582 49.4297 24.5992 49.4297C24.6696 49.4297 24.6696 49.4297 24.7401 49.4297C24.8106 49.4297 24.8106 49.4297 24.8811 49.4297L24.8106 49.7117ZM26.4318 49.7117V54.7181H22.4846V54.0835H24.0353V51.0515H24.6696V54.0835H25.8679V49.7117H26.4318V49.7117Z" fill="#010101"/>
</svg>
