<svg width="37" height="37" viewBox="0 0 37 37" fill="none" xmlns="http://www.w3.org/2000/svg">
<g clip-path="url(#clip0)">
<path d="M8.86456 26.466V22.6118H28.1354V26.466C28.1354 27.317 27.4447 28.0077 26.5937 28.0077H10.4062C9.55523 28.0077 8.86456 27.317 8.86456 26.466Z" fill="#FFCD69"/>
<path d="M8.86456 16.9585V10.4064C8.86456 9.55541 9.55523 8.86475 10.4062 8.86475H26.5937C27.4447 8.86475 28.1354 9.55541 28.1354 10.4064V16.9585H8.86456Z" fill="#FFCD69"/>
<path d="M35.8438 10.7917C35.2055 10.7917 34.6875 10.2737 34.6875 9.63542V4.23958C34.6875 3.17738 33.8227 2.3125 32.7605 2.3125H27.3646C26.7264 2.3125 26.2084 1.7945 26.2084 1.15625C26.2084 0.518 26.7264 0 27.3646 0H32.7605C35.0992 0 37 1.90088 37 4.23958V9.63542C37 10.2737 36.482 10.7917 35.8438 10.7917Z" fill="black"/>
<path d="M32.7605 37.0002H27.3646C26.7264 37.0002 26.2084 36.4822 26.2084 35.8439C26.2084 35.2057 26.7264 34.6877 27.3646 34.6877H32.7605C33.8227 34.6877 34.6875 33.8228 34.6875 32.7606V27.3647C34.6875 26.7265 35.2055 26.2085 35.8438 26.2085C36.482 26.2085 37 26.7265 37 27.3647V32.7606C37 35.0993 35.0992 37.0002 32.7605 37.0002Z" fill="black"/>
<path d="M9.63542 37.0002H4.23958C1.90088 37.0002 0 35.0993 0 32.7606V27.3647C0 26.7265 0.518 26.2085 1.15625 26.2085C1.7945 26.2085 2.3125 26.7265 2.3125 27.3647V32.7606C2.3125 33.8228 3.17738 34.6877 4.23958 34.6877H9.63542C10.2737 34.6877 10.7917 35.2057 10.7917 35.8439C10.7917 36.4822 10.2737 37.0002 9.63542 37.0002Z" fill="black"/>
<path d="M1.15625 10.7917C0.518 10.7917 0 10.2737 0 9.63542V4.23958C0 1.90088 1.90088 0 4.23958 0H9.63542C10.2737 0 10.7917 0.518 10.7917 1.15625C10.7917 1.7945 10.2737 2.3125 9.63542 2.3125H4.23958C3.17738 2.3125 2.3125 3.17738 2.3125 4.23958V9.63542C2.3125 10.2737 1.7945 10.7917 1.15625 10.7917Z" fill="black"/>
<path d="M26.5937 29.2918H10.4062C8.91852 29.2918 7.70831 28.0816 7.70831 26.5939V22.7397C7.70831 22.1015 8.22631 21.5835 8.86456 21.5835C9.50281 21.5835 10.0208 22.1015 10.0208 22.7397V26.5939C10.0208 26.8067 10.1935 26.9793 10.4062 26.9793H26.5937C26.8065 26.9793 26.9791 26.8067 26.9791 26.5939V22.7397C26.9791 22.1015 27.4971 21.5835 28.1354 21.5835C28.7736 21.5835 29.2916 22.1015 29.2916 22.7397V26.5939C29.2916 28.0816 28.0814 29.2918 26.5937 29.2918Z" fill="black"/>
<path d="M28.1354 16.9585C27.4971 16.9585 26.9791 16.4405 26.9791 15.8022V10.4064C26.9791 10.1937 26.8065 10.021 26.5937 10.021H10.4062C10.1935 10.021 10.0208 10.1937 10.0208 10.4064V15.8022C10.0208 16.4405 9.50281 16.9585 8.86456 16.9585C8.22631 16.9585 7.70831 16.4405 7.70831 15.8022V10.4064C7.70831 8.9187 8.91852 7.7085 10.4062 7.7085H26.5937C28.0814 7.7085 29.2916 8.9187 29.2916 10.4064V15.8022C29.2916 16.4405 28.7736 16.9585 28.1354 16.9585Z" fill="black"/>
<path d="M31.2188 23.896H5.78125C5.143 23.896 4.625 23.378 4.625 22.7397C4.625 22.1015 5.143 21.5835 5.78125 21.5835H31.2188C31.857 21.5835 32.375 22.1015 32.375 22.7397C32.375 23.378 31.857 23.896 31.2188 23.896Z" fill="black"/>
</g>
<defs>
<clipPath id="clip0">
<rect width="37" height="37" fill="white"/>
</clipPath>
</defs>
</svg>
