<svg width="117" height="104" viewBox="0 0 117 104" fill="none" xmlns="http://www.w3.org/2000/svg">
<path d="M49.7249 52.9505L58.8551 61.9654L67.8701 53.0369H89.8171C92.3228 53.0369 94.339 51.0207 94.339 48.515V6.52189C94.339 4.01613 92.3228 2 89.8171 2H28.3539C25.8482 2 23.832 4.01613 23.832 6.52189V48.515C23.832 51.0207 25.8482 53.0369 28.3539 53.0369H49.7249" stroke="#9A1E5F" stroke-width="3" stroke-miterlimit="10" stroke-linecap="round" stroke-linejoin="round"/>
<path d="M23.8318 29.0449H6.52189C4.01613 29.0449 2 31.1763 2 33.826V76.0495C2 78.6705 4.01613 80.8306 6.52189 80.8306H28.1809L37.3111 89.8456L46.4701 80.8306H67.985C70.4908 80.8306 72.5069 78.6993 72.5069 76.0495V53.2097" stroke="#9A1E5F" stroke-width="3" stroke-miterlimit="10" stroke-linecap="round" stroke-linejoin="round"/>
<path d="M46.4414 80.7731V88.4343C46.4414 90.9401 48.3423 92.985 50.7041 92.985H71.1534L80.2836 102L89.2986 92.985H110.958C113.463 92.985 115.479 90.9401 115.479 88.4343V46.182C115.479 43.6763 113.463 41.6313 110.958 41.6313H94.3101" stroke="#9A1E5F" stroke-width="3" stroke-miterlimit="10" stroke-linecap="round" stroke-linejoin="round"/>
<path d="M35.5547 14.3271H82.4441" stroke="#9A1E5F" stroke-width="3" stroke-miterlimit="10" stroke-linecap="round" stroke-linejoin="round"/>
<path d="M35.5547 27.5186H70.7793" stroke="#9A1E5F" stroke-width="3" stroke-miterlimit="10" stroke-linecap="round" stroke-linejoin="round"/>
<path d="M75.6753 27.5186H82.4437" stroke="#9A1E5F" stroke-width="3" stroke-miterlimit="10" stroke-linecap="round" stroke-linejoin="round"/>
<path d="M47.2188 39.8164H82.4434" stroke="#9A1E5F" stroke-width="3" stroke-miterlimit="10" stroke-linecap="round" stroke-linejoin="round"/>
<path d="M35.5547 39.8164H42.3231" stroke="#9A1E5F" stroke-width="3" stroke-miterlimit="10" stroke-linecap="round" stroke-linejoin="round"/>
</svg>
