<svg width="121" height="94" viewBox="0 0 121 94" fill="none" xmlns="http://www.w3.org/2000/svg">
<path d="M60.201 27.7301C67.5823 27.7301 73.566 21.7464 73.566 14.365C73.566 6.98374 67.5823 1 60.201 1C52.8197 1 46.8359 6.98374 46.8359 14.365C46.8359 21.7464 52.8197 27.7301 60.201 27.7301Z" stroke="#9A1E5F" stroke-width="2" stroke-miterlimit="10" stroke-linecap="round" stroke-linejoin="round"/>
<path d="M60.2007 64.9848V27.7002" stroke="#9A1E5F" stroke-width="2" stroke-miterlimit="10" stroke-linecap="round" stroke-linejoin="round"/>
<path d="M72.071 92.8809H48.3607C47.5235 92.8809 46.8657 92.2231 46.8657 91.386V72.639C46.8657 71.8018 47.5235 71.144 48.3607 71.144H72.071C72.9081 71.144 73.5659 71.8018 73.5659 72.639V91.386C73.5659 92.2231 72.9081 92.8809 72.071 92.8809Z" stroke="#9A1E5F" stroke-width="2" stroke-miterlimit="10" stroke-linecap="round" stroke-linejoin="round"/>
<path d="M75.2104 47.4937H105.14C105.977 47.4937 106.635 48.1514 106.635 48.9886V64.2971" stroke="#9A1E5F" stroke-width="2" stroke-miterlimit="10" stroke-linecap="round" stroke-linejoin="round"/>
<path d="M14.3652 64.2971V48.9886C14.3652 48.1514 15.023 47.4937 15.8602 47.4937H68.6327" stroke="#9A1E5F" stroke-width="2" stroke-miterlimit="10" stroke-linecap="round" stroke-linejoin="round"/>
<path d="M118.505 92.8809H94.7948C93.9576 92.8809 93.2998 92.2231 93.2998 91.386V72.639C93.2998 71.8018 93.9576 71.144 94.7948 71.144H118.505C119.342 71.144 120 71.8018 120 72.639V91.386C120 92.2231 119.342 92.8809 118.505 92.8809Z" stroke="#9A1E5F" stroke-width="2" stroke-miterlimit="10" stroke-linecap="round" stroke-linejoin="round"/>
<path d="M7.45828 92.8809H2.49497C1.65779 92.8809 1 92.2231 1 91.386V72.639C1 71.8018 1.65779 71.144 2.49497 71.144H26.2052C27.0424 71.144 27.7002 71.8018 27.7002 72.639V91.386C27.7002 92.2231 27.0424 92.8809 26.2052 92.8809H14.365" stroke="#9A1E5F" stroke-width="2" stroke-miterlimit="10" stroke-linecap="round" stroke-linejoin="round"/>
</svg>
