<svg width="104" height="90" viewBox="0 0 104 90" fill="none" xmlns="http://www.w3.org/2000/svg">
<path d="M81.8544 52.1616V81.6924C81.8544 84.605 79.5081 86.9513 76.5955 86.9513H59.4434" stroke="#9A1E5F" stroke-width="3" stroke-miterlimit="10" stroke-linecap="round" stroke-linejoin="round"/>
<path d="M22.3076 27.7012V7.2589C22.3076 4.34628 24.6539 2 27.5665 2H76.5957C79.5083 2 81.8546 4.34628 81.8546 7.2589V12.7336" stroke="#9A1E5F" stroke-width="3" stroke-miterlimit="10" stroke-linecap="round" stroke-linejoin="round"/>
<path d="M44.368 86.9246H27.5665C24.6539 86.9246 22.3076 84.5784 22.3076 81.6657V69.9883" stroke="#9A1E5F" stroke-width="3" stroke-miterlimit="10" stroke-linecap="round" stroke-linejoin="round"/>
<path d="M42.9655 28.4561H2V69.4216H42.9655V28.4561Z" stroke="#9A1E5F" stroke-width="3" stroke-miterlimit="10"/>
<path d="M102 13.5693H51.3257V51.5683H102V13.5693Z" stroke="#9A1E5F" stroke-width="3" stroke-miterlimit="10" stroke-linejoin="round"/>
<path d="M89.3516 51.5688C89.3516 51.5688 72.0646 32.7715 64.837 29.2117C57.6094 25.6518 51.3257 35.6572 51.3257 35.6572V51.5688H89.3516Z" stroke="#9A1E5F" stroke-width="3" stroke-miterlimit="10"/>
<path d="M90.4849 77.3774H63.0577C61.898 77.3774 60.9541 76.4335 60.9541 75.2738V67.6416C60.9541 66.482 61.898 65.5381 63.0577 65.5381H90.4849C91.6445 65.5381 92.5884 66.482 92.5884 67.6416V75.2738C92.5884 76.4335 91.6445 77.3774 90.4849 77.3774Z" stroke="#9A1E5F" stroke-width="3" stroke-miterlimit="10"/>
<path d="M87.1671 35.5221C90.7715 35.5221 93.6935 32.6001 93.6935 28.9957C93.6935 25.3912 90.7715 22.4692 87.1671 22.4692C83.5626 22.4692 80.6406 25.3912 80.6406 28.9957C80.6406 32.6001 83.5626 35.5221 87.1671 35.5221Z" stroke="#9A1E5F" stroke-width="3" stroke-miterlimit="10"/>
<path d="M52.1351 88.3542C53.2075 88.3542 54.0769 87.4849 54.0769 86.4125C54.0769 85.3401 53.2075 84.4707 52.1351 84.4707C51.0627 84.4707 50.1934 85.3401 50.1934 86.4125C50.1934 87.4849 51.0627 88.3542 52.1351 88.3542Z" stroke="#9A1E5F" stroke-width="3" stroke-miterlimit="10" stroke-linecap="round" stroke-linejoin="round"/>
<path d="M14.8643 38.4888H22.4964H30.8297" stroke="#9A1E5F" stroke-width="3" stroke-miterlimit="10" stroke-linecap="round" stroke-linejoin="round"/>
<path d="M22.3076 62.6258V38.4888" stroke="#9A1E5F" stroke-width="3" stroke-miterlimit="10" stroke-linecap="round" stroke-linejoin="round"/>
</svg>
