<svg width="104" height="106" viewBox="0 0 104 106" fill="none" xmlns="http://www.w3.org/2000/svg">
<path d="M74.2984 103.653H9.66129C5.42742 103.653 2 100.226 2 95.9918V92.645" stroke="#9A1E5F" stroke-width="3" stroke-miterlimit="10" stroke-linecap="round" stroke-linejoin="round"/>
<path d="M2 82.6855V20.4274C2 16.1935 5.42742 12.7661 9.66129 12.7661H94.3387C98.5726 12.7661 102 16.1935 102 20.4274V95.9919C102 100.226 98.5726 103.653 94.3387 103.653H85.5887" stroke="#9A1E5F" stroke-width="3" stroke-miterlimit="10" stroke-linecap="round" stroke-linejoin="round"/>
<path d="M30.3066 65.4275H13.4114C12.9679 65.4275 12.605 65.0646 12.605 64.621V47.7259C12.605 47.2823 12.9679 46.9194 13.4114 46.9194H30.3066C30.7501 46.9194 31.113 47.2823 31.113 47.7259V64.621C31.113 65.0646 30.7501 65.4275 30.3066 65.4275Z" stroke="#9A1E5F" stroke-width="3" stroke-miterlimit="10" stroke-linecap="round" stroke-linejoin="round"/>
<path d="M60.5483 65.4275H43.6531C43.2096 65.4275 42.8467 65.0646 42.8467 64.621V47.7259C42.8467 47.2823 43.2096 46.9194 43.6531 46.9194H60.5483C60.9918 46.9194 61.3547 47.2823 61.3547 47.7259V64.621C61.3547 65.0646 60.9918 65.4275 60.5483 65.4275Z" stroke="#9A1E5F" stroke-width="3" stroke-miterlimit="10" stroke-linecap="round" stroke-linejoin="round"/>
<path d="M90.7905 65.2258H73.8953C73.4518 65.2258 73.0889 64.8629 73.0889 64.4194V47.5242C73.0889 47.0807 73.4518 46.7178 73.8953 46.7178H90.7905C91.234 46.7178 91.5969 47.0807 91.5969 47.5242V64.4194C91.5969 64.8629 91.234 65.2258 90.7905 65.2258Z" stroke="#9A1E5F" stroke-width="3" stroke-miterlimit="10" stroke-linecap="round" stroke-linejoin="round"/>
<path d="M30.3066 93.7341H13.4114C12.9679 93.7341 12.605 93.3712 12.605 92.9277V76.0325C12.605 75.589 12.9679 75.2261 13.4114 75.2261H30.3066C30.7501 75.2261 31.113 75.589 31.113 76.0325V92.9277C31.113 93.3712 30.7501 93.7341 30.3066 93.7341Z" stroke="#9A1E5F" stroke-width="3" stroke-miterlimit="10" stroke-linecap="round" stroke-linejoin="round"/>
<path d="M60.5483 93.7341H43.6531C43.2096 93.7341 42.8467 93.3712 42.8467 92.9277V76.0325C42.8467 75.589 43.2096 75.2261 43.6531 75.2261H60.5483C60.9918 75.2261 61.3547 75.589 61.3547 76.0325V92.9277C61.3547 93.3712 60.9918 93.7341 60.5483 93.7341Z" stroke="#9A1E5F" stroke-width="3" stroke-miterlimit="10" stroke-linecap="round" stroke-linejoin="round"/>
<path d="M90.7905 93.7341H73.8953C73.4518 93.7341 73.0889 93.3712 73.0889 92.9277V76.0325C73.0889 75.589 73.4518 75.2261 73.8953 75.2261H90.7905C91.234 75.2261 91.5969 75.589 91.5969 76.0325V92.9277C91.5969 93.3712 91.234 93.7341 90.7905 93.7341Z" stroke="#9A1E5F" stroke-width="3" stroke-miterlimit="10" stroke-linecap="round" stroke-linejoin="round"/>
<path d="M21.7175 23.0081C19.0966 23.0081 16.9595 20.871 16.9595 18.25V6.75806C16.9595 4.1371 19.0966 2 21.7175 2C24.3385 2 26.4756 4.1371 26.4756 6.75806V18.2903C26.4353 20.9113 24.3385 23.0081 21.7175 23.0081Z" fill="white" stroke="#9A1E5F" stroke-width="3" stroke-miterlimit="10" stroke-linecap="round" stroke-linejoin="round"/>
<path d="M52.0579 23.6531C49.4369 23.6531 47.2998 21.516 47.2998 18.895V7.40308C47.2998 4.78212 49.4369 2.64502 52.0579 2.64502C54.6788 2.64502 56.8159 4.78212 56.8159 7.40308V18.895C56.8159 21.516 54.6788 23.6531 52.0579 23.6531Z" fill="white" stroke="#9A1E5F" stroke-width="3" stroke-miterlimit="10" stroke-linecap="round" stroke-linejoin="round"/>
<path d="M82.0579 23.6531C79.4369 23.6531 77.2998 21.516 77.2998 18.895V7.40308C77.2998 4.78212 79.4369 2.64502 82.0579 2.64502C84.6788 2.64502 86.8159 4.78212 86.8159 7.40308V18.895C86.8159 21.516 84.6788 23.6531 82.0579 23.6531Z" fill="white" stroke="#9A1E5F" stroke-width="3" stroke-miterlimit="10" stroke-linecap="round" stroke-linejoin="round"/>
<path d="M74.2983 34.8628H102" stroke="#9A1E5F" stroke-width="3" stroke-miterlimit="10" stroke-linecap="round" stroke-linejoin="round"/>
<path d="M2 34.8628H67.3226" stroke="#9A1E5F" stroke-width="3" stroke-miterlimit="10" stroke-linecap="round" stroke-linejoin="round"/>
<path d="M17.8467 56.1492L21.0544 59.3305L26.4005 52.9678" stroke="#9A1E5F" stroke-width="3" stroke-linecap="round" stroke-linejoin="round"/>
<path d="M47.6855 56.1492L50.8932 59.3305L56.2394 52.9678" stroke="#9A1E5F" stroke-width="3" stroke-linecap="round" stroke-linejoin="round"/>
</svg>
