<svg width="104" height="104" viewBox="0 0 104 104" fill="none" xmlns="http://www.w3.org/2000/svg">
<path d="M70.4092 81.4011L78.3642 89.2909L91.6226 73.5112" stroke="#9A1E5F" stroke-width="3" stroke-linecap="round" stroke-linejoin="round"/>
<path d="M57.7049 94.623H8.46268C4.88819 94.623 2 91.7454 2 88.1841V19.0946C2 15.5333 4.88819 12.6558 8.46268 12.6558H95.5373C99.1118 12.6558 102 15.5333 102 19.0946V65.7906" stroke="#9A1E5F" stroke-width="3" stroke-miterlimit="10"/>
<path d="M23.7338 53.6394H17.4567C16.6992 53.6394 16.0498 53.0222 16.0498 52.244V46.0184C16.0498 45.2671 16.6721 44.623 17.4567 44.623H23.7338C24.4914 44.623 25.1407 45.2402 25.1407 46.0184V52.244C25.1407 52.9954 24.5184 53.6394 23.7338 53.6394Z" stroke="#9A1E5F" stroke-width="3" stroke-miterlimit="10"/>
<path d="M24.3141 22.4918C21.5812 22.4918 19.3555 20.2434 19.3555 17.4827V7.00911C19.3555 4.24841 21.5812 2 24.3141 2C27.0471 2 29.2728 4.24841 29.2728 7.00911V17.4827C29.2446 20.2434 27.0471 22.4918 24.3141 22.4918Z" fill="white" stroke="#9A1E5F" stroke-width="3" stroke-miterlimit="10"/>
<path d="M51.5866 22.4918C48.8537 22.4918 46.6279 20.2434 46.6279 17.4827V7.00911C46.6279 4.24841 48.8537 2 51.5866 2C54.3195 2 56.5453 4.24841 56.5453 7.00911V17.4827C56.5453 20.2434 54.3195 22.4918 51.5866 22.4918Z" fill="white" stroke="#9A1E5F" stroke-width="3" stroke-miterlimit="10"/>
<path d="M78.8596 22.4918C76.1266 22.4918 73.9009 20.2434 73.9009 17.4827V7.00911C73.9009 4.24841 76.1266 2 78.8596 2C81.5925 2 83.8182 4.24841 83.8182 7.00911V17.4827C83.8182 20.2434 81.5925 22.4918 78.8596 22.4918Z" fill="white" stroke="#9A1E5F" stroke-width="3" stroke-miterlimit="10"/>
<path d="M44.3949 53.6394H38.1179C37.3603 53.6394 36.7109 53.0222 36.7109 52.244V46.0184C36.7109 45.2671 37.3332 44.623 38.1179 44.623H44.3949C45.1525 44.623 45.8018 45.2402 45.8018 46.0184V52.244C45.8018 52.9954 45.1796 53.6394 44.3949 53.6394Z" stroke="#9A1E5F" stroke-width="3" stroke-miterlimit="10"/>
<path d="M65.0561 53.6394H58.779C58.0214 53.6394 57.3721 53.0222 57.3721 52.244V46.0184C57.3721 45.2671 57.9944 44.623 58.779 44.623H65.0561C65.8136 44.623 66.463 45.2402 66.463 46.0184V52.244C66.4359 52.9954 65.8136 53.6394 65.0561 53.6394Z" stroke="#9A1E5F" stroke-width="3" stroke-miterlimit="10"/>
<path d="M23.7338 69.213H17.4567C16.6992 69.213 16.0498 68.5397 16.0498 67.6908V60.8992C16.0498 60.0795 16.6721 59.377 17.4567 59.377H23.7338C24.4914 59.377 25.1407 60.0503 25.1407 60.8992V67.6908C25.1407 68.5397 24.5184 69.213 23.7338 69.213Z" stroke="#9A1E5F" stroke-width="3" stroke-miterlimit="10"/>
<path d="M44.3949 69.213H38.1179C37.3603 69.213 36.7109 68.5397 36.7109 67.6908V60.8992C36.7109 60.0795 37.3332 59.377 38.1179 59.377H44.3949C45.1525 59.377 45.8018 60.0503 45.8018 60.8992V67.6908C45.8018 68.5397 45.1796 69.213 44.3949 69.213Z" stroke="#9A1E5F" stroke-width="3" stroke-miterlimit="10"/>
<path d="M60.2941 69.213H58.779C58.0214 69.213 57.3721 68.5397 57.3721 67.6908V60.8992C57.3721 60.0795 57.9944 59.377 58.779 59.377H65.0561C65.8136 59.377 66.463 60.0503 66.463 60.8992" stroke="#9A1E5F" stroke-width="3" stroke-miterlimit="10"/>
<path d="M23.7338 84.7867H17.4567C16.6992 84.7867 16.0498 84.1134 16.0498 83.2645V76.4729C16.0498 75.6533 16.6721 74.9507 17.4567 74.9507H23.7338C24.4914 74.9507 25.1407 75.624 25.1407 76.4729V83.2645C25.1407 84.1134 24.5184 84.7867 23.7338 84.7867Z" stroke="#9A1E5F" stroke-width="3" stroke-miterlimit="10"/>
<path d="M44.3949 84.7867H38.1179C37.3603 84.7867 36.7109 84.1134 36.7109 83.2645V76.4729C36.7109 75.6533 37.3332 74.9507 38.1179 74.9507H44.3949C45.1525 74.9507 45.8018 75.624 45.8018 76.4729V83.2645C45.8018 84.1134 45.1796 84.7867 44.3949 84.7867Z" stroke="#9A1E5F" stroke-width="3" stroke-miterlimit="10"/>
<path d="M86.4157 53.6394H79.568C78.7416 53.6394 78.0332 53.0222 78.0332 52.244V46.0184C78.0332 45.2671 78.7121 44.623 79.568 44.623H86.4157C87.2422 44.623 87.9506 45.2402 87.9506 46.0184V52.244C87.9506 52.9954 87.2717 53.6394 86.4157 53.6394Z" stroke="#9A1E5F" stroke-width="3" stroke-miterlimit="10"/>
<path d="M2 33.1475H102" stroke="#9A1E5F" stroke-width="3" stroke-miterlimit="10"/>
<path d="M80.9255 102C92.5645 102 102 92.8252 102 81.5079C102 70.1906 92.5645 61.0161 80.9255 61.0161C69.2864 61.0161 59.8511 70.1906 59.8511 81.5079C59.8511 92.8252 69.2864 102 80.9255 102Z" stroke="#9A1E5F" stroke-width="3" stroke-miterlimit="10"/>
</svg>
