<svg width="115" height="106" viewBox="0 0 115 106" fill="none" xmlns="http://www.w3.org/2000/svg">
<path d="M44.186 85.843L46.7619 88.4189L51.0551 83.2671" stroke="#9A1E5F" stroke-width="3" stroke-linecap="round" stroke-linejoin="round"/>
<path d="M44.186 93.8572L46.7619 96.4331L51.0551 91.2812" stroke="#9A1E5F" stroke-width="3" stroke-linecap="round" stroke-linejoin="round"/>
<path d="M65.3657 64.9502H71.4898C72.8562 64.9502 73.9521 66.0596 73.9521 67.4126V101.413C73.9521 102.779 72.8427 103.875 71.4898 103.875H41.4964C40.13 103.875 39.0342 102.766 39.0342 101.413V67.4126C39.0342 66.0461 40.1435 64.9502 41.4964 64.9502L47.6205 64.9502" stroke="#9A1E5F" stroke-width="3" stroke-miterlimit="10" stroke-linecap="round" stroke-linejoin="round"/>
<path d="M60.4027 61.9444C60.4027 59.807 58.6559 58.0806 56.4932 58.0806C54.3305 58.0806 52.5837 59.807 52.5837 61.9444H47.9811C47.787 61.9444 47.6206 62.0952 47.6206 62.3007V68.028C47.6206 68.2198 47.7731 68.3842 47.9811 68.3842H65.0053C65.1994 68.3842 65.3658 68.2335 65.3658 68.028V62.287C65.3658 62.0952 65.2133 61.9307 65.0053 61.9307H60.4027V61.9444Z" stroke="#9A1E5F" stroke-width="3" stroke-miterlimit="10" stroke-linecap="round" stroke-linejoin="round"/>
<path d="M49.0551 73.5356H46.186C45.0815 73.5356 44.186 74.4311 44.186 75.5356V77.8323C44.186 78.9369 45.0815 79.8323 46.186 79.8323H49.0551C50.1597 79.8323 51.0551 78.9369 51.0551 77.8323V75.5356C51.0551 74.4311 50.1597 73.5356 49.0551 73.5356Z" stroke="#9A1E5F" stroke-width="3" stroke-miterlimit="10" stroke-linecap="round" stroke-linejoin="round"/>
<path d="M54.4893 76.9707H69.3723" stroke="#9A1E5F" stroke-width="3" stroke-miterlimit="10" stroke-linecap="round" stroke-linejoin="round"/>
<path d="M54.4893 86.1294H69.3723" stroke="#9A1E5F" stroke-width="3" stroke-miterlimit="10" stroke-linecap="round" stroke-linejoin="round"/>
<path d="M54.4893 95.2886H69.3723" stroke="#9A1E5F" stroke-width="3" stroke-miterlimit="10" stroke-linecap="round" stroke-linejoin="round"/>
<path d="M78.8463 7.45907C82.3727 4.69436 86.8301 3.05811 91.6542 3.05811C103.193 3.05811 112.531 12.396 112.531 23.9345C112.531 35.4729 103.193 44.8108 91.6542 44.8108C80.1158 44.8108 70.7778 35.4729 70.7778 23.9345C70.7778 18.9129 72.5551 14.3144 75.4891 10.7316" stroke="#9A1E5F" stroke-width="3" stroke-miterlimit="10" stroke-linecap="round" stroke-linejoin="round"/>
<path d="M77.8306 39.5915C78.6487 34.2313 82.7393 29.8868 88.0995 28.4762C85.899 27.1503 84.432 24.7523 84.432 22.0158C84.432 17.8688 87.7892 14.4834 91.9644 14.4834C96.1115 14.4834 99.4968 17.8405 99.4968 22.0158C99.4968 24.7523 98.0299 27.1503 95.8576 28.448C101.077 29.8021 105.054 33.921 106.042 39.0554" stroke="#9A1E5F" stroke-width="3" stroke-miterlimit="10" stroke-linecap="round" stroke-linejoin="round"/>
<path d="M2.26147 26.1772C1.55619 21.7481 2.26147 17.065 4.5748 12.8333C10.1324 2.73366 22.7993 -0.96202 32.9272 4.56739C43.055 10.0968 46.7225 22.7919 41.1931 32.9197C35.6637 43.0476 22.9404 46.7151 12.8407 41.1857C8.43975 38.7877 5.25187 35.0074 3.53098 30.6911" stroke="#9A1E5F" stroke-width="3" stroke-miterlimit="10" stroke-linecap="round" stroke-linejoin="round"/>
<path d="M9.08838 38.5338C9.90651 33.1737 13.9971 28.8292 19.3573 27.4186C17.1568 26.0927 15.6898 23.6947 15.6898 20.9582C15.6898 16.8111 19.047 13.4258 23.2222 13.4258C27.3975 13.4258 30.7547 16.7829 30.7547 20.9582C30.7547 23.6947 29.2877 26.0927 27.1154 27.3904C32.3345 28.7445 36.3123 32.8634 37.2997 37.9978" stroke="#9A1E5F" stroke-width="3" stroke-miterlimit="10" stroke-linecap="round" stroke-linejoin="round"/>
<path d="M42.2085 33.3621L56.5963 41.7409L56.5963 56.6929L56.5963 41.7409L71.1533 32.6851" stroke="#9A1E5F" stroke-width="3" stroke-miterlimit="10" stroke-linecap="round" stroke-linejoin="round"/>
</svg>
