<svg width="112" height="106" viewBox="0 0 112 106" fill="none" xmlns="http://www.w3.org/2000/svg">
<path d="M73.7969 22.418L93.605 38.0207V63.3751" stroke="#9A1E5F" stroke-width="3" stroke-miterlimit="10" stroke-linecap="round" stroke-linejoin="round"/>
<path d="M40.3975 7.91197L47.955 2L55.3907 7.91197" stroke="#9A1E5F" stroke-width="3" stroke-miterlimit="10" stroke-linecap="round" stroke-linejoin="round"/>
<path d="M71.237 93.239H2V38.0201L24.6727 20.2842" stroke="#9A1E5F" stroke-width="3" stroke-miterlimit="10" stroke-linecap="round" stroke-linejoin="round"/>
<path d="M2 38.02L47.772 71.5415L93.605 38.02" stroke="#9A1E5F" stroke-width="3" stroke-miterlimit="10" stroke-linecap="round" stroke-linejoin="round"/>
<path d="M2 93.2399L39.7269 65.6304" stroke="#9A1E5F" stroke-width="3" stroke-miterlimit="10" stroke-linecap="round" stroke-linejoin="round"/>
<path d="M55.9385 65.6904L70.2003 76.1126" stroke="#9A1E5F" stroke-width="3" stroke-miterlimit="10" stroke-linecap="round" stroke-linejoin="round"/>
<path d="M24.6729 54.6593V7.91211H73.797V52.5261" stroke="#9A1E5F" stroke-width="3" stroke-miterlimit="10" stroke-linecap="round" stroke-linejoin="round"/>
<path d="M34.2412 24.7944H65.9342" stroke="#9A1E5F" stroke-width="3" stroke-miterlimit="10" stroke-linecap="round" stroke-linejoin="round"/>
<path d="M34.2412 38.02H65.9342" stroke="#9A1E5F" stroke-width="3" stroke-miterlimit="10" stroke-linecap="round" stroke-linejoin="round"/>
<path d="M34.2412 51.1851H53.257" stroke="#9A1E5F" stroke-width="3" stroke-miterlimit="10" stroke-linecap="round" stroke-linejoin="round"/>
<path d="M89.3993 104.149C100.777 104.149 110 94.926 110 83.5487C110 72.1714 100.777 62.9482 89.3993 62.9482C78.022 62.9482 68.7988 72.1714 68.7988 83.5487C68.7988 94.926 78.022 104.149 89.3993 104.149Z" stroke="#9A1E5F" stroke-width="3" stroke-miterlimit="10" stroke-linecap="round" stroke-linejoin="round"/>
<path d="M89.3994 72.5781V94.5194" stroke="#9A1E5F" stroke-width="3" stroke-miterlimit="10" stroke-linecap="round" stroke-linejoin="round"/>
<path d="M78.4292 83.5483H100.371" stroke="#9A1E5F" stroke-width="3" stroke-miterlimit="10" stroke-linecap="round" stroke-linejoin="round"/>
</svg>
