<svg width="106" height="105" viewBox="0 0 106 105" fill="none" xmlns="http://www.w3.org/2000/svg">
<path d="M9.2857 84.0602C13.3095 84.0602 16.5714 80.7983 16.5714 76.7745C16.5714 72.7507 13.3095 69.4888 9.2857 69.4888C5.26192 69.4888 2 72.7507 2 76.7745C2 80.7983 5.26192 84.0602 9.2857 84.0602Z" stroke="#9A1E5F" stroke-width="3" stroke-miterlimit="10" stroke-linecap="round" stroke-linejoin="round"/>
<path d="M25.3912 99.3986C29.415 99.3986 32.6769 96.1366 32.6769 92.1129C32.6769 88.0891 29.415 84.8271 25.3912 84.8271C21.3674 84.8271 18.1055 88.0891 18.1055 92.1129C18.1055 96.1366 21.3674 99.3986 25.3912 99.3986Z" stroke="#9A1E5F" stroke-width="3" stroke-miterlimit="10" stroke-linecap="round" stroke-linejoin="round"/>
<path d="M51.4659 16.5714C55.4897 16.5714 58.7516 13.3095 58.7516 9.2857C58.7516 5.26192 55.4897 2 51.4659 2C47.4421 2 44.1802 5.26192 44.1802 9.2857C44.1802 13.3095 47.4421 16.5714 51.4659 16.5714Z" stroke="#9A1E5F" stroke-width="3" stroke-miterlimit="10" stroke-linecap="round" stroke-linejoin="round"/>
<path d="M9.2857 15.8045C13.3095 15.8045 16.5714 12.7142 16.5714 8.90224C16.5714 5.09024 13.3095 2 9.2857 2C5.26192 2 2 5.09024 2 8.90224C2 12.7142 5.26192 15.8045 9.2857 15.8045Z" stroke="#9A1E5F" stroke-width="3" stroke-miterlimit="10" stroke-linecap="round" stroke-linejoin="round"/>
<path d="M96.7144 68.7218C100.738 68.7218 104 65.4599 104 61.4361C104 57.4123 100.738 54.1504 96.7144 54.1504C92.6906 54.1504 89.4287 57.4123 89.4287 61.4361C89.4287 65.4599 92.6906 68.7218 96.7144 68.7218Z" stroke="#9A1E5F" stroke-width="3" stroke-miterlimit="10" stroke-linecap="round" stroke-linejoin="round"/>
<path d="M71.7891 35.9136C73.2453 30.5124 78.3202 26.5415 84.366 26.5415C90.6323 26.5415 95.8396 30.8113 97.0973 36.5114" stroke="#9A1E5F" stroke-width="3" stroke-miterlimit="10" stroke-linecap="round" stroke-linejoin="round"/>
<path d="M84.4434 26.5411C88.4672 26.5411 91.7291 23.2792 91.7291 19.2554C91.7291 15.2316 88.4672 11.9697 84.4434 11.9697C80.4196 11.9697 77.1577 15.2316 77.1577 19.2554C77.1577 23.2792 80.4196 26.5411 84.4434 26.5411Z" stroke="#9A1E5F" stroke-width="3" stroke-miterlimit="10" stroke-linecap="round" stroke-linejoin="round"/>
<path d="M84.4436 41.1127C95.2442 41.1127 104 32.357 104 21.5564C104 10.7557 95.2442 2 84.4436 2C73.6429 2 64.8872 10.7557 64.8872 21.5564C64.8872 32.357 73.6429 41.1127 84.4436 41.1127Z" stroke="#9A1E5F" stroke-width="3" stroke-miterlimit="10" stroke-linecap="round" stroke-linejoin="round"/>
<path d="M15.0376 59.6881C16.4497 54.2868 21.3708 50.3159 27.2334 50.3159C33.3099 50.3159 38.3593 54.5857 39.5789 60.2858" stroke="#9A1E5F" stroke-width="3" stroke-miterlimit="10" stroke-linecap="round" stroke-linejoin="round"/>
<path d="M26.9249 50.3155C30.9486 50.3155 34.2106 47.0536 34.2106 43.0298C34.2106 39.0061 30.9486 35.7441 26.9249 35.7441C22.9011 35.7441 19.6392 39.0061 19.6392 43.0298C19.6392 47.0536 22.9011 50.3155 26.9249 50.3155Z" stroke="#9A1E5F" stroke-width="3" stroke-miterlimit="10" stroke-linecap="round" stroke-linejoin="round"/>
<path d="M26.925 64.8871C37.7257 64.8871 46.4814 56.1315 46.4814 45.3308C46.4814 34.5301 37.7257 25.7744 26.925 25.7744C16.1243 25.7744 7.36865 34.5301 7.36865 45.3308C7.36865 56.1315 16.1243 64.8871 26.925 64.8871Z" stroke="#9A1E5F" stroke-width="3" stroke-miterlimit="10" stroke-linecap="round" stroke-linejoin="round"/>
<path d="M49.5488 98.0338C50.961 92.6325 55.8821 88.6616 61.7446 88.6616C67.8211 88.6616 72.8706 92.9314 74.0901 98.6315" stroke="#9A1E5F" stroke-width="3" stroke-miterlimit="10" stroke-linecap="round" stroke-linejoin="round"/>
<path d="M62.2027 88.6617C66.2265 88.6617 69.4884 85.3998 69.4884 81.376C69.4884 77.3523 66.2265 74.0903 62.2027 74.0903C58.1789 74.0903 54.917 77.3523 54.917 81.376C54.917 85.3998 58.1789 88.6617 62.2027 88.6617Z" stroke="#9A1E5F" stroke-width="3" stroke-miterlimit="10" stroke-linecap="round" stroke-linejoin="round"/>
<path d="M62.2028 103.233C73.0035 103.233 81.7592 94.4772 81.7592 83.6765C81.7592 72.8758 73.0035 64.1201 62.2028 64.1201C51.4022 64.1201 42.6465 72.8758 42.6465 83.6765C42.6465 94.4772 51.4022 103.233 62.2028 103.233Z" stroke="#9A1E5F" stroke-width="3" stroke-miterlimit="10" stroke-linecap="round" stroke-linejoin="round"/>
<path d="M58.752 11.2031L65.6542 14.2708" stroke="#9A1E5F" stroke-width="3" stroke-miterlimit="10" stroke-linecap="round" stroke-linejoin="round"/>
<path d="M12.7368 15.8042L18.8721 27.3079" stroke="#9A1E5F" stroke-width="3" stroke-miterlimit="10" stroke-linecap="round" stroke-linejoin="round"/>
<path d="M45.7139 38.0455L65.6537 29.6094" stroke="#9A1E5F" stroke-width="3" stroke-miterlimit="10" stroke-linecap="round" stroke-linejoin="round"/>
<path d="M68.7217 64.8865L77.1578 40.3452" stroke="#9A1E5F" stroke-width="3" stroke-miterlimit="10" stroke-linecap="round" stroke-linejoin="round"/>
<path d="M79.4585 72.5565L90.1953 65.6543" stroke="#9A1E5F" stroke-width="3" stroke-miterlimit="10" stroke-linecap="round" stroke-linejoin="round"/>
<path d="M32.6768 90.9624L42.6467 88.6616" stroke="#9A1E5F" stroke-width="3" stroke-miterlimit="10" stroke-linecap="round" stroke-linejoin="round"/>
<path d="M41.8794 57.9849L50.3155 67.9548" stroke="#9A1E5F" stroke-width="3" stroke-miterlimit="10" stroke-linecap="round" stroke-linejoin="round"/>
<path d="M13.5039 70.2556L17.3385 62.5864" stroke="#9A1E5F" stroke-width="3" stroke-miterlimit="10" stroke-linecap="round" stroke-linejoin="round"/>
</svg>
