<svg width="82" height="106" viewBox="0 0 82 106" fill="none" xmlns="http://www.w3.org/2000/svg">
<path d="M13.4751 63.8371L19.2126 69.5746L28.7751 58.0996" stroke="#9A1E5F" stroke-width="3" stroke-linecap="round" stroke-linejoin="round"/>
<path d="M13.4751 81.6872L19.2126 87.4247L28.7751 75.9497" stroke="#9A1E5F" stroke-width="3" stroke-linecap="round" stroke-linejoin="round"/>
<path d="M60.65 17.3003H74.2907C77.3342 17.3003 79.775 19.7714 79.775 22.785V98.5156C79.775 101.559 77.304 104 74.2907 104H7.48433C4.44083 104 2 101.529 2 98.5156V22.785C2 19.7413 4.47096 17.3003 7.48433 17.3003L21.125 17.3003" stroke="#9A1E5F" stroke-width="3" stroke-miterlimit="10" stroke-linecap="round" stroke-linejoin="round"/>
<path d="M49.5953 10.6062C49.5953 5.84534 45.7046 2 40.8875 2C36.0704 2 32.1796 5.84534 32.1796 10.6062H21.9279C21.4955 10.6062 21.125 10.942 21.125 11.3997V24.1565C21.125 24.5838 21.4647 24.95 21.9279 24.95H59.8471C60.2795 24.95 60.65 24.6143 60.65 24.1565V11.3692C60.65 10.942 60.3103 10.5757 59.8471 10.5757H49.5953V10.6062Z" stroke="#9A1E5F" stroke-width="3" stroke-miterlimit="10" stroke-linecap="round" stroke-linejoin="round"/>
<path d="M26.7751 36.4248H15.4751C14.3705 36.4248 13.4751 37.3202 13.4751 38.4248V48.4498C13.4751 49.5544 14.3705 50.4498 15.4751 50.4498H26.7751C27.8797 50.4498 28.7751 49.5544 28.7751 48.4498V38.4248C28.7751 37.3202 27.8797 36.4248 26.7751 36.4248Z" stroke="#9A1E5F" stroke-width="3" stroke-miterlimit="10" stroke-linecap="round" stroke-linejoin="round"/>
<path d="M36.4248 44.0747H69.5748" stroke="#9A1E5F" stroke-width="3" stroke-miterlimit="10" stroke-linecap="round" stroke-linejoin="round"/>
<path d="M36.4248 64.4751H69.5748" stroke="#9A1E5F" stroke-width="3" stroke-miterlimit="10" stroke-linecap="round" stroke-linejoin="round"/>
<path d="M36.4248 84.875H69.5748" stroke="#9A1E5F" stroke-width="3" stroke-miterlimit="10" stroke-linecap="round" stroke-linejoin="round"/>
</svg>
