<svg width="120" height="105" viewBox="0 0 120 105" fill="none" xmlns="http://www.w3.org/2000/svg">
<path d="M9.3021 24.519H93.9289C97.9503 24.519 101.231 27.7997 101.231 31.8211V95.2824C101.231 99.3038 97.9503 102.584 93.9289 102.584H9.3021C5.28065 102.584 2 99.3038 2 95.2824V31.8211C2 27.7997 5.28065 24.519 9.3021 24.519Z" stroke="#851851" stroke-width="3" stroke-miterlimit="10" stroke-linecap="round" stroke-linejoin="round"/>
<path d="M17.521 24.519L19.3906 8.46851C19.8492 4.44706 23.4826 1.58972 27.5041 2.0483L111.531 11.8903C115.553 12.3488 118.41 15.9823 117.951 20.0037L110.579 83.0416C110.12 87.0631 106.487 89.9204 102.465 89.4618L101.231 89.3207" stroke="#851851" stroke-width="3" stroke-miterlimit="10" stroke-linecap="round" stroke-linejoin="round"/>
<path d="M2.66992 82.8303L23.3768 65.6156C28.0333 61.7706 34.7709 61.7706 39.3568 65.6862L54.2079 78.2797C58.1941 81.6309 63.8382 82.1953 68.3535 79.6202L101.231 61.0298" stroke="#851851" stroke-width="3" stroke-miterlimit="10" stroke-linecap="round" stroke-linejoin="round"/>
<path d="M60.5227 58.5605C65.6465 58.5605 69.8002 54.4068 69.8002 49.2829C69.8002 44.1591 65.6465 40.0054 60.5227 40.0054C55.3988 40.0054 51.2451 44.1591 51.2451 49.2829C51.2451 54.4068 55.3988 58.5605 60.5227 58.5605Z" stroke="#851851" stroke-width="3" stroke-miterlimit="10" stroke-linecap="round" stroke-linejoin="round"/>
</svg>
