<svg width="100" height="106" viewBox="0 0 100 106" fill="none" xmlns="http://www.w3.org/2000/svg">
<path d="M98.4908 70.5974L76.4995 92.8383C61.8387 107.665 39.8474 85.4246 54.5082 70.5974L76.4995 48.3565C86.2734 38.4717 100.934 53.2989 91.1604 63.1838L69.1691 85.4246C64.2821 90.367 56.9517 82.9534 61.8387 78.011L83.8299 55.7701" stroke="#851851" stroke-width="3"/>
<path d="M70.065 104H6.64902C4.08788 104 2 101.912 2 99.351V6.64902C2 4.08788 4.08788 2 6.64902 2H64.7478" stroke="#851851" stroke-width="3" stroke-miterlimit="10" stroke-linecap="round" stroke-linejoin="round"/>
<path d="M78.2773 14.5273V38.1622" stroke="#851851" stroke-width="3" stroke-miterlimit="10" stroke-linecap="round" stroke-linejoin="round"/>
<path d="M64.7197 2L78.0543 14.3324C78.1379 14.4159 78.0822 14.5273 77.9708 14.5273H64.8311C64.7754 14.5273 64.7197 14.4716 64.7197 14.4159V2" stroke="#851851" stroke-width="3" stroke-miterlimit="10" stroke-linecap="round" stroke-linejoin="round"/>
<path d="M25.3564 26.3311H64.72" stroke="#851851" stroke-width="3" stroke-miterlimit="10" stroke-linecap="round" stroke-linejoin="round"/>
<path d="M15.7803 39.7212H57.8163" stroke="#851851" stroke-width="3" stroke-miterlimit="10" stroke-linecap="round" stroke-linejoin="round"/>
<path d="M15.7803 53H55.2273" stroke="#851851" stroke-width="3" stroke-miterlimit="10" stroke-linecap="round" stroke-linejoin="round"/>
<path d="M15.7803 66.7241H46.6809" stroke="#851851" stroke-width="3" stroke-miterlimit="10" stroke-linecap="round" stroke-linejoin="round"/>
<path d="M15.7803 80.0034H40.1946" stroke="#851851" stroke-width="3" stroke-miterlimit="10" stroke-linecap="round" stroke-linejoin="round"/>
<path d="M17.7289 28.1678C18.7437 28.1678 19.5663 27.3452 19.5663 26.3305C19.5663 25.3158 18.7437 24.4932 17.7289 24.4932C16.7142 24.4932 15.8916 25.3158 15.8916 26.3305C15.8916 27.3452 16.7142 28.1678 17.7289 28.1678Z" stroke="#851851" stroke-width="3" stroke-miterlimit="10" stroke-linecap="round" stroke-linejoin="round"/>
</svg>
