<svg width="162" height="35" viewBox="0 0 162 35" fill="none" xmlns="http://www.w3.org/2000/svg">
<path d="M51.851 0.689697H50.5137V11.2488H51.851V0.689697Z" fill="white"/>
<path d="M64.0255 0.677124H65.3502V9.93203C65.3502 10.5841 65.2493 11.1735 65.06 11.7253C64.8708 12.2771 64.5806 12.7411 64.2021 13.1424C63.8237 13.5437 63.3569 13.8447 62.7891 14.0704C62.234 14.2961 61.578 14.409 60.8589 14.409C60.1524 14.409 59.5468 14.2961 59.0295 14.0829C58.5123 13.8698 58.0833 13.5813 57.7427 13.2302C57.4021 12.8665 57.1497 12.4527 56.9857 11.9887C56.8217 11.5247 56.7334 11.0356 56.7334 10.5089C56.7334 10.2581 56.7586 10.0073 56.7965 9.75646C56.8343 9.49311 56.8974 9.2423 56.9605 9.00403C57.0236 8.75322 57.1119 8.52749 57.2128 8.30176C57.3137 8.07603 57.4147 7.88792 57.5282 7.69981L58.651 8.32684C58.5754 8.45225 58.4997 8.60273 58.4366 8.75322C58.3735 8.91625 58.323 9.07927 58.2726 9.25484C58.2347 9.43041 58.1969 9.60597 58.1716 9.79408C58.1464 9.98219 58.1338 10.1578 58.1338 10.3333C58.1338 10.7095 58.1969 11.0732 58.323 11.4118C58.4492 11.7504 58.6258 12.0388 58.8655 12.2896C59.1052 12.5405 59.3954 12.7286 59.7487 12.879C60.1019 13.0295 60.5056 13.0922 60.9598 13.0922C61.4518 13.0922 61.8808 13.017 62.2593 12.879C62.6377 12.7286 62.9531 12.5279 63.2181 12.252C63.483 11.9761 63.6723 11.6501 63.811 11.2613C63.9498 10.8726 64.0129 10.4211 64.0129 9.93203V0.677124H64.0255Z" fill="white"/>
<path d="M101.595 5.5553V9.9193H100.536C100.17 9.9193 99.8166 9.89422 99.4886 9.81898C99.1732 9.74374 98.883 9.63088 98.6307 9.45531V6.37042H97.2934V9.09165C97.2934 9.36753 97.2556 9.58072 97.1673 9.71866C97.079 9.8566 96.9528 9.93184 96.7888 9.93184H96.2715C95.9183 9.93184 95.5777 9.90676 95.2623 9.83152C94.9469 9.76882 94.6567 9.65596 94.3918 9.46786V6.98489H93.0545V9.09165C93.0545 9.36753 93.004 9.58072 92.9157 9.71866C92.8274 9.8566 92.7013 9.93184 92.5499 9.93184H87.4279C87.1755 9.93184 86.9358 9.9193 86.7087 9.90676C86.4817 9.88168 86.2672 9.86914 86.0527 9.83152C85.8509 9.80644 85.6743 9.76882 85.4976 9.7312C85.321 9.68104 85.1822 9.64342 85.0813 9.58072C85.4472 9.21705 85.7373 8.86592 85.9644 8.53988C86.1789 8.22637 86.3555 7.93795 86.4691 7.6746C86.5952 7.41126 86.6709 7.17299 86.6961 6.97235C86.734 6.75917 86.7592 6.5836 86.7592 6.43312C86.7592 6.21994 86.6835 6.01929 86.5447 5.86881C86.406 5.70579 86.2293 5.58039 85.9896 5.48006C85.7752 5.3672 85.5229 5.3045 85.2579 5.2418C84.993 5.19164 84.7155 5.16656 84.4505 5.16656C84.0973 5.16656 83.7566 5.19164 83.4539 5.2418C83.1385 5.3045 82.8483 5.3672 82.5708 5.44244C82.3058 5.51768 82.0535 5.60547 81.839 5.69325C81.6246 5.78103 81.4353 5.86881 81.2839 5.95659C81.2335 5.98167 81.183 6.04437 81.1326 6.13216C81.0821 6.21994 81.0316 6.3328 80.9812 6.4582C80.9307 6.5836 80.8929 6.70901 80.855 6.83441C80.8172 6.95981 80.7793 7.08521 80.7667 7.18553C80.855 7.28586 80.9812 7.43634 81.1199 7.64952C81.2587 7.85017 81.4227 8.06335 81.5993 8.30161C81.776 8.53988 81.9652 8.7656 82.1671 9.00387C82.3689 9.22959 82.5834 9.43023 82.7978 9.58072C82.7474 9.63088 82.6591 9.6685 82.5329 9.70612C82.4068 9.74374 82.268 9.78136 82.0661 9.81898C81.8895 9.8566 81.675 9.88168 81.4353 9.89422C81.2083 9.9193 80.9433 9.93184 80.6784 9.93184H69.7657C69.6143 9.93184 69.5008 9.90676 69.3998 9.86914C69.3115 9.81898 69.2232 9.74374 69.1727 9.65596C69.1223 9.55564 69.0844 9.41769 69.0592 9.24213C69.034 9.06657 69.0214 8.84084 69.0214 8.59004V0.689697H67.6841V9.11673C67.6841 9.41769 67.7219 9.69358 67.7976 9.95692C67.8733 10.2203 67.9869 10.446 68.1509 10.6341C68.3023 10.8347 68.5041 10.9852 68.7312 11.0855C68.9709 11.1984 69.2484 11.2611 69.5891 11.2611H80.6027C80.9307 11.2611 81.2461 11.236 81.5489 11.1859C81.8517 11.1357 82.1418 11.073 82.4068 10.9978C82.6717 10.9225 82.924 10.8222 83.1637 10.7219C83.3908 10.6216 83.6179 10.5087 83.8197 10.4084C83.9459 10.4836 84.0847 10.5589 84.2865 10.6592C84.501 10.7595 84.7281 10.8473 85.0056 10.9351C85.2705 11.0228 85.5859 11.1106 85.9392 11.1608C86.2798 11.2235 86.6457 11.2611 87.0494 11.2611H92.8274C93.1428 11.2611 93.4078 11.1859 93.6222 11.0605C93.8241 10.9225 93.9881 10.7595 94.1142 10.5589C94.2656 10.6843 94.4296 10.7971 94.5936 10.8849C94.7703 10.9727 94.9469 11.0479 95.1361 11.0981C95.3127 11.1608 95.502 11.1859 95.7038 11.2235C95.9057 11.2486 96.0949 11.2611 96.2842 11.2611H97.0916C97.3944 11.2611 97.6593 11.1859 97.8611 11.0605C98.0756 10.9351 98.227 10.772 98.3532 10.5714C98.5172 10.7093 98.6812 10.8222 98.8704 10.91C99.047 10.9978 99.2363 11.073 99.4381 11.1232C99.6274 11.1733 99.8166 11.2109 100.006 11.236C100.182 11.2611 100.372 11.2611 100.523 11.2611H102.945V5.5553H101.595ZM84.5767 8.53988C84.4001 8.71544 84.1856 8.87846 83.9585 9.01641C83.7566 8.891 83.5422 8.72798 83.3403 8.5148C83.1259 8.31415 82.924 8.10097 82.7348 7.88779C82.5581 7.6746 82.3815 7.47396 82.2428 7.26078C82.104 7.06013 82.003 6.89711 81.94 6.78425C82.3184 6.60868 82.6843 6.48328 83.0123 6.42058C83.3277 6.34534 83.6431 6.32026 83.9207 6.32026C84.1604 6.32026 84.3874 6.34534 84.5767 6.3955C84.7659 6.43312 84.9299 6.50836 85.0561 6.57106C85.1822 6.6463 85.2832 6.74663 85.3589 6.83441C85.4345 6.93473 85.4724 7.03505 85.4724 7.14791C85.4724 7.24824 85.4345 7.3611 85.3589 7.52412C85.2832 7.6746 85.1949 7.83763 85.0687 8.01319C84.9173 8.18875 84.7659 8.36432 84.5767 8.53988Z" fill="white"/>
<path d="M84.5387 2.62092C84.5009 2.52059 84.4378 2.44535 84.3621 2.37011C84.2864 2.29486 84.1981 2.2447 84.1098 2.19454C84.0088 2.15692 83.9079 2.13184 83.7943 2.13184C83.6808 2.13184 83.5799 2.15692 83.4915 2.19454C83.3906 2.23216 83.3149 2.29486 83.2392 2.37011C83.1635 2.44535 83.1131 2.52059 83.0626 2.62092C83.0247 2.7087 82.9995 2.82156 82.9995 2.92189C82.9995 3.14762 83.0752 3.33573 83.2266 3.48621C83.378 3.6367 83.5546 3.71194 83.7817 3.71194C83.8953 3.71194 83.9962 3.68686 84.0971 3.6367C84.1854 3.59908 84.2738 3.54891 84.3495 3.47367C84.4252 3.39843 84.4756 3.32319 84.5261 3.22286C84.5639 3.13508 84.5892 3.02221 84.5892 2.90935C84.6018 2.82156 84.5766 2.7087 84.5387 2.62092Z" fill="white"/>
<path d="M97.6466 2.62124C97.6087 2.52092 97.5457 2.44567 97.47 2.37043C97.3943 2.29519 97.306 2.24502 97.2176 2.19486C97.1167 2.15724 97.0158 2.13216 96.9022 2.13216C96.7887 2.13216 96.6878 2.15724 96.5995 2.19486C96.4985 2.23248 96.4228 2.29519 96.3471 2.37043C96.2714 2.44567 96.221 2.52092 96.1705 2.62124C96.1327 2.70902 96.1074 2.82189 96.1074 2.93475C96.1074 3.14794 96.1831 3.33605 96.3219 3.48654C96.4733 3.63702 96.6625 3.71227 96.8896 3.71227C97.0032 3.71227 97.1041 3.68718 97.205 3.63702C97.2933 3.5994 97.3817 3.54924 97.4573 3.474C97.533 3.39875 97.5835 3.32351 97.634 3.22318C97.6718 3.1354 97.6971 3.02254 97.6971 2.92221C97.7097 2.82189 97.6844 2.70902 97.6466 2.62124ZM98.6937 0.639837C98.6559 0.552054 98.5928 0.46427 98.5171 0.389027C98.4414 0.313784 98.3531 0.263622 98.2648 0.213459C98.1639 0.175838 98.0629 0.150757 97.9494 0.150757C97.8358 0.150757 97.7349 0.175838 97.634 0.213459C97.5457 0.251081 97.4573 0.313784 97.3943 0.389027C97.3312 0.46427 97.2681 0.552054 97.2176 0.639837C97.1798 0.740161 97.1546 0.840486 97.1546 0.95335C97.1546 1.16654 97.2303 1.36719 97.369 1.51767C97.5204 1.66816 97.7097 1.73086 97.9368 1.73086C98.0503 1.73086 98.1512 1.70578 98.2522 1.66816C98.3405 1.63054 98.4288 1.56784 98.5045 1.49259C98.5802 1.41735 98.6306 1.34211 98.6811 1.24178C98.719 1.154 98.7442 1.05367 98.7442 0.94081C98.7442 0.827945 98.7316 0.740161 98.6937 0.639837ZM99.7535 2.62124C99.7156 2.52092 99.6526 2.44567 99.5769 2.37043C99.5012 2.29519 99.4255 2.24502 99.3245 2.19486C99.2236 2.15724 99.1227 2.13216 99.0091 2.13216C98.8956 2.13216 98.7947 2.15724 98.7063 2.19486C98.6054 2.23248 98.5297 2.29519 98.454 2.37043C98.3783 2.44567 98.3279 2.52092 98.2774 2.62124C98.2395 2.70902 98.2143 2.82189 98.2143 2.93475C98.2143 3.14794 98.29 3.33605 98.4414 3.48654C98.5928 3.63702 98.7694 3.71227 98.9965 3.71227C99.1101 3.71227 99.211 3.68718 99.3119 3.63702C99.4128 3.5994 99.4885 3.54924 99.5642 3.474C99.6399 3.39875 99.6904 3.32351 99.7409 3.22318C99.7787 3.1354 99.8039 3.02254 99.8039 2.92221C99.8166 2.82189 99.7913 2.70902 99.7535 2.62124Z" fill="white"/>
<path d="M110.111 0.689729C110.073 0.677188 110.01 0.664648 109.935 0.664648C109.859 0.652107 109.77 0.652107 109.682 0.652107C109.468 0.652107 109.291 0.689729 109.152 0.777512C109.014 0.865296 108.95 1.00324 108.95 1.19135C108.95 1.27913 108.976 1.37946 109.014 1.46724C109.064 1.55502 109.127 1.64281 109.215 1.71805C109.304 1.79329 109.417 1.856 109.556 1.89362C109.695 1.94378 109.859 1.96886 110.035 1.96886H110.25V2.58335H107.954V1.96886H108.799C108.761 1.94378 108.711 1.89362 108.648 1.84346C108.597 1.79329 108.547 1.71805 108.496 1.64281C108.446 1.56756 108.408 1.46724 108.37 1.36692C108.332 1.26659 108.32 1.15373 108.32 1.01578C108.32 0.877837 108.345 0.764972 108.395 0.639567C108.446 0.514161 108.521 0.413837 108.635 0.313513C108.749 0.225729 108.887 0.150486 109.051 0.0877836C109.215 0.0376216 109.405 0 109.632 0C109.72 0 109.808 0 109.897 0.0125405C109.998 0.0125405 110.099 0.025081 110.212 0.0501621L110.111 0.689729ZM113.606 0.677188V11.2363H105.178V9.91955H108.458V3.53643H109.796V9.91955H112.281V0.677188H113.606Z" fill="white"/>
<path d="M117.403 0.689697H116.078V11.2488H117.403V0.689697Z" fill="white"/>
<path d="M29.1678 20.3654H27.7422V31.6518H29.1678V20.3654Z" fill="white"/>
<path d="M31.9434 23.977H33.369V31.6518H31.9434V23.977ZM33.4699 22.2589H31.8677V20.6663H33.4699V22.2589Z" fill="white"/>
<path d="M45.7324 21.1428H47.3978L49.921 30.1469H49.9462L52.2171 21.1428H54.3619L56.658 30.1469H56.6832L59.2065 21.1428H60.8213L57.5664 31.6518H55.5982L53.3021 22.4721H53.2769L50.9555 31.6518H48.9243L45.7324 21.1428Z" fill="white"/>
<path d="M76.7549 20.3654H78.1805V27.0871L81.2841 23.977H83.2143L79.6314 27.3755L83.6811 31.6518H81.6247L78.1805 27.7141V31.6518H76.7549V20.3654Z" fill="white"/>
<path d="M99.5012 22.5599L97.407 27.7768H101.621L99.5012 22.5599ZM98.7695 21.1428H100.359L104.825 31.6518H103.173L102.088 29.0057H96.9149L95.8426 31.6518H94.2529L98.7695 21.1428Z" fill="white"/>
<path d="M145.94 23.977H147.366V31.6518H145.94V23.977ZM147.467 22.2589H145.864V20.6663H147.467V22.2589Z" fill="white"/>
<path d="M154.077 25.1182H152.033V29.3192C152.033 29.7707 152.147 30.1093 152.387 30.335C152.626 30.5607 152.916 30.6861 153.232 30.6861C153.459 30.6861 153.648 30.6611 153.8 30.5984C153.951 30.5357 154.09 30.4855 154.203 30.4102V31.6141C154.039 31.6643 153.863 31.7145 153.648 31.7521C153.446 31.8022 153.219 31.8273 152.98 31.8273C152.235 31.8273 151.655 31.6518 151.239 31.2881C150.81 30.9244 150.608 30.3601 150.608 29.5951V25.1056H148.867V23.977H150.608V22.1962L152.033 21.7448V23.977H154.077V25.1182Z" fill="white"/>
<path d="M155.288 33.7335C155.377 33.7585 155.477 33.7962 155.604 33.8087C155.717 33.8338 155.843 33.8463 155.957 33.8463C156.272 33.8463 156.537 33.7585 156.752 33.5704C156.979 33.3823 157.143 33.1817 157.282 32.9559C157.42 32.7302 157.521 32.517 157.572 32.3164C157.635 32.1157 157.66 32.0029 157.66 31.9527C157.66 31.89 157.622 31.7646 157.559 31.589L157.395 31.1376L154.771 23.9769H156.335L158.417 30.335H158.442L160.562 23.9769H162L159.149 31.8148C159.023 32.1784 158.884 32.5546 158.732 32.9309C158.581 33.3071 158.392 33.6457 158.177 33.9592C157.95 34.2602 157.685 34.511 157.357 34.7116C157.042 34.8997 156.651 35 156.184 35C155.957 35 155.768 34.9875 155.616 34.9624C155.477 34.9373 155.339 34.9123 155.213 34.8872L155.288 33.7335Z" fill="white"/>
<path d="M3.6837 2.2447C3.64585 2.14437 3.58277 2.06913 3.50707 1.99388C3.43138 1.91864 3.35568 1.86848 3.25475 1.81832C3.16644 1.7807 3.05289 1.75562 2.95196 1.75562C2.83842 1.75562 2.73749 1.7807 2.63656 1.81832C2.53563 1.85594 2.45993 1.91864 2.38424 1.99388C2.30854 2.06913 2.25808 2.14437 2.22023 2.2447C2.16976 2.34502 2.14453 2.44534 2.14453 2.55821C2.14453 2.7714 2.22023 2.9595 2.37162 3.10999C2.52301 3.26048 2.69964 3.33572 2.93935 3.33572C3.04028 3.33572 3.15382 3.31064 3.24213 3.27302C3.34306 3.22286 3.41876 3.17269 3.49446 3.09745C3.57015 3.02221 3.62062 2.94696 3.67108 2.84664C3.70893 2.75886 3.73416 2.64599 3.73416 2.54567C3.74678 2.44534 3.73416 2.34502 3.6837 2.2447ZM5.79059 2.2447C5.75274 2.14437 5.70228 2.06913 5.61397 1.99388C5.53827 1.91864 5.46257 1.86848 5.36164 1.81832C5.27333 1.7807 5.1724 1.75562 5.05886 1.75562C4.94531 1.75562 4.84438 1.7807 4.74345 1.81832C4.65514 1.85594 4.56683 1.91864 4.49113 1.99388C4.42805 2.06913 4.36497 2.14437 4.32712 2.2447C4.28927 2.34502 4.26404 2.44534 4.26404 2.55821C4.26404 2.7714 4.33974 2.9595 4.47851 3.10999C4.62991 3.26048 4.81915 3.33572 5.04624 3.33572C5.15979 3.33572 5.26071 3.31064 5.34903 3.27302C5.44996 3.22286 5.52565 3.17269 5.60135 3.09745C5.67705 3.02221 5.72751 2.94696 5.77798 2.84664C5.82844 2.75886 5.85367 2.64599 5.85367 2.54567C5.86629 2.44534 5.84106 2.34502 5.79059 2.2447Z" fill="white"/>
<path d="M29.193 7.87533C29.1426 7.63707 29.0669 7.41134 28.9659 7.17308C28.865 6.94736 28.7389 6.72163 28.5749 6.52099C28.4235 6.3078 28.2342 6.1197 28.0198 5.95668C27.8053 5.79366 27.5656 5.68079 27.3007 5.58047C27.0357 5.49269 26.7329 5.44253 26.3923 5.44253C26.2283 5.44253 26.0769 5.46761 25.8877 5.49269C25.7111 5.51777 25.5218 5.59301 25.32 5.68079C25.1307 5.76857 24.9289 5.89398 24.727 6.06954C24.5252 6.23256 24.3233 6.44575 24.1215 6.70909C23.9322 6.97244 23.743 7.31102 23.5664 7.68723C23.3897 8.06344 23.2257 8.51488 23.087 9.04157C22.9987 9.34254 22.8347 9.56826 22.5949 9.7062C22.3552 9.84415 22.0777 9.91939 21.7875 9.91939H6.86301C6.64854 9.91939 6.48454 9.89431 6.34576 9.86923C6.2196 9.83161 6.11868 9.78145 6.04298 9.69366C5.96729 9.61842 5.91682 9.50556 5.90421 9.38016C5.89159 9.25476 5.87898 9.07919 5.87898 8.89109V4.33899H4.55431V5.11648C4.28938 5.19172 3.9866 5.27951 3.67121 5.36729C3.34319 5.46761 3.01518 5.58047 2.67456 5.70587C2.34654 5.83128 2.01853 5.98176 1.69052 6.15732C1.37513 6.33288 1.08496 6.53353 0.832645 6.75925C0.580328 6.98498 0.378475 7.24832 0.227085 7.53675C0.0630791 7.82517 0 8.16376 0 8.52742C0 8.92871 0.075695 9.25476 0.227085 9.53064C0.378475 9.80653 0.580328 10.0448 0.832645 10.2204C1.07235 10.3959 1.34989 10.5339 1.64006 10.6216C1.94284 10.6969 2.24562 10.747 2.53578 10.747C2.87641 10.747 3.21704 10.7094 3.54505 10.6091C3.87306 10.5213 4.21369 10.3583 4.59216 10.1451C4.63001 10.2956 4.69309 10.4335 4.76878 10.5715C4.84448 10.6969 4.97064 10.8223 5.12203 10.9226C5.27342 11.0229 5.46265 11.0982 5.68974 11.1609C5.91682 11.2361 6.20699 11.2612 6.535 11.2612H22.0272C22.2291 11.2612 22.4057 11.2361 22.5697 11.1985C22.7337 11.1734 22.8851 11.1107 23.0239 11.0229C23.15 10.9477 23.2888 10.8474 23.4024 10.7094C23.5159 10.584 23.6168 10.421 23.7178 10.2329C23.8439 10.3583 23.9827 10.4837 24.1593 10.6091C24.3359 10.747 24.5252 10.8599 24.7523 10.9728C24.9793 11.0731 25.2317 11.1483 25.5092 11.2236C25.7868 11.2988 26.0895 11.3239 26.4175 11.3239C26.7582 11.3239 27.061 11.2863 27.3259 11.1985C27.5908 11.1233 27.8431 11.0104 28.045 10.8599C28.2595 10.722 28.4487 10.5589 28.6001 10.3708C28.7641 10.1827 28.8776 9.99463 28.9786 9.78145C29.0795 9.5808 29.1552 9.36762 29.193 9.16698C29.2435 8.95379 29.2687 8.75315 29.2687 8.56504C29.2687 8.33932 29.2435 8.1136 29.193 7.87533ZM4.55431 9.00395C4.32723 9.16698 4.04968 9.27984 3.75952 9.36762C3.46935 9.4554 3.15396 9.50556 2.80071 9.50556C2.61148 9.50556 2.42224 9.48048 2.233 9.44286C2.05638 9.40524 1.89237 9.33 1.74098 9.24222C1.58959 9.17952 1.47605 9.05411 1.38774 8.90363C1.29943 8.75315 1.24897 8.57759 1.24897 8.35186C1.24897 8.08852 1.32466 7.85025 1.48867 7.64961C1.65267 7.43642 1.87976 7.24832 2.16992 7.0853C2.46009 6.90973 2.81333 6.77179 3.21704 6.63385C3.62074 6.50845 4.07491 6.39559 4.55431 6.3078V9.00395ZM27.9441 9.33C27.8684 9.50556 27.7296 9.63096 27.5782 9.73129C27.4142 9.83161 27.2123 9.89431 26.9853 9.93193C26.7582 9.96955 26.5059 9.99463 26.2283 9.99463C26.0265 9.99463 25.8246 9.96955 25.6101 9.93193C25.3957 9.89431 25.1938 9.84415 25.0046 9.78145C24.8153 9.71875 24.6387 9.65604 24.4999 9.56826C24.3612 9.49302 24.2602 9.43032 24.2098 9.35508C24.2729 9.01649 24.3612 8.69045 24.4747 8.3644C24.6009 8.0509 24.7396 7.76247 24.9415 7.51167C25.1181 7.26086 25.3326 7.06022 25.5723 6.90974C25.812 6.74671 26.0769 6.68401 26.3545 6.68401C26.6572 6.68401 26.9222 6.75925 27.1366 6.89719C27.3511 7.03514 27.5277 7.2107 27.6665 7.41134C27.8053 7.61199 27.9188 7.82517 27.9819 8.06344C28.0576 8.28916 28.0828 8.50234 28.0828 8.67791C28.0702 8.95379 28.0324 9.17952 27.9441 9.33Z" fill="white"/>
<path d="M46.7167 0.677124V9.91949H44.0926C43.8402 9.91949 43.6005 9.90695 43.3734 9.89441C43.1463 9.86932 42.9319 9.85678 42.7174 9.81916C42.5155 9.79408 42.3389 9.75646 42.1623 9.71884C41.9857 9.66868 41.8469 9.63105 41.7459 9.56835C42.1118 9.20468 42.402 8.85354 42.6291 8.52749C42.8436 8.21398 43.0202 7.92554 43.1337 7.66219C43.2599 7.39884 43.3356 7.16057 43.3608 6.95992C43.3987 6.74674 43.4239 6.57117 43.4239 6.42068C43.4239 6.20749 43.3482 6.00684 43.2094 5.85636C43.0706 5.69333 42.894 5.56793 42.6543 5.4676C42.4398 5.35474 42.1875 5.29204 41.9226 5.22933C41.6576 5.17917 41.3801 5.15409 41.1151 5.15409C40.7619 5.15409 40.4213 5.17917 40.1185 5.22933C39.8031 5.29204 39.5129 5.35474 39.2353 5.42998C38.9704 5.50522 38.7181 5.59301 38.5036 5.68079C38.2891 5.76857 38.0999 5.85636 37.9485 5.94414C37.898 5.96922 37.8476 6.03193 37.7971 6.11971C37.7466 6.20749 37.6962 6.32036 37.6457 6.44576C37.5952 6.57117 37.5574 6.69657 37.5195 6.82198C37.4817 6.94738 37.4438 7.07279 37.4312 7.17311C37.5195 7.27344 37.6457 7.42392 37.7845 7.63711C37.9233 7.83776 38.0873 8.05095 38.2639 8.28922C38.4405 8.52749 38.6298 8.75322 38.8316 8.99149C39.0335 9.21722 39.248 9.41787 39.4624 9.56835C39.412 9.61851 39.3237 9.65614 39.1975 9.69376C39.0713 9.73138 38.9199 9.769 38.7307 9.80662C38.5541 9.84424 38.3396 9.86932 38.0999 9.88187C37.8728 9.90695 37.6079 9.91949 37.3429 9.91949H33.4572C33.3058 9.91949 33.1796 9.89441 33.0913 9.85678C32.9904 9.80662 32.9147 9.73138 32.8642 9.6436C32.8011 9.54327 32.7633 9.40533 32.738 9.22976C32.7128 9.05419 32.7128 8.82846 32.7128 8.57765V0.689665H31.3755V9.11689C31.3755 9.41787 31.4133 9.69376 31.489 9.95711C31.5647 10.2205 31.6783 10.4462 31.8297 10.6343C31.9937 10.8349 32.1829 10.9854 32.4226 11.0858C32.6623 11.1986 32.9399 11.2613 33.2679 11.2613H37.2546C37.5826 11.2613 37.898 11.2362 38.2008 11.1861C38.5036 11.1359 38.7812 11.0732 39.0587 10.998C39.3363 10.9227 39.5886 10.8224 39.8157 10.7221C40.0554 10.6218 40.2825 10.5089 40.4717 10.4086C40.5853 10.4838 40.7367 10.5591 40.9385 10.6594C41.153 10.7597 41.3801 10.8475 41.6576 10.9353C41.9226 11.0231 42.238 11.1108 42.5786 11.161C42.9319 11.2237 43.2977 11.2613 43.6888 11.2613H48.0414V0.677124H46.7167ZM41.2413 8.54003C41.0647 8.7156 40.8502 8.87862 40.6231 9.01657C40.4213 8.89116 40.2068 8.72814 40.0049 8.51495C39.7904 8.3143 39.5886 8.10111 39.3993 7.88792C39.2101 7.67473 39.0461 7.47409 38.9073 7.2609C38.7685 7.06025 38.6676 6.89722 38.5919 6.78436C38.983 6.60879 39.3489 6.48338 39.6643 6.42068C39.9923 6.34544 40.3077 6.32036 40.5726 6.32036C40.8124 6.32036 41.0394 6.34544 41.2287 6.3956C41.4179 6.43322 41.5819 6.50847 41.7081 6.57117C41.8343 6.64641 41.9352 6.74674 42.0109 6.83452C42.0866 6.93484 42.1244 7.03517 42.1244 7.14803C42.1244 7.24836 42.0866 7.36122 42.0109 7.52425C41.9352 7.67473 41.8343 7.83776 41.7081 8.01333C41.5819 8.1889 41.4305 8.36446 41.2413 8.54003Z" fill="white"/>
<path d="M125.982 2.2447C125.931 2.14437 125.881 2.06913 125.805 1.99388C125.729 1.91864 125.641 1.86848 125.553 1.81832C125.452 1.7807 125.351 1.75562 125.237 1.75562C125.124 1.75562 125.023 1.7807 124.922 1.81832C124.833 1.85594 124.745 1.91864 124.682 1.99388C124.606 2.06913 124.556 2.14437 124.505 2.2447C124.468 2.34502 124.442 2.44534 124.442 2.55821C124.442 2.7714 124.518 2.9595 124.657 3.10999C124.808 3.26048 124.997 3.33572 125.225 3.33572C125.338 3.33572 125.439 3.31064 125.54 3.27302C125.628 3.22286 125.717 3.17269 125.792 3.09745C125.868 3.02221 125.918 2.94696 125.969 2.84664C126.007 2.75886 126.032 2.64599 126.032 2.54567C126.045 2.44534 126.019 2.34502 125.982 2.2447ZM128.088 2.2447C128.051 2.14437 127.988 2.06913 127.912 1.99388C127.836 1.91864 127.748 1.86848 127.659 1.81832C127.559 1.7807 127.458 1.75562 127.344 1.75562C127.231 1.75562 127.13 1.7807 127.041 1.81832C126.94 1.85594 126.865 1.91864 126.789 1.99388C126.713 2.06913 126.663 2.14437 126.612 2.2447C126.574 2.34502 126.549 2.44534 126.549 2.55821C126.549 2.7714 126.625 2.9595 126.776 3.10999C126.915 3.26048 127.104 3.33572 127.331 3.33572C127.445 3.33572 127.546 3.31064 127.647 3.27302C127.735 3.22286 127.823 3.17269 127.899 3.09745C127.975 3.02221 128.025 2.94696 128.076 2.84664C128.114 2.75886 128.139 2.64599 128.139 2.54567C128.152 2.44534 128.126 2.34502 128.088 2.2447Z" fill="white"/>
<path d="M160.776 7.37372C160.561 6.87211 160.208 6.43321 159.716 6.06954C159.237 5.69333 158.619 5.36729 157.849 5.11648C157.092 4.85314 156.159 4.60233 155.074 4.38915C155.048 4.43931 154.998 4.50201 154.947 4.58979C154.884 4.66504 154.834 4.76536 154.771 4.86568C154.708 4.966 154.645 5.07886 154.594 5.19172C154.544 5.30459 154.481 5.41745 154.455 5.53031C154.481 5.54285 154.518 5.55539 154.594 5.56793C154.67 5.58047 154.746 5.60555 154.834 5.63063C154.418 5.91906 154.102 6.28272 153.888 6.72163C153.673 7.16054 153.56 7.63707 153.56 8.15122C153.56 8.43964 153.597 8.74061 153.673 9.02903C153.749 9.33 153.85 9.61842 154.014 9.91939H151.869C151.453 9.91939 151.087 9.88177 150.784 9.79399C150.481 9.71875 150.216 9.60588 149.989 9.4554V5.56793H148.665V9.09173C148.665 9.36762 148.614 9.5808 148.526 9.71875C148.438 9.85669 148.311 9.93193 148.16 9.93193H146.596C146.179 9.93193 145.814 9.89431 145.511 9.80653C145.208 9.73129 144.943 9.61842 144.716 9.46794V5.56793H143.391V9.09173C143.391 9.36762 143.341 9.5808 143.253 9.71875C143.164 9.85669 143.038 9.93193 142.887 9.93193H129.148C128.934 9.93193 128.77 9.90685 128.643 9.88177C128.517 9.84415 128.416 9.79399 128.341 9.7062C128.265 9.63096 128.214 9.5181 128.202 9.3927C128.177 9.2673 128.164 9.09173 128.164 8.90363V4.33899H126.839V5.11648C126.574 5.19172 126.272 5.27951 125.944 5.36729C125.628 5.46761 125.288 5.58047 124.947 5.70587C124.606 5.83128 124.278 5.98176 123.95 6.15732C123.635 6.33288 123.345 6.53353 123.092 6.75925C122.84 6.98498 122.638 7.24832 122.487 7.53675C122.335 7.82517 122.26 8.16376 122.26 8.52742C122.26 8.92871 122.335 9.25476 122.487 9.53064C122.651 9.80653 122.853 10.0448 123.092 10.2204C123.332 10.3959 123.61 10.5339 123.912 10.6216C124.215 10.6969 124.505 10.747 124.808 10.747C125.149 10.747 125.477 10.7094 125.805 10.6091C126.133 10.5213 126.486 10.3583 126.852 10.1451C126.89 10.2956 126.953 10.4335 127.029 10.5715C127.117 10.6969 127.23 10.8223 127.382 10.9226C127.533 11.0229 127.722 11.0982 127.95 11.1609C128.177 11.2361 128.467 11.2612 128.795 11.2612H143.126C143.442 11.2612 143.694 11.186 143.909 11.048C144.11 10.9226 144.274 10.747 144.401 10.5464C144.64 10.7596 144.93 10.9101 145.271 11.0605C145.612 11.186 146.028 11.2612 146.558 11.2612H148.4C148.715 11.2612 148.967 11.186 149.182 11.048C149.384 10.9226 149.548 10.747 149.674 10.5464C149.914 10.7596 150.204 10.9101 150.544 11.0605C150.885 11.186 151.301 11.2612 151.831 11.2612H161.016C161.041 10.7847 161.041 10.4085 161.066 10.1577C161.079 9.89431 161.091 9.69367 161.091 9.55572C161.104 9.43032 161.104 9.34254 161.104 9.29238V9.19206C161.117 8.47726 161.016 7.87533 160.776 7.37372ZM126.839 9.00395C126.6 9.16698 126.335 9.27984 126.032 9.36762C125.742 9.4554 125.426 9.50556 125.073 9.50556C124.884 9.50556 124.707 9.48048 124.518 9.44286C124.341 9.40524 124.165 9.33 124.013 9.24222C123.862 9.16698 123.748 9.04157 123.66 8.89109C123.559 8.74061 123.521 8.56504 123.521 8.33932C123.521 8.07598 123.597 7.83771 123.761 7.63707C123.925 7.42388 124.14 7.23578 124.43 7.07276C124.72 6.89719 125.073 6.75925 125.477 6.62131C125.893 6.49591 126.335 6.38305 126.827 6.29526V9.00395H126.839ZM157.42 8.52742C157.382 8.70299 157.344 8.87855 157.294 9.04157C157.243 9.21714 157.193 9.38016 157.13 9.54318C157.067 9.69367 157.004 9.81907 156.953 9.91939H155.679C155.578 9.86923 155.465 9.79399 155.364 9.7062C155.25 9.59334 155.149 9.46794 155.048 9.31746C154.96 9.15444 154.872 8.96633 154.809 8.75315C154.746 8.53996 154.72 8.28916 154.72 8.02581C154.72 7.82517 154.746 7.61199 154.809 7.38626C154.872 7.16054 154.96 6.9599 155.074 6.77179C155.2 6.58369 155.338 6.43321 155.528 6.3078C155.704 6.1824 155.919 6.13224 156.159 6.13224C156.31 6.13224 156.461 6.15732 156.613 6.23256C156.777 6.3078 156.903 6.40813 157.029 6.55861C157.155 6.70909 157.256 6.90973 157.344 7.148C157.42 7.38626 157.458 7.69977 157.458 8.0509C157.458 8.20138 157.458 8.35186 157.42 8.52742ZM159.88 9.49302C159.855 9.63096 159.855 9.78145 159.83 9.91939H158.127C158.177 9.81907 158.228 9.69367 158.265 9.55572C158.316 9.41778 158.354 9.2673 158.392 9.10427C158.417 8.94125 158.455 8.77823 158.467 8.60267C158.492 8.4271 158.492 8.26408 158.492 8.08852C158.492 7.82517 158.467 7.57437 158.417 7.31102C158.354 7.06022 158.265 6.83449 158.152 6.63385C158.505 6.73417 158.808 6.87211 159.022 7.04768C159.249 7.22324 159.439 7.41134 159.552 7.62453C159.678 7.83771 159.767 8.06344 159.817 8.3017C159.868 8.5525 159.893 8.79077 159.893 9.02903C159.893 9.19206 159.893 9.34254 159.88 9.49302Z" fill="white"/>
<path d="M145.208 3.59912C144.956 3.59912 144.741 3.5615 144.552 3.49879C144.363 3.43609 144.224 3.36085 144.098 3.26052C143.984 3.1602 143.896 3.04734 143.833 2.92193C143.77 2.79653 143.745 2.67112 143.745 2.55826C143.745 2.2949 143.833 2.1068 144.022 1.99393C144.199 1.88107 144.439 1.8309 144.716 1.8309C144.842 1.8309 144.968 1.8309 145.069 1.85599C145.17 1.86853 145.246 1.88107 145.309 1.88107L145.435 1.04085C145.284 1.01577 145.145 1.00323 145.019 1.00323C144.893 0.99069 144.767 0.978149 144.653 0.978149C144.35 0.978149 144.085 1.01577 143.871 1.10355C143.656 1.1788 143.467 1.27912 143.316 1.39199C143.177 1.51739 143.063 1.65534 143 1.8309C142.925 1.99393 142.899 2.15696 142.899 2.33253C142.899 2.49555 142.925 2.64604 142.975 2.79653C143.026 2.93447 143.076 3.05988 143.152 3.1602C143.215 3.26052 143.278 3.34831 143.366 3.42355C143.442 3.49879 143.505 3.54896 143.555 3.59912H142.433V4.41425H145.486V3.59912H145.208Z" fill="white"/>
<path d="M151.024 13.1422C150.986 13.0544 150.923 12.9666 150.847 12.8913C150.772 12.8161 150.696 12.7659 150.595 12.7158C150.507 12.6782 150.393 12.6531 150.292 12.6531C150.179 12.6531 150.078 12.6782 149.977 12.7158C149.876 12.7534 149.8 12.8161 149.725 12.8913C149.649 12.9666 149.598 13.0544 149.561 13.1422C149.51 13.2425 149.485 13.3428 149.485 13.4557C149.485 13.6689 149.561 13.8695 149.712 14.02C149.863 14.1705 150.04 14.2332 150.28 14.2332C150.381 14.2332 150.494 14.2081 150.582 14.1705C150.683 14.1329 150.759 14.0702 150.835 13.9949C150.91 13.9197 150.961 13.8444 151.011 13.7566C151.049 13.6563 151.074 13.556 151.074 13.4431C151.087 13.3428 151.062 13.2425 151.024 13.1422ZM148.917 13.1422C148.879 13.0544 148.816 12.9666 148.74 12.8913C148.665 12.8161 148.589 12.7659 148.488 12.7158C148.387 12.6782 148.286 12.6531 148.173 12.6531C148.059 12.6531 147.958 12.6782 147.87 12.7158C147.769 12.7534 147.693 12.8161 147.618 12.8913C147.542 12.9666 147.491 13.0544 147.441 13.1422C147.403 13.2425 147.378 13.3428 147.378 13.4557C147.378 13.6689 147.454 13.8695 147.605 14.02C147.756 14.1705 147.933 14.2332 148.16 14.2332C148.274 14.2332 148.375 14.2081 148.476 14.1705C148.576 14.1329 148.652 14.0702 148.728 13.9949C148.804 13.9197 148.854 13.8444 148.904 13.7566C148.942 13.6563 148.968 13.556 148.968 13.4431C148.98 13.3428 148.968 13.2425 148.917 13.1422Z" fill="white"/>
<path d="M113.05 31.6643H111.675V30.4478H111.65C111.436 30.8993 111.095 31.2379 110.641 31.4887C110.174 31.7395 109.669 31.8524 109.127 31.8524C108.13 31.8524 107.398 31.5639 106.932 30.9745C106.465 30.3977 106.238 29.5825 106.238 28.5417V23.9769H107.663V27.9523C107.663 28.8552 107.777 29.5324 108.017 29.9713C108.256 30.4228 108.685 30.661 109.316 30.6861C109.72 30.6861 110.073 30.6109 110.363 30.4478C110.653 30.2974 110.906 30.0716 111.095 29.7957C111.284 29.5198 111.423 29.1812 111.524 28.7925C111.612 28.4037 111.663 27.9774 111.663 27.5134V23.9769H113.088V31.6643H113.05Z" fill="white"/>
<path d="M119.573 25.1182H117.529V29.3192C117.529 29.7707 117.643 30.1093 117.882 30.335C118.122 30.5607 118.412 30.6861 118.728 30.6861C118.955 30.6861 119.144 30.6611 119.295 30.5984C119.447 30.5357 119.585 30.4855 119.699 30.4102V31.6141C119.535 31.6643 119.358 31.7145 119.144 31.7521C118.942 31.8022 118.715 31.8273 118.475 31.8273C117.731 31.8273 117.15 31.6518 116.734 31.2881C116.305 30.9244 116.103 30.3601 116.103 29.5951V25.1056H114.362V23.977H116.103V22.1962L117.529 21.7448V23.977H119.573V25.1182Z" fill="white"/>
<path d="M121.364 20.3654H122.79V25.0806H122.815C123.08 24.6668 123.421 24.3407 123.85 24.1275C124.266 23.9143 124.758 23.8015 125.3 23.8015C126.297 23.8015 127.029 24.0899 127.496 24.6793C127.962 25.2562 128.19 26.0588 128.19 27.0996V31.6644H126.764V27.689C126.764 26.7861 126.65 26.1215 126.423 25.67C126.196 25.2185 125.767 24.9803 125.136 24.9552C124.733 24.9552 124.38 25.0304 124.077 25.1809C123.787 25.3314 123.534 25.5571 123.345 25.833C123.156 26.1089 123.004 26.4475 122.916 26.8363C122.828 27.225 122.777 27.6514 122.777 28.1154V31.6644H121.364V20.3654Z" fill="white"/>
<path d="M131.621 27.8143C131.621 28.1529 131.671 28.4915 131.772 28.8426C131.873 29.1812 132.012 29.4948 132.214 29.7706C132.416 30.0465 132.668 30.2723 132.971 30.4353C133.274 30.6109 133.639 30.6986 134.056 30.6986C134.472 30.6986 134.825 30.6109 135.128 30.4353C135.431 30.2597 135.683 30.0465 135.872 29.7706C136.062 29.4948 136.213 29.1938 136.314 28.8426C136.415 28.5041 136.453 28.1529 136.453 27.8143C136.453 27.4507 136.402 27.087 136.289 26.7484C136.175 26.4098 136.024 26.0963 135.822 25.8329C135.62 25.5696 135.368 25.3438 135.065 25.1808C134.762 25.0178 134.434 24.9425 134.056 24.9425C133.677 24.9425 133.337 25.0178 133.034 25.1808C132.731 25.3438 132.479 25.557 132.277 25.8329C132.075 26.1088 131.911 26.4098 131.797 26.7484C131.671 27.0995 131.621 27.4507 131.621 27.8143ZM130.107 27.8143C130.107 27.2375 130.208 26.6982 130.397 26.1966C130.586 25.7075 130.851 25.2811 131.192 24.93C131.533 24.5789 131.949 24.2904 132.441 24.0898C132.92 23.8891 133.463 23.7888 134.056 23.7888C134.636 23.7888 135.179 23.8891 135.658 24.0898C136.137 24.2904 136.554 24.5663 136.894 24.93C137.235 25.2811 137.5 25.7075 137.689 26.1966C137.878 26.6857 137.967 27.2249 137.967 27.8143C137.967 28.3661 137.866 28.8803 137.677 29.3693C137.487 29.8584 137.222 30.2848 136.869 30.6485C136.529 31.0122 136.112 31.3006 135.633 31.5138C135.153 31.727 134.623 31.8398 134.043 31.8398C133.463 31.8398 132.933 31.727 132.441 31.5138C131.962 31.3006 131.545 31.0122 131.192 30.6485C130.851 30.2848 130.574 29.8584 130.384 29.3693C130.195 28.8928 130.107 28.3661 130.107 27.8143Z" fill="white"/>
<path d="M139.872 23.9769H141.209V25.1557H141.234C141.423 24.7544 141.701 24.4284 142.079 24.165C142.445 23.9142 142.836 23.7888 143.253 23.7888C143.467 23.7888 143.631 23.8014 143.77 23.8139C143.896 23.839 144.048 23.8515 144.199 23.8891V25.1557C144.06 25.1056 143.934 25.068 143.795 25.0554C143.656 25.0303 143.53 25.0303 143.404 25.0303C142.773 25.0303 142.256 25.3062 141.878 25.8705C141.486 26.4349 141.297 27.1873 141.297 28.1529V31.6392H139.872V23.9769Z" fill="white"/>
<path d="M84.6016 30.1469C84.7404 30.2346 84.8918 30.3224 85.0558 30.3851C85.2198 30.4478 85.3838 30.5105 85.5352 30.5482C85.6992 30.5983 85.8506 30.6234 85.9894 30.6485C86.1281 30.6736 86.2543 30.6861 86.3678 30.6861C86.5318 30.6861 86.6959 30.6736 86.8599 30.6359C87.0365 30.5983 87.1879 30.5482 87.3267 30.4604C87.4654 30.3726 87.579 30.2597 87.6673 30.1218C87.7556 29.9838 87.8061 29.8083 87.8061 29.5825C87.8061 29.407 87.7556 29.2565 87.6673 29.1311C87.5664 28.9931 87.4402 28.8803 87.2888 28.7674C87.1374 28.6545 86.9482 28.5542 86.7463 28.4539C86.5445 28.3536 86.3426 28.2532 86.1281 28.1529C85.9263 28.0526 85.7118 27.9397 85.5099 27.8143C85.3081 27.6889 85.1315 27.551 84.9801 27.4005C84.8287 27.25 84.7025 27.0619 84.6016 26.8612C84.5007 26.6606 84.4502 26.4223 84.4502 26.1464C84.4502 25.7451 84.5259 25.4065 84.6647 25.1056C84.8034 24.8046 84.9927 24.5663 85.2324 24.3657C85.4721 24.165 85.7623 24.0271 86.1029 23.9268C86.4309 23.8264 86.7968 23.7888 87.1753 23.7888C87.5159 23.7888 87.8313 23.8139 88.1089 23.8766C88.3864 23.9393 88.6766 24.002 88.9541 24.0898L88.8406 25.3188C88.7523 25.2686 88.6514 25.2184 88.5126 25.1808C88.3738 25.1307 88.235 25.093 88.0836 25.0554C87.9322 25.0178 87.7935 24.9927 87.6547 24.9676C87.5159 24.9425 87.415 24.93 87.3267 24.93C86.9608 24.93 86.6328 25.0052 86.3678 25.1557C86.1029 25.3062 85.9641 25.532 85.9641 25.858C85.9641 26.0587 86.0146 26.2217 86.1029 26.3596C86.2038 26.4976 86.33 26.623 86.4814 26.7233C86.6454 26.8236 86.822 26.9239 87.0239 27.0117C87.2257 27.0995 87.4276 27.1998 87.6295 27.3002C87.8439 27.4005 88.0458 27.5008 88.2476 27.6137C88.4495 27.7265 88.6261 27.8645 88.7775 28.0275C88.9289 28.1905 89.0551 28.3786 89.156 28.6044C89.2569 28.8301 89.3074 29.0935 89.3074 29.407C89.3074 29.8208 89.2317 30.1719 89.0803 30.4729C88.9289 30.7739 88.7271 31.0247 88.4747 31.2253C88.2224 31.426 87.9322 31.5639 87.6168 31.6643C87.3014 31.7646 86.9608 31.8022 86.6202 31.8022C86.2669 31.8022 85.901 31.7771 85.5352 31.7144C85.1693 31.6643 84.8287 31.5389 84.5007 31.3758L84.6016 30.1469Z" fill="white"/>
<path d="M62.6125 27.8143C62.6125 28.1529 62.663 28.4915 62.7513 28.8426C62.8522 29.1812 62.991 29.4948 63.1928 29.7706C63.3947 30.0465 63.647 30.2723 63.9498 30.4353C64.2526 30.6109 64.6184 30.6986 65.0348 30.6986C65.4511 30.6986 65.8044 30.6109 66.1072 30.4353C66.4099 30.2597 66.6623 30.0465 66.8515 29.7706C67.0407 29.4948 67.1921 29.1938 67.2931 28.8426C67.394 28.5041 67.4318 28.1529 67.4318 27.8143C67.4318 27.4507 67.3814 27.087 67.2678 26.7484C67.1543 26.4098 67.0029 26.0963 66.801 25.8329C66.5992 25.5696 66.3469 25.3438 66.0441 25.1808C65.7413 25.0178 65.4133 24.9425 65.0348 24.9425C64.6563 24.9425 64.3157 25.0178 64.0129 25.1808C63.7101 25.3438 63.4578 25.557 63.2559 25.8329C63.054 26.1088 62.89 26.4098 62.7765 26.7484C62.663 27.0995 62.6125 27.4507 62.6125 27.8143ZM61.0859 27.8143C61.0859 27.2375 61.1869 26.6982 61.3761 26.1966C61.5653 25.7075 61.8303 25.2811 62.1709 24.93C62.5116 24.5789 62.9279 24.2904 63.4199 24.0898C63.8993 23.8891 64.4418 23.7888 65.0348 23.7888C65.6151 23.7888 66.1576 23.8891 66.637 24.0898C67.1164 24.2904 67.5328 24.5663 67.8734 24.93C68.214 25.2811 68.479 25.7075 68.6682 26.1966C68.8575 26.6857 68.9458 27.2249 68.9458 27.8143C68.9458 28.3661 68.8449 28.8803 68.6556 29.3693C68.4664 29.8584 68.1888 30.2848 67.8482 30.6485C67.5075 31.0122 67.0912 31.3006 66.6118 31.5138C66.1324 31.727 65.6025 31.8398 65.0222 31.8398C64.4418 31.8398 63.9119 31.727 63.4199 31.5138C62.9405 31.3006 62.5242 31.0122 62.1709 30.6485C61.8177 30.2848 61.5527 29.8584 61.3635 29.3693C61.1869 28.8928 61.0859 28.3661 61.0859 27.8143Z" fill="white"/>
<path d="M70.8633 23.9769H72.2006V25.1557H72.2258C72.4151 24.7544 72.6926 24.4284 73.0711 24.165C73.437 23.9142 73.8281 23.7888 74.2444 23.7888C74.4589 23.7888 74.6229 23.8014 74.7617 23.8139C74.8878 23.839 75.0392 23.8515 75.1906 23.8891V25.1557C75.0518 25.1056 74.9257 25.068 74.7869 25.0554C74.6481 25.0303 74.522 25.0303 74.3958 25.0303C73.765 25.0303 73.2477 25.3062 72.8692 25.8705C72.4781 26.4349 72.2889 27.1873 72.2889 28.1529V31.6392H70.8633V23.9769Z" fill="white"/>
<path d="M40.8882 25.2812C40.6106 25.1683 40.3457 25.0805 40.0933 25.0304C39.8284 24.9802 39.5887 24.9551 39.349 24.9551C38.9579 24.9551 38.6046 25.0304 38.3019 25.1934C37.9991 25.3564 37.7341 25.5696 37.5197 25.8455C37.3052 26.1088 37.1412 26.4224 37.0403 26.761C36.9267 27.0995 36.8762 27.4632 36.8762 27.8269C36.8762 28.1655 36.9267 28.5041 37.015 28.8552C37.1159 29.1938 37.2673 29.5073 37.4692 29.7832C37.6711 30.0591 37.9486 30.2848 38.264 30.4479C38.592 30.6234 38.9831 30.7112 39.4373 30.7112C39.677 30.7112 39.942 30.6736 40.2195 30.5984C40.4971 30.5231 40.7494 30.4102 40.9765 30.2723L41.0774 31.5389C40.7872 31.6768 40.4718 31.7646 40.1564 31.8022C39.841 31.8399 39.5509 31.8524 39.2859 31.8524C38.7056 31.8524 38.1757 31.7395 37.6963 31.5264C37.2169 31.3132 36.8005 31.0247 36.4599 30.6611C36.1067 30.2974 35.8417 29.871 35.6525 29.3819C35.4632 28.8928 35.3623 28.3787 35.3623 27.8269C35.3623 27.25 35.4632 26.7108 35.6525 26.2092C35.8417 25.7201 36.1067 25.2937 36.4473 24.9426C36.7879 24.5914 37.2043 24.303 37.6837 24.1024C38.1631 23.9017 38.7056 23.8014 39.2985 23.8014C39.6013 23.8014 39.9167 23.839 40.2321 23.9017C40.5728 23.9644 40.8377 24.0271 41.0269 24.1024L40.8882 25.2812Z" fill="white"/>
<path d="M2.19509 26.1339H3.69641C3.93611 26.1339 4.17582 26.1089 4.42814 26.0462C4.68046 25.9835 4.90755 25.8831 5.10941 25.7327C5.31127 25.5822 5.4879 25.3941 5.61406 25.1558C5.75283 24.9175 5.81591 24.6165 5.81591 24.278C5.81591 23.9519 5.74022 23.6635 5.57621 23.4377C5.42482 23.212 5.22296 23.0239 4.99587 22.8734C4.75616 22.7355 4.50384 22.6226 4.2389 22.5599C3.97396 22.4972 3.72164 22.4596 3.48193 22.4596H2.19509V26.1339ZM0.681152 21.1428H3.4567C3.99919 21.1428 4.51645 21.193 4.99587 21.3058C5.47528 21.4062 5.89161 21.5817 6.25748 21.8326C6.62335 22.0834 6.9009 22.3969 7.11538 22.7982C7.32985 23.1995 7.43078 23.7011 7.43078 24.303C7.43078 24.8799 7.32985 25.369 7.11538 25.7703C6.9009 26.1716 6.62335 26.4976 6.2701 26.7484C5.91684 26.9992 5.52574 27.1748 5.07156 27.2877C4.61738 27.4005 4.1632 27.4632 3.68379 27.4632H2.19509V31.6643H0.681152V21.1428Z" fill="white"/>
<path d="M15.8835 31.6643H14.5084V30.4478H14.4831C14.2686 30.8993 13.928 31.2379 13.4738 31.4887C13.007 31.7395 12.5024 31.8524 11.9599 31.8524C10.9632 31.8524 10.2315 31.5639 9.76469 30.9745C9.29789 30.3977 9.0708 29.5825 9.0708 28.5417V23.9769H10.4964V27.9523C10.4964 28.8552 10.61 29.5324 10.8371 29.9713C11.0768 30.4228 11.5057 30.661 12.1365 30.6861C12.5402 30.6861 12.8935 30.6109 13.1837 30.4478C13.4738 30.2974 13.7262 30.0716 13.9154 29.7957C14.1046 29.5198 14.2434 29.1812 14.3443 28.7925C14.4327 28.4037 14.4831 27.9774 14.4831 27.5134V23.9769H15.9087V31.6643H15.8835Z" fill="white"/>
<path d="M24.1342 27.7893C24.1469 27.4508 24.109 27.0996 24.0333 26.761C23.9576 26.4224 23.8315 26.1215 23.6674 25.8456C23.4908 25.5822 23.2763 25.3565 23.0114 25.1935C22.7338 25.0304 22.4058 24.9426 22.0273 24.9426C21.6362 24.9426 21.2956 25.0304 21.0181 25.1935C20.7279 25.3565 20.4882 25.5822 20.2989 25.8456C20.1097 26.1215 19.9709 26.4224 19.87 26.7736C19.7817 27.1247 19.7312 27.4758 19.7312 27.8395C19.7312 28.153 19.7691 28.4916 19.8574 28.8302C19.9457 29.1688 20.0718 29.4698 20.2611 29.7582C20.4377 30.0341 20.6774 30.2598 20.9676 30.4479C21.2578 30.6235 21.5984 30.7113 22.0021 30.7113C22.3806 30.7113 22.7086 30.611 22.9736 30.4229C23.2511 30.2347 23.4656 29.9965 23.6422 29.708C23.8188 29.4196 23.945 29.1061 24.0207 28.7675C24.109 28.4164 24.1469 28.0903 24.1342 27.7893ZM18.3056 20.3654H19.7312V25.0304H19.7564C19.9835 24.6793 20.2989 24.3909 20.69 24.1526C21.0938 23.9143 21.6362 23.8015 22.3175 23.8015C22.8726 23.8015 23.3647 23.9018 23.781 24.115C24.1973 24.3282 24.538 24.6041 24.8155 24.9677C25.0931 25.3314 25.2949 25.7452 25.4337 26.2092C25.5725 26.6732 25.6356 27.1749 25.6356 27.689C25.6356 28.2283 25.5725 28.7424 25.4463 29.2315C25.3202 29.7331 25.1183 30.172 24.8534 30.5608C24.5884 30.9496 24.2352 31.2631 23.8188 31.4888C23.4025 31.7271 22.8979 31.8399 22.3175 31.8399C21.9643 31.8399 21.6489 31.8023 21.3713 31.7145C21.0938 31.6393 20.8414 31.5264 20.627 31.4136C20.4125 31.2882 20.2232 31.1502 20.0592 30.9997C19.9078 30.8492 19.7817 30.7113 19.6807 30.5733H19.6555V31.6518H18.293V20.3654H18.3056Z" fill="white"/>
</svg>
