<svg width="162" height="35" viewBox="0 0 162 35" fill="none" xmlns="http://www.w3.org/2000/svg">
<path d="M51.8511 0.689697H50.5138V11.2488H51.8511V0.689697Z" fill="black"/>
<path d="M64.0255 0.677185H65.3502V9.93209C65.3502 10.5842 65.2493 11.1736 65.06 11.7254C64.8708 12.2772 64.5806 12.7412 64.2021 13.1425C63.8237 13.5438 63.3569 13.8447 62.7891 14.0705C62.234 14.2962 61.578 14.4091 60.8589 14.4091C60.1524 14.4091 59.5468 14.2962 59.0295 14.083C58.5123 13.8698 58.0833 13.5814 57.7427 13.2302C57.4021 12.8666 57.1497 12.4527 56.9857 11.9887C56.8217 11.5247 56.7334 11.0357 56.7334 10.509C56.7334 10.2581 56.7586 10.0073 56.7965 9.75652C56.8343 9.49317 56.8974 9.24236 56.9605 9.00409C57.0236 8.75328 57.1119 8.52755 57.2128 8.30182C57.3137 8.07609 57.4147 7.88798 57.5282 7.69988L58.651 8.3269C58.5754 8.45231 58.4997 8.60279 58.4366 8.75328C58.3735 8.91631 58.323 9.07933 58.2726 9.2549C58.2347 9.43047 58.1969 9.60604 58.1716 9.79414C58.1464 9.98225 58.1338 10.1578 58.1338 10.3334C58.1338 10.7096 58.1969 11.0733 58.323 11.4119C58.4492 11.7505 58.6258 12.0389 58.8655 12.2897C59.1052 12.5405 59.3954 12.7286 59.7487 12.8791C60.1019 13.0296 60.5056 13.0923 60.9598 13.0923C61.4518 13.0923 61.8808 13.0171 62.2593 12.8791C62.6377 12.7286 62.9531 12.528 63.2181 12.2521C63.483 11.9762 63.6723 11.6501 63.811 11.2614C63.9498 10.8726 64.0129 10.4212 64.0129 9.93209V0.677185H64.0255Z" fill="black"/>
<path d="M101.595 5.5553V9.9193H100.536C100.17 9.9193 99.8164 9.89422 99.4884 9.81898C99.173 9.74374 98.8828 9.63088 98.6305 9.45531V6.37042H97.2932V9.09165C97.2932 9.36753 97.2554 9.58072 97.1671 9.71866C97.0788 9.8566 96.9526 9.93184 96.7886 9.93184H96.2714C95.9181 9.93184 95.5775 9.90676 95.2621 9.83152C94.9467 9.76882 94.6565 9.65596 94.3916 9.46786V6.98489H93.0543V9.09165C93.0543 9.36753 93.0039 9.58072 92.9156 9.71866C92.8272 9.8566 92.7011 9.93184 92.5497 9.93184H87.4277C87.1754 9.93184 86.9357 9.9193 86.7086 9.90676C86.4815 9.88168 86.267 9.86914 86.0525 9.83152C85.8507 9.80644 85.6741 9.76882 85.4974 9.7312C85.3208 9.68104 85.1821 9.64342 85.0811 9.58072C85.447 9.21705 85.7372 8.86592 85.9642 8.53988C86.1787 8.22637 86.3553 7.93795 86.4689 7.6746C86.595 7.41126 86.6707 7.17299 86.696 6.97235C86.7338 6.75917 86.759 6.5836 86.759 6.43312C86.759 6.21994 86.6833 6.01929 86.5446 5.86881C86.4058 5.70579 86.2292 5.58039 85.9895 5.48006C85.775 5.3672 85.5227 5.3045 85.2577 5.2418C84.9928 5.19164 84.7153 5.16656 84.4503 5.16656C84.0971 5.16656 83.7565 5.19164 83.4537 5.2418C83.1383 5.3045 82.8481 5.3672 82.5706 5.44244C82.3056 5.51768 82.0533 5.60547 81.8389 5.69325C81.6244 5.78103 81.4352 5.86881 81.2838 5.95659C81.2333 5.98167 81.1828 6.04437 81.1324 6.13216C81.0819 6.21994 81.0314 6.3328 80.981 6.4582C80.9305 6.5836 80.8927 6.70901 80.8548 6.83441C80.817 6.95981 80.7791 7.08521 80.7665 7.18553C80.8548 7.28586 80.981 7.43634 81.1198 7.64952C81.2585 7.85017 81.4225 8.06335 81.5992 8.30161C81.7758 8.53988 81.965 8.7656 82.1669 9.00387C82.3687 9.22959 82.5832 9.43023 82.7977 9.58072C82.7472 9.63088 82.6589 9.6685 82.5327 9.70612C82.4066 9.74374 82.2678 9.78136 82.0659 9.81898C81.8893 9.8566 81.6749 9.88168 81.4352 9.89422C81.2081 9.9193 80.9431 9.93184 80.6782 9.93184H69.7655C69.6141 9.93184 69.5006 9.90676 69.3996 9.86914C69.3113 9.81898 69.223 9.74374 69.1726 9.65596C69.1221 9.55564 69.0843 9.41769 69.059 9.24213C69.0338 9.06657 69.0212 8.84084 69.0212 8.59004V0.689697H67.6839V9.11673C67.6839 9.41769 67.7217 9.69358 67.7974 9.95692C67.8731 10.2203 67.9867 10.446 68.1507 10.6341C68.3021 10.8347 68.5039 10.9852 68.731 11.0855C68.9707 11.1984 69.2483 11.2611 69.5889 11.2611H80.6025C80.9305 11.2611 81.2459 11.236 81.5487 11.1859C81.8515 11.1357 82.1416 11.073 82.4066 10.9978C82.6715 10.9225 82.9238 10.8222 83.1635 10.7219C83.3906 10.6216 83.6177 10.5087 83.8195 10.4084C83.9457 10.4836 84.0845 10.5589 84.2863 10.6592C84.5008 10.7595 84.7279 10.8473 85.0054 10.9351C85.2704 11.0228 85.5858 11.1106 85.939 11.1608C86.2796 11.2235 86.6455 11.2611 87.0492 11.2611H92.8272C93.1426 11.2611 93.4076 11.1859 93.622 11.0605C93.8239 10.9225 93.9879 10.7595 94.1141 10.5589C94.2654 10.6843 94.4295 10.7971 94.5935 10.8849C94.7701 10.9727 94.9467 11.0479 95.1359 11.0981C95.3126 11.1608 95.5018 11.1859 95.7037 11.2235C95.9055 11.2486 96.0947 11.2611 96.284 11.2611H97.0914C97.3942 11.2611 97.6591 11.1859 97.861 11.0605C98.0754 10.9351 98.2268 10.772 98.353 10.5714C98.517 10.7093 98.681 10.8222 98.8702 10.91C99.0468 10.9978 99.2361 11.073 99.4379 11.1232C99.6272 11.1733 99.8164 11.2109 100.006 11.236C100.182 11.2611 100.372 11.2611 100.523 11.2611H102.945V5.5553H101.595ZM84.5765 8.53988C84.3999 8.71544 84.1854 8.87846 83.9583 9.01641C83.7565 8.891 83.542 8.72798 83.3401 8.5148C83.1257 8.31415 82.9238 8.10097 82.7346 7.88779C82.558 7.6746 82.3813 7.47396 82.2426 7.26078C82.1038 7.06013 82.0029 6.89711 81.9398 6.78425C82.3183 6.60868 82.6841 6.48328 83.0121 6.42058C83.3275 6.34534 83.6429 6.32026 83.9205 6.32026C84.1602 6.32026 84.3873 6.34534 84.5765 6.3955C84.7657 6.43312 84.9297 6.50836 85.0559 6.57106C85.1821 6.6463 85.283 6.74663 85.3587 6.83441C85.4344 6.93473 85.4722 7.03505 85.4722 7.14791C85.4722 7.24824 85.4344 7.3611 85.3587 7.52412C85.283 7.6746 85.1947 7.83763 85.0685 8.01319C84.9171 8.18875 84.7657 8.36432 84.5765 8.53988Z" fill="black"/>
<path d="M84.5387 2.62092C84.5009 2.52059 84.4378 2.44535 84.3621 2.37011C84.2864 2.29486 84.1981 2.2447 84.1098 2.19454C84.0088 2.15692 83.9079 2.13184 83.7943 2.13184C83.6808 2.13184 83.5799 2.15692 83.4915 2.19454C83.3906 2.23216 83.3149 2.29486 83.2392 2.37011C83.1635 2.44535 83.1131 2.52059 83.0626 2.62092C83.0247 2.7087 82.9995 2.82156 82.9995 2.92189C82.9995 3.14762 83.0752 3.33573 83.2266 3.48621C83.378 3.6367 83.5546 3.71194 83.7817 3.71194C83.8953 3.71194 83.9962 3.68686 84.0971 3.6367C84.1854 3.59908 84.2738 3.54891 84.3495 3.47367C84.4252 3.39843 84.4756 3.32319 84.5261 3.22286C84.5639 3.13508 84.5892 3.02221 84.5892 2.90935C84.6018 2.82156 84.5766 2.7087 84.5387 2.62092Z" fill="black"/>
<path d="M97.6465 2.62124C97.6087 2.52092 97.5456 2.44567 97.4699 2.37043C97.3942 2.29519 97.3059 2.24502 97.2176 2.19486C97.1166 2.15724 97.0157 2.13216 96.9022 2.13216C96.7886 2.13216 96.6877 2.15724 96.5994 2.19486C96.4985 2.23248 96.4228 2.29519 96.3471 2.37043C96.2714 2.44567 96.2209 2.52092 96.1704 2.62124C96.1326 2.70902 96.1074 2.82189 96.1074 2.93475C96.1074 3.14794 96.1831 3.33605 96.3218 3.48654C96.4732 3.63702 96.6625 3.71227 96.8896 3.71227C97.0031 3.71227 97.104 3.68718 97.205 3.63702C97.2933 3.5994 97.3816 3.54924 97.4573 3.474C97.533 3.39875 97.5835 3.32351 97.6339 3.22318C97.6718 3.1354 97.697 3.02254 97.697 2.92221C97.7096 2.82189 97.6844 2.70902 97.6465 2.62124ZM98.6937 0.639837C98.6558 0.552054 98.5927 0.46427 98.517 0.389027C98.4413 0.313784 98.353 0.263622 98.2647 0.213459C98.1638 0.175838 98.0629 0.150757 97.9493 0.150757C97.8358 0.150757 97.7348 0.175838 97.6339 0.213459C97.5456 0.251081 97.4573 0.313784 97.3942 0.389027C97.3311 0.46427 97.268 0.552054 97.2176 0.639837C97.1797 0.740161 97.1545 0.840486 97.1545 0.95335C97.1545 1.16654 97.2302 1.36719 97.369 1.51767C97.5204 1.66816 97.7096 1.73086 97.9367 1.73086C98.0502 1.73086 98.1512 1.70578 98.2521 1.66816C98.3404 1.63054 98.4287 1.56784 98.5044 1.49259C98.5801 1.41735 98.6306 1.34211 98.6811 1.24178C98.7189 1.154 98.7441 1.05367 98.7441 0.94081C98.7441 0.827945 98.7315 0.740161 98.6937 0.639837ZM99.7534 2.62124C99.7156 2.52092 99.6525 2.44567 99.5768 2.37043C99.5011 2.29519 99.4254 2.24502 99.3245 2.19486C99.2235 2.15724 99.1226 2.13216 99.0091 2.13216C98.8955 2.13216 98.7946 2.15724 98.7063 2.19486C98.6054 2.23248 98.5297 2.29519 98.454 2.37043C98.3783 2.44567 98.3278 2.52092 98.2773 2.62124C98.2395 2.70902 98.2143 2.82189 98.2143 2.93475C98.2143 3.14794 98.29 3.33605 98.4413 3.48654C98.5927 3.63702 98.7694 3.71227 98.9965 3.71227C99.11 3.71227 99.2109 3.68718 99.3119 3.63702C99.4128 3.5994 99.4885 3.54924 99.5642 3.474C99.6399 3.39875 99.6903 3.32351 99.7408 3.22318C99.7787 3.1354 99.8039 3.02254 99.8039 2.92221C99.8165 2.82189 99.7913 2.70902 99.7534 2.62124Z" fill="black"/>
<path d="M110.111 0.689729C110.073 0.677188 110.01 0.664648 109.934 0.664648C109.859 0.652107 109.77 0.652107 109.682 0.652107C109.468 0.652107 109.291 0.689729 109.152 0.777512C109.013 0.865296 108.95 1.00324 108.95 1.19135C108.95 1.27913 108.976 1.37946 109.013 1.46724C109.064 1.55502 109.127 1.64281 109.215 1.71805C109.304 1.79329 109.417 1.856 109.556 1.89362C109.695 1.94378 109.859 1.96886 110.035 1.96886H110.25V2.58335H107.954V1.96886H108.799C108.761 1.94378 108.711 1.89362 108.648 1.84346C108.597 1.79329 108.547 1.71805 108.496 1.64281C108.446 1.56757 108.408 1.46724 108.37 1.36692C108.332 1.26659 108.32 1.15373 108.32 1.01578C108.32 0.877836 108.345 0.764972 108.395 0.639567C108.446 0.514161 108.521 0.413837 108.635 0.313513C108.749 0.225729 108.887 0.150486 109.051 0.0877836C109.215 0.0376216 109.405 0 109.632 0C109.72 0 109.808 0 109.897 0.0125405C109.998 0.0125405 110.098 0.025081 110.212 0.0501621L110.111 0.689729ZM113.606 0.677188V11.2363H105.178V9.91955H108.458V3.53643H109.796V9.91955H112.281V0.677188H113.606Z" fill="black"/>
<path d="M117.403 0.689697H116.078V11.2488H117.403V0.689697Z" fill="black"/>
<path d="M29.1678 20.3654H27.7422V31.6518H29.1678V20.3654Z" fill="black"/>
<path d="M31.9432 23.977H33.3689V31.6518H31.9432V23.977ZM33.4698 22.259H31.8676V20.6663H33.4698V22.259Z" fill="black"/>
<path d="M45.7324 21.1428H47.3977L49.9209 30.1469H49.9461L52.2171 21.1428H54.3618L56.6579 30.1469H56.6832L59.2064 21.1428H60.8213L57.5663 31.6518H55.5982L53.302 22.4721H53.2768L50.9554 31.6518H48.9242L45.7324 21.1428Z" fill="black"/>
<path d="M76.7546 20.3654H78.1803V27.0871L81.2838 23.977H83.2141L79.6311 27.3755L83.6809 31.6518H81.6245L78.1803 27.7141V31.6518H76.7546V20.3654Z" fill="black"/>
<path d="M99.5011 22.5599L97.4068 27.7768H101.621L99.5011 22.5599ZM98.7694 21.1428H100.359L104.825 31.6518H103.172L102.087 29.0057H96.9148L95.8424 31.6518H94.2528L98.7694 21.1428Z" fill="black"/>
<path d="M145.94 23.977H147.365V31.6518H145.94V23.977ZM147.466 22.259H145.864V20.6663H147.466V22.259Z" fill="black"/>
<path d="M154.077 25.1182H152.033V29.3192C152.033 29.7707 152.147 30.1093 152.387 30.335C152.626 30.5607 152.916 30.6861 153.232 30.6861C153.459 30.6861 153.648 30.6611 153.8 30.5984C153.951 30.5357 154.09 30.4855 154.203 30.4102V31.6141C154.039 31.6643 153.863 31.7145 153.648 31.7521C153.446 31.8022 153.219 31.8273 152.98 31.8273C152.235 31.8273 151.655 31.6518 151.239 31.2881C150.81 30.9244 150.608 30.3601 150.608 29.5951V25.1056H148.867V23.977H150.608V22.1962L152.033 21.7448V23.977H154.077V25.1182Z" fill="black"/>
<path d="M155.288 33.7334C155.377 33.7585 155.477 33.7961 155.604 33.8086C155.717 33.8337 155.843 33.8463 155.957 33.8463C156.272 33.8463 156.537 33.7585 156.752 33.5704C156.979 33.3823 157.143 33.1816 157.282 32.9559C157.42 32.7302 157.521 32.517 157.572 32.3163C157.635 32.1157 157.66 32.0028 157.66 31.9526C157.66 31.8899 157.622 31.7645 157.559 31.589L157.395 31.1375L154.771 23.9769H156.335L158.417 30.3349H158.442L160.562 23.9769H162L159.149 31.8147C159.023 32.1784 158.884 32.5546 158.732 32.9308C158.581 33.307 158.392 33.6456 158.177 33.9591C157.95 34.2601 157.685 34.5109 157.357 34.7116C157.042 34.8997 156.651 35 156.184 35C155.957 35 155.768 34.9874 155.616 34.9624C155.477 34.9373 155.339 34.9122 155.212 34.8871L155.288 33.7334Z" fill="black"/>
<path d="M3.68388 2.2447C3.64603 2.14437 3.58295 2.06913 3.50726 1.99388C3.43156 1.91864 3.35586 1.86848 3.25493 1.81832C3.16662 1.7807 3.05308 1.75562 2.95215 1.75562C2.8386 1.75562 2.73767 1.7807 2.63674 1.81832C2.53581 1.85594 2.46012 1.91864 2.38442 1.99388C2.30872 2.06913 2.25826 2.14437 2.22041 2.2447C2.16995 2.34502 2.14471 2.44534 2.14471 2.55821C2.14471 2.7714 2.22041 2.9595 2.3718 3.10999C2.5232 3.26048 2.69982 3.33572 2.93953 3.33572C3.04046 3.33572 3.154 3.31064 3.24232 3.27302C3.34325 3.22286 3.41894 3.17269 3.49464 3.09745C3.57034 3.02221 3.6208 2.94696 3.67127 2.84664C3.70911 2.75886 3.73435 2.64599 3.73435 2.54567C3.74696 2.44534 3.73435 2.34502 3.68388 2.2447ZM5.79078 2.2447C5.75293 2.14437 5.70246 2.06913 5.61415 1.99388C5.53845 1.91864 5.46276 1.86848 5.36183 1.81832C5.27351 1.7807 5.17258 1.75562 5.05904 1.75562C4.94549 1.75562 4.84457 1.7807 4.74364 1.81832C4.65532 1.85594 4.56701 1.91864 4.49131 1.99388C4.42823 2.06913 4.36515 2.14437 4.3273 2.2447C4.28946 2.34502 4.26422 2.44534 4.26422 2.55821C4.26422 2.7714 4.33992 2.9595 4.4787 3.10999C4.63009 3.26048 4.81933 3.33572 5.04642 3.33572C5.15997 3.33572 5.2609 3.31064 5.34921 3.27302C5.45014 3.22286 5.52584 3.17269 5.60153 3.09745C5.67723 3.02221 5.72769 2.94696 5.77816 2.84664C5.82862 2.75886 5.85386 2.64599 5.85386 2.54567C5.86647 2.44534 5.84124 2.34502 5.79078 2.2447Z" fill="black"/>
<path d="M29.193 7.87527C29.1426 7.63701 29.0669 7.41128 28.9659 7.17302C28.865 6.94729 28.7389 6.72157 28.5749 6.52093C28.4235 6.30774 28.2342 6.11964 28.0198 5.95662C27.8053 5.79359 27.5656 5.68073 27.3007 5.58041C27.0357 5.49263 26.7329 5.44247 26.3923 5.44247C26.2283 5.44247 26.0769 5.46755 25.8877 5.49263C25.7111 5.51771 25.5218 5.59295 25.32 5.68073C25.1307 5.76851 24.9289 5.89392 24.727 6.06948C24.5252 6.2325 24.3233 6.44569 24.1215 6.70903C23.9322 6.97238 23.743 7.31096 23.5664 7.68717C23.3897 8.06337 23.2257 8.51482 23.087 9.04151C22.9987 9.34248 22.8346 9.5682 22.5949 9.70614C22.3552 9.84409 22.0777 9.91933 21.7875 9.91933H6.86301C6.64854 9.91933 6.48454 9.89425 6.34576 9.86917C6.2196 9.83155 6.11868 9.78139 6.04298 9.6936C5.96729 9.61836 5.91682 9.5055 5.90421 9.3801C5.89159 9.2547 5.87898 9.07913 5.87898 8.89103V4.33893H4.55431V5.11642C4.28938 5.19166 3.9866 5.27944 3.67121 5.36723C3.34319 5.46755 3.01518 5.58041 2.67456 5.70581C2.34654 5.83121 2.01853 5.9817 1.69052 6.15726C1.37513 6.33282 1.08496 6.53347 0.832645 6.75919C0.580328 6.98492 0.378475 7.24826 0.227085 7.53669C0.0630791 7.82511 0 8.1637 0 8.52736C0 8.92865 0.075695 9.2547 0.227085 9.53058C0.378475 9.80647 0.580328 10.0447 0.832645 10.2203C1.07235 10.3959 1.34989 10.5338 1.64006 10.6216C1.94284 10.6968 2.24562 10.747 2.53578 10.747C2.87641 10.747 3.21704 10.7094 3.54505 10.609C3.87306 10.5213 4.21369 10.3582 4.59216 10.1451C4.63001 10.2955 4.69309 10.4335 4.76878 10.5714C4.84448 10.6968 4.97064 10.8222 5.12203 10.9225C5.27342 11.0229 5.46265 11.0981 5.68974 11.1608C5.91682 11.2361 6.20699 11.2611 6.535 11.2611H22.0272C22.2291 11.2611 22.4057 11.2361 22.5697 11.1984C22.7337 11.1734 22.8851 11.1106 23.0239 11.0229C23.15 10.9476 23.2888 10.8473 23.4024 10.7094C23.5159 10.584 23.6168 10.4209 23.7178 10.2328C23.8439 10.3582 23.9827 10.4836 24.1593 10.609C24.3359 10.747 24.5252 10.8598 24.7523 10.9727C24.9793 11.073 25.2317 11.1483 25.5092 11.2235C25.7868 11.2988 26.0895 11.3238 26.4175 11.3238C26.7582 11.3238 27.061 11.2862 27.3259 11.1984C27.5908 11.1232 27.8431 11.0103 28.045 10.8598C28.2595 10.7219 28.4487 10.5589 28.6001 10.3708C28.7641 10.1827 28.8776 9.99457 28.9786 9.78139C29.0795 9.58074 29.1552 9.36756 29.193 9.16691C29.2435 8.95373 29.2687 8.75309 29.2687 8.56498C29.2687 8.33926 29.2435 8.11354 29.193 7.87527ZM4.55431 9.00389C4.32723 9.16691 4.04968 9.27978 3.75952 9.36756C3.46935 9.45534 3.15396 9.5055 2.80071 9.5055C2.61148 9.5055 2.42224 9.48042 2.233 9.4428C2.05638 9.40518 1.89237 9.32994 1.74098 9.24216C1.58959 9.17945 1.47605 9.05405 1.38774 8.90357C1.29943 8.75309 1.24897 8.57752 1.24897 8.3518C1.24897 8.08846 1.32466 7.85019 1.48867 7.64955C1.65267 7.43636 1.87976 7.24826 2.16992 7.08524C2.46009 6.90967 2.81333 6.77173 3.21704 6.63379C3.62074 6.50839 4.07491 6.39552 4.55431 6.30774V9.00389ZM27.9441 9.32994C27.8684 9.5055 27.7296 9.6309 27.5782 9.73122C27.4142 9.83155 27.2123 9.89425 26.9853 9.93187C26.7582 9.96949 26.5059 9.99457 26.2283 9.99457C26.0265 9.99457 25.8246 9.96949 25.6101 9.93187C25.3957 9.89425 25.1938 9.84409 25.0046 9.78139C24.8153 9.71868 24.6387 9.65598 24.4999 9.5682C24.3612 9.49296 24.2602 9.43026 24.2098 9.35502C24.2729 9.01643 24.3612 8.69039 24.4747 8.36434C24.6009 8.05083 24.7396 7.76241 24.9415 7.5116C25.1181 7.2608 25.3326 7.06016 25.5723 6.90967C25.812 6.74665 26.0769 6.68395 26.3545 6.68395C26.6572 6.68395 26.9222 6.75919 27.1366 6.89713C27.3511 7.03508 27.5277 7.21064 27.6665 7.41128C27.8053 7.61193 27.9188 7.82511 27.9819 8.06337C28.0576 8.2891 28.0828 8.50228 28.0828 8.67785C28.0702 8.95373 28.0324 9.17945 27.9441 9.32994Z" fill="black"/>
<path d="M46.7168 0.677185V9.91955H44.0926C43.8403 9.91955 43.6006 9.90701 43.3735 9.89447C43.1464 9.86939 42.9319 9.85685 42.7175 9.81922C42.5156 9.79414 42.339 9.75652 42.1623 9.7189C41.9857 9.66874 41.8469 9.63112 41.746 9.56841C42.1119 9.20474 42.402 8.8536 42.6291 8.52755C42.8436 8.21404 43.0202 7.92561 43.1338 7.66225C43.2599 7.3989 43.3356 7.16063 43.3609 6.95999C43.3987 6.7468 43.424 6.57123 43.424 6.42074C43.424 6.20755 43.3483 6.00691 43.2095 5.85642C43.0707 5.69339 42.8941 5.56799 42.6544 5.46766C42.4399 5.3548 42.1876 5.2921 41.9226 5.22939C41.6577 5.17923 41.3801 5.15415 41.1152 5.15415C40.762 5.15415 40.4213 5.17923 40.1185 5.22939C39.8031 5.2921 39.513 5.3548 39.2354 5.43004C38.9705 5.50528 38.7181 5.59307 38.5037 5.68085C38.2892 5.76864 38.0999 5.85642 37.9486 5.9442C37.8981 5.96928 37.8476 6.03199 37.7972 6.11977C37.7467 6.20755 37.6962 6.32042 37.6458 6.44582C37.5953 6.57123 37.5575 6.69663 37.5196 6.82204C37.4818 6.94744 37.4439 7.07285 37.4313 7.17317C37.5196 7.2735 37.6458 7.42398 37.7845 7.63717C37.9233 7.83782 38.0873 8.05101 38.264 8.28928C38.4406 8.52755 38.6298 8.75328 38.8317 8.99155C39.0335 9.21728 39.248 9.41793 39.4625 9.56841C39.412 9.61858 39.3237 9.6562 39.1976 9.69382C39.0714 9.73144 38.92 9.76906 38.7308 9.80668C38.5541 9.84431 38.3397 9.86939 38.0999 9.88193C37.8729 9.90701 37.6079 9.91955 37.343 9.91955H33.4572C33.3058 9.91955 33.1797 9.89447 33.0913 9.85685C32.9904 9.80668 32.9147 9.73144 32.8643 9.64366C32.8012 9.54333 32.7633 9.40539 32.7381 9.22982C32.7129 9.05425 32.7129 8.82852 32.7129 8.57771V0.689726H31.3755V9.11695C31.3755 9.41793 31.4134 9.69382 31.4891 9.95717C31.5648 10.2205 31.6783 10.4462 31.8297 10.6344C31.9937 10.835 32.183 10.9855 32.4227 11.0858C32.6624 11.1987 32.94 11.2614 33.268 11.2614H37.2547C37.5827 11.2614 37.8981 11.2363 38.2009 11.1861C38.5037 11.136 38.7812 11.0733 39.0588 10.998C39.3363 10.9228 39.5887 10.8225 39.8157 10.7221C40.0554 10.6218 40.2825 10.509 40.4718 10.4086C40.5853 10.4839 40.7367 10.5591 40.9386 10.6594C41.1531 10.7598 41.3801 10.8475 41.6577 10.9353C41.9226 11.0231 42.238 11.1109 42.5787 11.1611C42.9319 11.2238 43.2978 11.2614 43.6889 11.2614H48.0415V0.677185H46.7168ZM41.2414 8.54009C41.0647 8.71566 40.8503 8.87868 40.6232 9.01663C40.4213 8.89123 40.2068 8.7282 40.005 8.51501C39.7905 8.31436 39.5887 8.10117 39.3994 7.88798C39.2102 7.67479 39.0462 7.47415 38.9074 7.26096C38.7686 7.06031 38.6677 6.89728 38.592 6.78442C38.9831 6.60885 39.3489 6.48345 39.6643 6.42074C39.9924 6.3455 40.3078 6.32042 40.5727 6.32042C40.8124 6.32042 41.0395 6.3455 41.2287 6.39566C41.418 6.43328 41.582 6.50853 41.7082 6.57123C41.8343 6.64647 41.9353 6.7468 42.0109 6.83458C42.0866 6.9349 42.1245 7.03523 42.1245 7.14809C42.1245 7.24842 42.0866 7.36128 42.0109 7.52431C41.9353 7.67479 41.8343 7.83782 41.7082 8.01339C41.582 8.18896 41.4306 8.36452 41.2414 8.54009Z" fill="black"/>
<path d="M125.982 2.2447C125.931 2.14437 125.881 2.06913 125.805 1.99388C125.729 1.91864 125.641 1.86848 125.553 1.81832C125.452 1.7807 125.351 1.75562 125.237 1.75562C125.124 1.75562 125.023 1.7807 124.922 1.81832C124.834 1.85594 124.745 1.91864 124.682 1.99388C124.607 2.06913 124.556 2.14437 124.506 2.2447C124.468 2.34502 124.443 2.44534 124.443 2.55821C124.443 2.7714 124.518 2.9595 124.657 3.10999C124.808 3.26048 124.998 3.33572 125.225 3.33572C125.338 3.33572 125.439 3.31064 125.54 3.27302C125.628 3.22286 125.717 3.17269 125.792 3.09745C125.868 3.02221 125.919 2.94696 125.969 2.84664C126.007 2.75886 126.032 2.64599 126.032 2.54567C126.045 2.44534 126.02 2.34502 125.982 2.2447ZM128.089 2.2447C128.051 2.14437 127.988 2.06913 127.912 1.99388C127.836 1.91864 127.748 1.86848 127.66 1.81832C127.559 1.7807 127.458 1.75562 127.344 1.75562C127.231 1.75562 127.13 1.7807 127.041 1.81832C126.94 1.85594 126.865 1.91864 126.789 1.99388C126.713 2.06913 126.663 2.14437 126.612 2.2447C126.575 2.34502 126.549 2.44534 126.549 2.55821C126.549 2.7714 126.625 2.9595 126.776 3.10999C126.915 3.26048 127.104 3.33572 127.332 3.33572C127.445 3.33572 127.546 3.31064 127.647 3.27302C127.735 3.22286 127.824 3.17269 127.899 3.09745C127.975 3.02221 128.025 2.94696 128.076 2.84664C128.114 2.75886 128.139 2.64599 128.139 2.54567C128.152 2.44534 128.126 2.34502 128.089 2.2447Z" fill="black"/>
<path d="M160.776 7.37366C160.562 6.87205 160.208 6.43315 159.716 6.06948C159.237 5.69327 158.619 5.36723 157.849 5.11642C157.092 4.85308 156.159 4.60227 155.074 4.38909C155.048 4.43925 154.998 4.50195 154.948 4.58973C154.884 4.66497 154.834 4.7653 154.771 4.86562C154.708 4.96594 154.645 5.0788 154.594 5.19166C154.544 5.30453 154.481 5.41739 154.456 5.53025C154.481 5.54279 154.519 5.55533 154.594 5.56787C154.67 5.58041 154.746 5.60549 154.834 5.63057C154.418 5.919 154.102 6.28266 153.888 6.72157C153.673 7.16048 153.56 7.63701 153.56 8.15116C153.56 8.43958 153.598 8.74055 153.673 9.02897C153.749 9.32994 153.85 9.61836 154.014 9.91933H151.869C151.453 9.91933 151.087 9.88171 150.784 9.79393C150.482 9.71868 150.217 9.60582 149.99 9.45534V5.56787H148.665V9.09167C148.665 9.36756 148.614 9.58074 148.526 9.71868C148.438 9.85663 148.312 9.93187 148.16 9.93187H146.596C146.18 9.93187 145.814 9.89425 145.511 9.80647C145.208 9.73122 144.943 9.61836 144.716 9.46788V5.56787H143.391V9.09167C143.391 9.36756 143.341 9.58074 143.253 9.71868C143.164 9.85663 143.038 9.93187 142.887 9.93187H129.148C128.934 9.93187 128.77 9.90679 128.644 9.88171C128.517 9.84409 128.416 9.79393 128.341 9.70614C128.265 9.6309 128.215 9.51804 128.202 9.39264C128.177 9.26724 128.164 9.09167 128.164 8.90357V4.33893H126.84V5.11642C126.575 5.19166 126.272 5.27944 125.944 5.36723C125.628 5.46755 125.288 5.58041 124.947 5.70581C124.607 5.83121 124.278 5.9817 123.95 6.15726C123.635 6.33282 123.345 6.53347 123.093 6.75919C122.84 6.98492 122.638 7.24826 122.487 7.53669C122.336 7.82511 122.26 8.1637 122.26 8.52736C122.26 8.92865 122.336 9.2547 122.487 9.53058C122.651 9.80647 122.853 10.0447 123.093 10.2203C123.332 10.3959 123.61 10.5338 123.913 10.6216C124.215 10.6968 124.506 10.747 124.808 10.747C125.149 10.747 125.477 10.7094 125.805 10.609C126.133 10.5213 126.486 10.3582 126.852 10.1451C126.89 10.2955 126.953 10.4335 127.029 10.5714C127.117 10.6968 127.231 10.8222 127.382 10.9225C127.533 11.0229 127.723 11.0981 127.95 11.1608C128.177 11.2361 128.467 11.2611 128.795 11.2611H143.127C143.442 11.2611 143.694 11.1859 143.909 11.0479C144.111 10.9225 144.275 10.747 144.401 10.5463C144.64 10.7595 144.931 10.91 145.271 11.0605C145.612 11.1859 146.028 11.2611 146.558 11.2611H148.4C148.715 11.2611 148.968 11.1859 149.182 11.0479C149.384 10.9225 149.548 10.747 149.674 10.5463C149.914 10.7595 150.204 10.91 150.545 11.0605C150.885 11.1859 151.302 11.2611 151.831 11.2611H161.016C161.041 10.7846 161.041 10.4084 161.066 10.1576C161.079 9.89425 161.091 9.6936 161.091 9.55566C161.104 9.43026 161.104 9.34248 161.104 9.29232V9.19199C161.117 8.4772 161.016 7.87527 160.776 7.37366ZM126.84 9.00389C126.6 9.16691 126.335 9.27978 126.032 9.36756C125.742 9.45534 125.427 9.5055 125.073 9.5055C124.884 9.5055 124.707 9.48042 124.518 9.4428C124.342 9.40518 124.165 9.32994 124.014 9.24216C123.862 9.16691 123.749 9.04151 123.66 8.89103C123.559 8.74055 123.522 8.56498 123.522 8.33926C123.522 8.07592 123.597 7.83765 123.761 7.63701C123.925 7.42382 124.14 7.23572 124.43 7.0727C124.72 6.89713 125.073 6.75919 125.477 6.62125C125.893 6.49585 126.335 6.38298 126.827 6.2952V9.00389H126.84ZM157.42 8.52736C157.382 8.70293 157.345 8.87849 157.294 9.04151C157.244 9.21708 157.193 9.3801 157.13 9.54312C157.067 9.6936 157.004 9.81901 156.953 9.91933H155.679C155.578 9.86917 155.465 9.79393 155.364 9.70614C155.25 9.59328 155.149 9.46788 155.049 9.3174C154.96 9.15437 154.872 8.96627 154.809 8.75309C154.746 8.5399 154.72 8.2891 154.72 8.02575C154.72 7.82511 154.746 7.61193 154.809 7.3862C154.872 7.16048 154.96 6.95983 155.074 6.77173C155.2 6.58363 155.339 6.43315 155.528 6.30774C155.705 6.18234 155.919 6.13218 156.159 6.13218C156.31 6.13218 156.461 6.15726 156.613 6.2325C156.777 6.30774 156.903 6.40806 157.029 6.55855C157.155 6.70903 157.256 6.90967 157.345 7.14794C157.42 7.3862 157.458 7.69971 157.458 8.05083C157.458 8.20132 157.458 8.3518 157.42 8.52736ZM159.88 9.49296C159.855 9.6309 159.855 9.78139 159.83 9.91933H158.127C158.177 9.81901 158.228 9.6936 158.266 9.55566C158.316 9.41772 158.354 9.26724 158.392 9.10421C158.417 8.94119 158.455 8.77817 158.467 8.6026C158.493 8.42704 158.493 8.26402 158.493 8.08846C158.493 7.82511 158.467 7.57431 158.417 7.31096C158.354 7.06016 158.266 6.83443 158.152 6.63379C158.505 6.73411 158.808 6.87205 159.022 7.04762C159.25 7.22318 159.439 7.41128 159.552 7.62447C159.679 7.83765 159.767 8.06337 159.817 8.30164C159.868 8.55244 159.893 8.79071 159.893 9.02897C159.893 9.192 159.893 9.34248 159.88 9.49296Z" fill="black"/>
<path d="M145.208 3.59912C144.956 3.59912 144.741 3.5615 144.552 3.49879C144.363 3.43609 144.224 3.36085 144.098 3.26052C143.984 3.1602 143.896 3.04734 143.833 2.92193C143.77 2.79653 143.745 2.67112 143.745 2.55826C143.745 2.2949 143.833 2.1068 144.022 1.99393C144.199 1.88107 144.439 1.8309 144.716 1.8309C144.842 1.8309 144.968 1.8309 145.069 1.85599C145.17 1.86853 145.246 1.88107 145.309 1.88107L145.435 1.04085C145.284 1.01577 145.145 1.00323 145.019 1.00323C144.893 0.99069 144.767 0.978149 144.653 0.978149C144.35 0.978149 144.085 1.01577 143.871 1.10355C143.656 1.1788 143.467 1.27912 143.316 1.39199C143.177 1.51739 143.063 1.65534 143 1.8309C142.925 1.99393 142.899 2.15696 142.899 2.33253C142.899 2.49555 142.925 2.64604 142.975 2.79653C143.026 2.93447 143.076 3.05988 143.152 3.1602C143.215 3.26052 143.278 3.34831 143.366 3.42355C143.442 3.49879 143.505 3.54896 143.555 3.59912H142.433V4.41425H145.486V3.59912H145.208Z" fill="black"/>
<path d="M151.024 13.1422C150.986 13.0544 150.923 12.9666 150.848 12.8913C150.772 12.8161 150.696 12.7659 150.595 12.7158C150.507 12.6782 150.393 12.6531 150.292 12.6531C150.179 12.6531 150.078 12.6782 149.977 12.7158C149.876 12.7534 149.8 12.8161 149.725 12.8913C149.649 12.9666 149.599 13.0544 149.561 13.1422C149.51 13.2425 149.485 13.3428 149.485 13.4557C149.485 13.6689 149.561 13.8695 149.712 14.02C149.863 14.1705 150.04 14.2332 150.28 14.2332C150.381 14.2332 150.494 14.2081 150.583 14.1705C150.684 14.1329 150.759 14.0702 150.835 13.9949C150.911 13.9197 150.961 13.8444 151.012 13.7566C151.049 13.6563 151.075 13.556 151.075 13.4431C151.087 13.3428 151.062 13.2425 151.024 13.1422ZM148.917 13.1422C148.879 13.0544 148.816 12.9666 148.741 12.8913C148.665 12.8161 148.589 12.7659 148.488 12.7158C148.387 12.6782 148.286 12.6531 148.173 12.6531C148.059 12.6531 147.958 12.6782 147.87 12.7158C147.769 12.7534 147.694 12.8161 147.618 12.8913C147.542 12.9666 147.492 13.0544 147.441 13.1422C147.403 13.2425 147.378 13.3428 147.378 13.4557C147.378 13.6689 147.454 13.8695 147.605 14.02C147.757 14.1705 147.933 14.2332 148.16 14.2332C148.274 14.2332 148.375 14.2081 148.476 14.1705C148.577 14.1329 148.652 14.0702 148.728 13.9949C148.804 13.9197 148.854 13.8444 148.905 13.7566C148.943 13.6563 148.968 13.556 148.968 13.4431C148.98 13.3428 148.968 13.2425 148.917 13.1422Z" fill="black"/>
<path d="M113.05 31.6642H111.675V30.4478H111.65C111.436 30.8992 111.095 31.2378 110.641 31.4886C110.174 31.7394 109.669 31.8523 109.127 31.8523C108.13 31.8523 107.398 31.5639 106.932 30.9745C106.465 30.3976 106.238 29.5825 106.238 28.5416V23.9769H107.663V27.9522C107.663 28.8551 107.777 29.5323 108.017 29.9712C108.256 30.4227 108.685 30.661 109.316 30.686C109.72 30.686 110.073 30.6108 110.363 30.4478C110.653 30.2973 110.906 30.0716 111.095 29.7957C111.284 29.5198 111.423 29.1812 111.524 28.7924C111.612 28.4037 111.663 27.9773 111.663 27.5133V23.9769H113.088V31.6642H113.05Z" fill="black"/>
<path d="M119.573 25.1182H117.529V29.3192C117.529 29.7707 117.643 30.1093 117.882 30.335C118.122 30.5607 118.412 30.6861 118.728 30.6861C118.955 30.6861 119.144 30.6611 119.295 30.5984C119.447 30.5357 119.586 30.4855 119.699 30.4102V31.6141C119.535 31.6643 119.359 31.7145 119.144 31.7521C118.942 31.8022 118.715 31.8273 118.475 31.8273C117.731 31.8273 117.151 31.6518 116.734 31.2881C116.305 30.9244 116.104 30.3601 116.104 29.5951V25.1056H114.362V23.977H116.104V22.1962L117.529 21.7448V23.977H119.573V25.1182V25.1182Z" fill="black"/>
<path d="M121.364 20.3654H122.79V25.0806H122.815C123.08 24.6668 123.421 24.3407 123.85 24.1275C124.266 23.9143 124.758 23.8015 125.3 23.8015C126.297 23.8015 127.029 24.0899 127.496 24.6793C127.962 25.2562 128.19 26.0588 128.19 27.0996V31.6644H126.764V27.689C126.764 26.7861 126.65 26.1215 126.423 25.67C126.196 25.2185 125.767 24.9803 125.136 24.9552C124.733 24.9552 124.379 25.0304 124.077 25.1809C123.786 25.3314 123.534 25.5571 123.345 25.833C123.156 26.1089 123.004 26.4475 122.916 26.8363C122.828 27.225 122.777 27.6514 122.777 28.1154V31.6644H121.364V20.3654Z" fill="black"/>
<path d="M131.621 27.8143C131.621 28.1529 131.671 28.4915 131.772 28.8426C131.873 29.1812 132.012 29.4948 132.214 29.7706C132.416 30.0465 132.668 30.2723 132.971 30.4353C133.274 30.6109 133.639 30.6986 134.056 30.6986C134.472 30.6986 134.825 30.6109 135.128 30.4353C135.431 30.2597 135.683 30.0465 135.873 29.7706C136.062 29.4948 136.213 29.1938 136.314 28.8426C136.415 28.5041 136.453 28.1529 136.453 27.8143C136.453 27.4507 136.402 27.087 136.289 26.7484C136.175 26.4098 136.024 26.0963 135.822 25.8329C135.62 25.5696 135.368 25.3438 135.065 25.1808C134.762 25.0178 134.434 24.9425 134.056 24.9425C133.677 24.9425 133.337 25.0178 133.034 25.1808C132.731 25.3438 132.479 25.557 132.277 25.8329C132.075 26.1088 131.911 26.4098 131.798 26.7484C131.671 27.0995 131.621 27.4507 131.621 27.8143ZM130.107 27.8143C130.107 27.2375 130.208 26.6982 130.397 26.1966C130.586 25.7075 130.851 25.2811 131.192 24.93C131.533 24.5789 131.949 24.2904 132.441 24.0898C132.92 23.8891 133.463 23.7888 134.056 23.7888C134.636 23.7888 135.179 23.8891 135.658 24.0898C136.137 24.2904 136.554 24.5663 136.894 24.93C137.235 25.2811 137.5 25.7075 137.689 26.1966C137.879 26.6857 137.967 27.2249 137.967 27.8143C137.967 28.3661 137.866 28.8803 137.677 29.3694C137.487 29.8584 137.222 30.2848 136.869 30.6485C136.529 31.0122 136.112 31.3006 135.633 31.5138C135.153 31.727 134.624 31.8398 134.043 31.8398C133.463 31.8398 132.933 31.727 132.441 31.5138C131.962 31.3006 131.545 31.0122 131.192 30.6485C130.851 30.2848 130.574 29.8584 130.385 29.3694C130.195 28.8928 130.107 28.3661 130.107 27.8143Z" fill="black"/>
<path d="M139.872 23.9769H141.209V25.1557H141.234C141.423 24.7544 141.701 24.4284 142.079 24.165C142.445 23.9142 142.836 23.7888 143.253 23.7888C143.467 23.7888 143.631 23.8014 143.77 23.8139C143.896 23.839 144.048 23.8515 144.199 23.8891V25.1557C144.06 25.1056 143.934 25.068 143.795 25.0554C143.656 25.0303 143.53 25.0303 143.404 25.0303C142.773 25.0303 142.256 25.3062 141.878 25.8705C141.487 26.4349 141.297 27.1873 141.297 28.1529V31.6392H139.872V23.9769V23.9769Z" fill="black"/>
<path d="M84.6017 30.1469C84.7405 30.2346 84.8919 30.3224 85.0559 30.3851C85.2199 30.4478 85.3839 30.5105 85.5353 30.5482C85.6993 30.5983 85.8507 30.6234 85.9895 30.6485C86.1283 30.6736 86.2544 30.6861 86.368 30.6861C86.532 30.6861 86.696 30.6736 86.86 30.6359C87.0366 30.5983 87.188 30.5482 87.3268 30.4604C87.4656 30.3726 87.5791 30.2597 87.6674 30.1218C87.7557 29.9838 87.8062 29.8083 87.8062 29.5825C87.8062 29.407 87.7557 29.2565 87.6674 29.1311C87.5665 28.9931 87.4403 28.8803 87.2889 28.7674C87.1376 28.6545 86.9483 28.5542 86.7464 28.4539C86.5446 28.3536 86.3427 28.2532 86.1283 28.1529C85.9264 28.0526 85.7119 27.9397 85.5101 27.8143C85.3082 27.6889 85.1316 27.551 84.9802 27.4005C84.8288 27.25 84.7026 27.0619 84.6017 26.8612C84.5008 26.6606 84.4503 26.4223 84.4503 26.1464C84.4503 25.7451 84.526 25.4065 84.6648 25.1056C84.8036 24.8046 84.9928 24.5663 85.2325 24.3657C85.4722 24.165 85.7624 24.0271 86.103 23.9268C86.431 23.8264 86.7969 23.7888 87.1754 23.7888C87.516 23.7888 87.8314 23.8139 88.109 23.8766C88.3865 23.9393 88.6767 24.002 88.9543 24.0898L88.8407 25.3188C88.7524 25.2686 88.6515 25.2184 88.5127 25.1808C88.3739 25.1307 88.2352 25.093 88.0838 25.0554C87.9324 25.0178 87.7936 24.9927 87.6548 24.9676C87.516 24.9425 87.4151 24.93 87.3268 24.93C86.9609 24.93 86.6329 25.0052 86.368 25.1557C86.103 25.3062 85.9643 25.532 85.9643 25.858C85.9643 26.0587 86.0147 26.2217 86.103 26.3596C86.204 26.4976 86.3301 26.623 86.4815 26.7233C86.6455 26.8236 86.8221 26.9239 87.024 27.0117C87.2259 27.0995 87.4277 27.1998 87.6296 27.3002C87.844 27.4005 88.0459 27.5008 88.2478 27.6137C88.4496 27.7265 88.6263 27.8645 88.7776 28.0275C88.929 28.1905 89.0552 28.3786 89.1561 28.6044C89.2571 28.8301 89.3075 29.0935 89.3075 29.407C89.3075 29.8208 89.2318 30.1719 89.0804 30.4729C88.929 30.7739 88.7272 31.0247 88.4749 31.2253C88.2225 31.426 87.9324 31.5639 87.617 31.6643C87.3016 31.7646 86.9609 31.8022 86.6203 31.8022C86.267 31.8022 85.9012 31.7771 85.5353 31.7144C85.1694 31.6643 84.8288 31.5389 84.5008 31.3758L84.6017 30.1469Z" fill="black"/>
<path d="M62.6124 27.8143C62.6124 28.1529 62.6628 28.4915 62.7511 28.8426C62.8521 29.1812 62.9908 29.4948 63.1927 29.7706C63.3946 30.0465 63.6469 30.2723 63.9497 30.4353C64.2525 30.6109 64.6183 30.6986 65.0347 30.6986C65.451 30.6986 65.8042 30.6109 66.107 30.4353C66.4098 30.2597 66.6621 30.0465 66.8514 29.7706C67.0406 29.4948 67.192 29.1938 67.2929 28.8426C67.3939 28.5041 67.4317 28.1529 67.4317 27.8143C67.4317 27.4507 67.3813 27.087 67.2677 26.7484C67.1542 26.4098 67.0028 26.0963 66.8009 25.8329C66.5991 25.5696 66.3467 25.3438 66.0439 25.1808C65.7412 25.0178 65.4131 24.9425 65.0347 24.9425C64.6562 24.9425 64.3155 25.0178 64.0128 25.1808C63.71 25.3438 63.4576 25.557 63.2558 25.8329C63.0539 26.1088 62.8899 26.4098 62.7764 26.7484C62.6628 27.0995 62.6124 27.4507 62.6124 27.8143ZM61.0858 27.8143C61.0858 27.2375 61.1867 26.6982 61.376 26.1966C61.5652 25.7075 61.8302 25.2811 62.1708 24.93C62.5114 24.5789 62.9278 24.2904 63.4198 24.0898C63.8992 23.8891 64.4417 23.7888 65.0347 23.7888C65.615 23.7888 66.1575 23.8891 66.6369 24.0898C67.1163 24.2904 67.5327 24.5663 67.8733 24.93C68.2139 25.2811 68.4789 25.7075 68.6681 26.1966C68.8573 26.6857 68.9457 27.2249 68.9457 27.8143C68.9457 28.3661 68.8447 28.8803 68.6555 29.3694C68.4662 29.8584 68.1887 30.2848 67.8481 30.6485C67.5074 31.0122 67.0911 31.3006 66.6117 31.5138C66.1323 31.727 65.6024 31.8398 65.022 31.8398C64.4417 31.8398 63.9118 31.727 63.4198 31.5138C62.9404 31.3006 62.5241 31.0122 62.1708 30.6485C61.8175 30.2848 61.5526 29.8584 61.3634 29.3694C61.1867 28.8928 61.0858 28.3661 61.0858 27.8143Z" fill="black"/>
<path d="M70.8631 23.9769H72.2004V25.1557H72.2256C72.4149 24.7544 72.6924 24.4284 73.0709 24.165C73.4368 23.9142 73.8279 23.7888 74.2442 23.7888C74.4587 23.7888 74.6227 23.8014 74.7615 23.8139C74.8876 23.839 75.039 23.8515 75.1904 23.8891V25.1557C75.0516 25.1056 74.9255 25.068 74.7867 25.0554C74.6479 25.0303 74.5218 25.0303 74.3956 25.0303C73.7648 25.0303 73.2475 25.3062 72.8691 25.8705C72.478 26.4349 72.2887 27.1873 72.2887 28.1529V31.6392H70.8631V23.9769Z" fill="black"/>
<path d="M40.888 25.2812C40.6104 25.1683 40.3455 25.0805 40.0932 25.0304C39.8282 24.9802 39.5885 24.9551 39.3488 24.9551C38.9577 24.9551 38.6045 25.0304 38.3017 25.1934C37.9989 25.3564 37.734 25.5696 37.5195 25.8455C37.305 26.1088 37.141 26.4224 37.0401 26.761C36.9265 27.0995 36.8761 27.4632 36.8761 27.8269C36.8761 28.1655 36.9265 28.5041 37.0148 28.8552C37.1158 29.1938 37.2672 29.5073 37.469 29.7832C37.6709 30.0591 37.9484 30.2848 38.2638 30.4479C38.5918 30.6234 38.9829 30.7112 39.4371 30.7112C39.6768 30.7112 39.9418 30.6736 40.2193 30.5984C40.4969 30.5231 40.7492 30.4102 40.9763 30.2723L41.0772 31.5389C40.7871 31.6768 40.4716 31.7646 40.1562 31.8022C39.8408 31.8399 39.5507 31.8524 39.2857 31.8524C38.7054 31.8524 38.1755 31.7395 37.6961 31.5264C37.2167 31.3132 36.8004 31.0247 36.4597 30.6611C36.1065 30.2974 35.8415 29.871 35.6523 29.3819C35.4631 28.8928 35.3621 28.3787 35.3621 27.8269C35.3621 27.25 35.4631 26.7108 35.6523 26.2092C35.8415 25.7201 36.1065 25.2937 36.4471 24.9426C36.7877 24.5914 37.2041 24.303 37.6835 24.1024C38.1629 23.9017 38.7054 23.8014 39.2984 23.8014C39.6011 23.8014 39.9165 23.839 40.2319 23.9017C40.5726 23.9644 40.8375 24.0271 41.0268 24.1024L40.888 25.2812Z" fill="black"/>
<path d="M2.19515 26.1339H3.69647C3.93617 26.1339 4.17588 26.1089 4.4282 26.0462C4.68052 25.9835 4.90761 25.8831 5.10947 25.7327C5.31133 25.5822 5.48796 25.3941 5.61412 25.1558C5.7529 24.9175 5.81598 24.6165 5.81598 24.278C5.81598 23.9519 5.74028 23.6635 5.57627 23.4377C5.42488 23.212 5.22302 23.0239 4.99593 22.8734C4.75622 22.7355 4.5039 22.6226 4.23896 22.5599C3.97402 22.4972 3.7217 22.4596 3.48199 22.4596H2.19515V26.1339ZM0.681213 21.1428H3.45676C3.99925 21.1428 4.51651 21.193 4.99593 21.3058C5.47534 21.4062 5.89167 21.5817 6.25754 21.8326C6.62341 22.0834 6.90096 22.3969 7.11544 22.7982C7.32991 23.1995 7.43084 23.7011 7.43084 24.303C7.43084 24.8799 7.32991 25.369 7.11544 25.7703C6.90096 26.1716 6.62341 26.4976 6.27016 26.7484C5.91691 26.9992 5.52581 27.1748 5.07162 27.2877C4.61744 27.4005 4.16326 27.4632 3.68385 27.4632H2.19515V31.6643H0.681213V21.1428V21.1428Z" fill="black"/>
<path d="M15.8834 31.6642H14.5082V30.4478H14.483C14.2685 30.8992 13.9279 31.2378 13.4737 31.4886C13.0069 31.7394 12.5023 31.8523 11.9598 31.8523C10.9631 31.8523 10.2314 31.5639 9.76457 30.9745C9.29777 30.3976 9.07068 29.5825 9.07068 28.5416V23.9769H10.4963V27.9522C10.4963 28.8551 10.6098 29.5323 10.8369 29.9712C11.0766 30.4227 11.5056 30.661 12.1364 30.686C12.5401 30.686 12.8934 30.6108 13.1835 30.4478C13.4737 30.2973 13.726 30.0716 13.9153 29.7957C14.1045 29.5198 14.2433 29.1812 14.3442 28.7924C14.4325 28.4037 14.483 27.9773 14.483 27.5133V23.9769H15.9086V31.6642H15.8834Z" fill="black"/>
<path d="M24.1342 27.7893C24.1469 27.4508 24.109 27.0996 24.0333 26.761C23.9576 26.4224 23.8315 26.1215 23.6674 25.8456C23.4908 25.5822 23.2763 25.3565 23.0114 25.1935C22.7338 25.0304 22.4058 24.9426 22.0273 24.9426C21.6362 24.9426 21.2956 25.0304 21.0181 25.1935C20.7279 25.3565 20.4882 25.5822 20.2989 25.8456C20.1097 26.1215 19.9709 26.4224 19.87 26.7736C19.7817 27.1247 19.7312 27.4758 19.7312 27.8395C19.7312 28.153 19.7691 28.4916 19.8574 28.8302C19.9457 29.1688 20.0718 29.4698 20.2611 29.7582C20.4377 30.0341 20.6774 30.2598 20.9676 30.4479C21.2578 30.6235 21.5984 30.7113 22.0021 30.7113C22.3806 30.7113 22.7086 30.611 22.9736 30.4229C23.2511 30.2347 23.4656 29.9965 23.6422 29.708C23.8188 29.4196 23.945 29.1061 24.0207 28.7675C24.109 28.4164 24.1469 28.0903 24.1342 27.7893ZM18.3056 20.3654H19.7312V25.0304H19.7564C19.9835 24.6793 20.2989 24.3909 20.69 24.1526C21.0938 23.9143 21.6362 23.8015 22.3175 23.8015C22.8726 23.8015 23.3647 23.9018 23.781 24.115C24.1973 24.3282 24.538 24.6041 24.8155 24.9677C25.0931 25.3314 25.2949 25.7452 25.4337 26.2092C25.5725 26.6732 25.6356 27.1749 25.6356 27.689C25.6356 28.2283 25.5725 28.7424 25.4463 29.2315C25.3202 29.7331 25.1183 30.172 24.8534 30.5608C24.5884 30.9496 24.2352 31.2631 23.8188 31.4888C23.4025 31.7271 22.8979 31.8399 22.3175 31.8399C21.9643 31.8399 21.6489 31.8023 21.3713 31.7145C21.0938 31.6393 20.8414 31.5264 20.627 31.4136C20.4125 31.2882 20.2232 31.1502 20.0592 30.9997C19.9078 30.8492 19.7817 30.7113 19.6807 30.5733H19.6555V31.6518H18.293V20.3654H18.3056Z" fill="black"/>
</svg>
